<svg width="27" height="27" viewBox="0 0 27 27" fill="none" xmlns="http://www.w3.org/2000/svg">
<path fill-rule="evenodd" clip-rule="evenodd" d="M13.7819 0C17.3129 0 20.6321 1.37489 23.1286 3.87139C25.6251 6.36794 27 9.68704 27 13.2175C27 16.748 25.6251 20.0676 23.1286 22.5641C20.994 24.6982 18.1686 26.0471 15.1723 26.3622C12.3536 26.6584 9.49177 26.0356 7.06699 24.605L0 27L2.39446 19.933C0.964406 17.5082 0.340981 14.6459 0.637242 11.8272C0.952277 8.83079 2.30122 6.00544 4.4358 3.87139C6.93236 1.37489 10.2515 0 13.7819 0Z" fill="#252525"/>
<path fill-rule="evenodd" clip-rule="evenodd" d="M7.06699 24.605C9.49177 26.0356 12.3536 26.6584 15.1723 26.3622C18.1686 26.0471 20.994 24.6982 23.1286 22.5641C25.6251 20.0676 27 16.748 27 13.2175C27 9.68704 25.6251 6.36794 23.1286 3.87139C20.6321 1.37489 17.3129 0 13.7819 0C10.2515 0 6.93235 1.37489 4.4358 3.87139C2.30122 6.00544 0.952277 8.83079 0.637242 11.8272C0.340981 14.6459 0.964406 17.5082 2.39446 19.933L0 27L7.06699 24.605ZM0.842153 26.1578L7.12671 24.0279L7.33496 24.1508C9.66207 25.5238 12.4105 26.1222 15.1171 25.8377C17.9931 25.5354 20.7063 24.2401 22.7557 22.1913C25.1533 19.7937 26.4727 16.6081 26.4727 13.2175C26.4727 9.82691 25.1533 6.64194 22.7557 4.24428C20.3581 1.84668 17.173 0.527344 13.7819 0.527344C10.3913 0.527344 7.20635 1.84667 4.80869 4.24428L4.80865 4.24432C2.75935 6.29311 1.46407 9.00634 1.1617 11.8823C0.877223 14.5888 1.47618 17.3379 2.84869 19.6651L2.97147 19.8733L0.842153 26.1578Z" fill="#333333"/>
<g filter="url(#filter0_d)">
<path fill-rule="evenodd" clip-rule="evenodd" d="M21.1465 12.8408C21.1465 16.8163 17.9473 20.0391 14.001 20.0391C10.0546 20.0391 6.85547 16.8163 6.85547 12.8408C6.85547 8.86534 10.0546 5.64258 14.001 5.64258C17.9473 5.64258 21.1465 8.86534 21.1465 12.8408ZM14.0183 7.43922C13.3694 8.43718 12.3085 10.3182 12.0991 12.219H15.9262C15.7185 10.3143 14.6642 8.43632 14.0183 7.43922ZM10.7996 12.219H8.13845C8.41335 9.70452 10.2739 7.65911 12.6972 7.10485C11.9664 8.29087 10.9831 10.2158 10.7996 12.219ZM15.3368 7.10353C16.0637 8.28956 17.0426 10.2149 17.2253 12.219H19.8998C19.6249 9.7028 17.7622 7.65652 15.3368 7.10353ZM14.017 18.2894C13.3681 17.2932 12.3077 15.4143 12.0991 13.5101H15.9258C15.7176 15.4104 14.6624 17.2914 14.017 18.2894ZM10.7996 13.5101H8.13845C8.41335 16.0241 10.2739 18.0695 12.6972 18.6242C11.9664 17.4382 10.9831 15.5133 10.7996 13.5101ZM15.3368 18.6251C16.0637 17.4395 17.0426 15.5137 17.2253 13.5101H19.8998C19.6249 16.0258 17.7622 18.0721 15.3368 18.6251Z" fill="#FFCC00"/>
</g>
<defs>
<filter id="filter0_d" x="5.85547" y="4.64258" width="16.291" height="16.3965" filterUnits="userSpaceOnUse" color-interpolation-filters="sRGB">
<feFlood flood-opacity="0" result="BackgroundImageFix"/>
<feColorMatrix in="SourceAlpha" type="matrix" values="0 0 0 0 0 0 0 0 0 0 0 0 0 0 0 0 0 0 127 0"/>
<feOffset/>
<feGaussianBlur stdDeviation="0.5"/>
<feColorMatrix type="matrix" values="0 0 0 0 1 0 0 0 0 0.8 0 0 0 0 0 0 0 0 1 0"/>
<feBlend mode="normal" in2="BackgroundImageFix" result="effect1_dropShadow"/>
<feBlend mode="normal" in="SourceGraphic" in2="effect1_dropShadow" result="shape"/>
</filter>
</defs>
</svg>
