<svg width="178" height="66" viewBox="0 0 178 66" fill="none" xmlns="http://www.w3.org/2000/svg">
<path fill-rule="evenodd" clip-rule="evenodd" d="M43.4287 0L0 0L0 39.8096H9.30614L9.30614 9.04764L17.0613 9.04764L17.0613 26.1089H26.3674L26.3674 9.04764L34.381 9.04764L34.381 39.8096H43.4287L43.4287 0ZM43.4287 65.6599H0L0 44.9796H9.30614L9.30614 56.6123H17.0613L17.0613 28.1769H26.3674L26.3674 56.6123H34.381V44.9796H43.4287V65.6599Z" fill="#313332"/>
<path d="M54.2706 20.4787H60.1738L63.2448 30.2718C63.3813 30.704 63.5178 31.1704 63.6543 31.6708C63.8136 32.1713 63.9614 32.6718 64.0979 33.1722C64.2344 33.6727 64.3595 34.1618 64.4733 34.6395C64.587 35.1172 64.678 35.5608 64.7462 35.9703H64.8827C64.951 35.6063 65.042 35.1855 65.1557 34.7077C65.2694 34.2073 65.3946 33.6954 65.5311 33.1722C65.6675 32.649 65.804 32.1372 65.9405 31.6367C66.077 31.1363 66.2021 30.6813 66.3159 30.2718L69.2845 20.4787H75.1877L76.7915 41.9758H72.3897C72.2532 39.61 72.1167 37.2442 71.9802 34.8784C71.8437 32.5125 71.7527 30.124 71.7072 27.7126L71.6731 24.9146H71.5707C71.275 26.1657 70.9452 27.4738 70.5812 28.8387C70.24 30.2036 69.9101 31.3979 69.5916 32.4215L66.5547 41.9758H62.9377L59.8326 32.3874C59.4459 31.159 59.0819 29.8624 58.7407 28.4975C58.3994 27.1326 58.1265 25.9383 57.9217 24.9146H57.8194C57.8194 25.7335 57.808 26.598 57.7852 27.5079C57.7625 28.3951 57.7284 29.2823 57.6829 30.1695C57.6601 31.0566 57.626 31.9325 57.5805 32.7969C57.5578 33.6386 57.5236 34.412 57.4781 35.1172L57.0687 41.9758H52.7351L54.2706 20.4787Z" fill="#313332"/>
<path d="M97.197 33.7182C97.197 35.0603 96.9809 36.266 96.5487 37.3352C96.1165 38.4044 95.5136 39.3143 94.7402 40.065C93.9895 40.7929 93.1023 41.3616 92.0786 41.7711C91.055 42.1578 89.9517 42.3512 88.7687 42.3512C87.5858 42.3512 86.4825 42.1692 85.4589 41.8052C84.4579 41.4413 83.5821 40.9067 82.8314 40.2015C82.1035 39.4963 81.5234 38.6318 81.0912 37.6082C80.6817 36.5617 80.477 35.3788 80.477 34.0594C80.477 32.6718 80.6931 31.4434 81.1253 30.3742C81.5575 29.2823 82.149 28.3723 82.8997 27.6444C83.6731 26.8937 84.5717 26.325 85.5954 25.9383C86.619 25.5515 87.7223 25.3582 88.9052 25.3582C90.0882 25.3582 91.1801 25.5402 92.181 25.9041C93.2047 26.2681 94.0805 26.8027 94.8084 27.5079C95.5591 28.1903 96.1392 29.0548 96.5487 30.1012C96.9809 31.1476 97.197 32.3533 97.197 33.7182ZM92.5222 33.8888C92.5222 32.9561 92.4199 32.1599 92.2151 31.5002C92.0104 30.8405 91.7374 30.3059 91.3962 29.8965C91.055 29.487 90.6569 29.1913 90.2019 29.0093C89.7469 28.8046 89.2806 28.7022 88.8029 28.7022C88.3252 28.7022 87.8702 28.7932 87.438 28.9752C87.0058 29.1344 86.619 29.4188 86.2778 29.8282C85.9366 30.215 85.6636 30.7382 85.4589 31.3979C85.2541 32.0576 85.1518 32.8879 85.1518 33.8888C85.1518 34.776 85.2541 35.5494 85.4589 36.2091C85.6636 36.8461 85.9366 37.3693 86.2778 37.7788C86.6418 38.1882 87.0399 38.4953 87.4721 38.7001C87.9271 38.9048 88.3934 39.0072 88.8711 39.0072C89.3488 39.0072 89.8038 38.9276 90.236 38.7683C90.6682 38.5863 91.055 38.2906 91.3962 37.8811C91.7374 37.4717 92.0104 36.9485 92.2151 36.3115C92.4199 35.6518 92.5222 34.8442 92.5222 33.8888Z" fill="#313332"/>
<path d="M116.906 33.8888C116.906 35.1855 116.713 36.357 116.326 37.4034C115.939 38.4499 115.405 39.3484 114.722 40.0991C114.04 40.8271 113.232 41.3844 112.299 41.7711C111.367 42.1578 110.354 42.3512 109.263 42.3512C108.193 42.3512 107.283 42.192 106.533 41.8735C105.782 41.5323 105.122 41.0659 104.554 40.4745H104.417L104.11 41.9758H100.834V17.6124H105.338V27.0302C105.907 26.507 106.567 26.0975 107.318 25.8018C108.091 25.506 108.91 25.3582 109.774 25.3582C112.004 25.3582 113.744 26.1089 114.995 27.6103C116.269 29.1117 116.906 31.2045 116.906 33.8888ZM112.231 33.9912C112.231 32.3078 111.901 31.0339 111.242 30.1695C110.582 29.2823 109.649 28.8387 108.444 28.8387C107.807 28.8387 107.215 28.9979 106.669 29.3164C106.123 29.6121 105.691 29.9533 105.373 30.3401V37.8129C105.668 38.1541 106.044 38.4385 106.499 38.666C106.976 38.8934 107.477 39.0072 108 39.0072C108.546 39.0072 109.069 38.9048 109.57 38.7001C110.093 38.4953 110.548 38.1882 110.935 37.7788C111.344 37.3693 111.662 36.8575 111.89 36.2433C112.117 35.6063 112.231 34.8556 112.231 33.9912Z" fill="#313332"/>
<path d="M120.876 41.9758V25.6994L125.415 25.6994V41.9758H120.876ZM123.163 22.2189C122.389 22.2189 121.786 22.0028 121.354 21.5706C120.922 21.1156 120.706 20.5583 120.706 19.8986C120.706 19.2389 120.922 18.6929 121.354 18.2607C121.786 17.8057 122.389 17.5782 123.163 17.5782C123.913 17.5782 124.505 17.8057 124.937 18.2607C125.392 18.6929 125.619 19.2389 125.619 19.8986C125.619 20.5583 125.403 21.1156 124.971 21.5706C124.539 22.0028 123.936 22.2189 123.163 22.2189Z" fill="#313332"/>
<path d="M139.998 28.9752H135.664V36.4821C135.664 37.2556 135.835 37.7901 136.176 38.0859C136.54 38.3589 137.018 38.4953 137.609 38.4953C138.064 38.4953 138.53 38.4499 139.008 38.3589C139.486 38.2679 139.872 38.1427 140.168 37.9835L140.851 41.1569C140.464 41.3389 139.884 41.5209 139.11 41.7029C138.337 41.8849 137.518 41.9758 136.654 41.9758C134.674 41.9758 133.264 41.5891 132.422 40.8157C131.581 40.0195 131.16 38.8366 131.16 37.2669V28.9752H128.635V25.6994H131.16V20.6834H135.664V25.6994H139.998V28.9752Z" fill="#313332"/>
<path d="M158.145 35.0149H147.328V35.1513C147.328 36.448 147.783 37.4148 148.693 38.0518C149.603 38.6887 150.775 39.0072 152.208 39.0072C153.118 39.0072 153.914 38.9162 154.596 38.7342C155.302 38.5522 155.939 38.3361 156.507 38.0859L157.326 41.2593C156.712 41.555 155.939 41.8052 155.006 42.01C154.073 42.2375 152.97 42.3512 151.696 42.3512C150.468 42.3512 149.307 42.192 148.216 41.8735C147.146 41.5323 146.202 41.0204 145.383 40.338C144.587 39.6555 143.95 38.7911 143.472 37.7447C142.995 36.6982 142.756 35.4471 142.756 33.9912C142.756 32.6945 142.949 31.523 143.336 30.4766C143.723 29.4074 144.269 28.4975 144.974 27.7468C145.702 26.9961 146.566 26.416 147.567 26.0065C148.568 25.5743 149.683 25.3582 150.911 25.3582C153.118 25.3582 154.869 26.0293 156.166 27.3714C157.485 28.7136 158.145 30.5903 158.145 33.0016V35.0149ZM153.504 31.9097C153.504 31.4775 153.448 31.0566 153.334 30.6472C153.243 30.2377 153.084 29.8851 152.856 29.5894C152.629 29.2709 152.344 29.0207 152.003 28.8387C151.662 28.6567 151.241 28.5657 150.741 28.5657C149.831 28.5657 149.08 28.8728 148.488 29.487C147.897 30.1012 147.544 30.9315 147.431 31.9779L153.504 31.9097Z" fill="#313332"/>
<path d="M166.251 36.5162V41.9758H161.747V17.6124H166.251V32.0803L171.711 25.6994H177.204L170.926 32.558L177.512 41.9758L172.154 41.9758L167.582 35.1855L166.251 36.5162Z" fill="#313332"/>
<path d="M52.974 49.1779C53.2277 49.04 53.4704 48.938 53.702 48.8718C53.9391 48.8001 54.2011 48.7643 54.4878 48.7643C54.7084 48.7643 54.9097 48.7891 55.0917 48.8387C55.2792 48.8883 55.4391 48.9683 55.5715 49.0786C55.7038 49.1889 55.8059 49.3378 55.8776 49.5253C55.9548 49.7073 55.9934 49.9306 55.9934 50.1953V52.7349H55.3068L55.2158 52.313H55.191C55.0366 52.4895 54.8573 52.6191 54.6533 52.7018C54.4492 52.779 54.2231 52.8176 53.975 52.8176C53.5834 52.8176 53.2663 52.7128 53.0237 52.5033C52.7865 52.2937 52.668 52.0152 52.668 51.6678C52.668 51.4527 52.7121 51.268 52.8003 51.1135C52.8886 50.9536 53.0126 50.8213 53.1726 50.7165C53.3325 50.6117 53.5228 50.5345 53.7433 50.4849C53.9639 50.4297 54.2066 50.4021 54.4713 50.4021H55.1331V50.1043C55.1331 49.8562 55.0669 49.6852 54.9345 49.5915C54.8022 49.4922 54.6202 49.4426 54.3886 49.4426C54.2452 49.4426 54.0825 49.4674 53.9005 49.517C53.724 49.5611 53.52 49.6466 53.2884 49.7735L52.974 49.1779ZM55.1413 50.9646L54.6202 50.9729C54.2286 50.9839 53.9529 51.0529 53.793 51.1797C53.633 51.3066 53.5531 51.4555 53.5531 51.6264C53.5531 51.7367 53.5696 51.8277 53.6027 51.8994C53.6413 51.9711 53.691 52.029 53.7516 52.0731C53.8123 52.1172 53.8812 52.1503 53.9584 52.1724C54.0411 52.1889 54.1239 52.1972 54.2066 52.1972C54.3775 52.1972 54.5457 52.1558 54.7112 52.0731C54.8821 51.9849 55.0255 51.8608 55.1413 51.7009V50.9646Z" fill="#313332"/>
<path d="M58.5421 51.3452V52.7349H57.6984V46.8534H58.5421V50.46L60.0229 48.8304H61.0651L59.4934 50.4766L61.1396 52.7349H60.1387L58.9061 50.9812L58.5421 51.3452Z" fill="#313332"/>
<path d="M64.6247 49.6246C64.4482 49.5418 64.2828 49.4839 64.1284 49.4508C63.9795 49.4122 63.8306 49.3929 63.6817 49.3929C63.45 49.3929 63.2736 49.4371 63.1522 49.5253C63.0364 49.608 62.9785 49.7211 62.9785 49.8644C62.9785 49.9747 63.0226 50.0712 63.1109 50.154C63.1991 50.2312 63.3811 50.3084 63.6568 50.3856L63.905 50.46C64.2635 50.5703 64.5337 50.7137 64.7157 50.8902C64.9032 51.0667 64.9969 51.3038 64.9969 51.6016C64.9969 51.9656 64.8591 52.2606 64.5833 52.4867C64.3076 52.7073 63.9298 52.8176 63.45 52.8176C63.1908 52.8176 62.9482 52.7928 62.7221 52.7431C62.5015 52.699 62.303 52.6356 62.1265 52.5529L62.325 51.9077C62.485 51.9849 62.6559 52.0483 62.8379 52.0979C63.0199 52.1476 63.2074 52.1724 63.4004 52.1724C63.6375 52.1724 63.8223 52.131 63.9546 52.0483C64.087 51.9656 64.1532 51.8387 64.1532 51.6678C64.1532 51.5078 64.0925 51.3948 63.9712 51.3286C63.8554 51.2569 63.6734 51.1825 63.4252 51.1053L63.1688 51.0308C62.8214 50.915 62.5622 50.7689 62.3912 50.5924C62.2258 50.4159 62.143 50.1843 62.143 49.8975C62.143 49.7266 62.1789 49.5722 62.2506 49.4343C62.3223 49.2964 62.4215 49.1779 62.5484 49.0786C62.6752 48.9793 62.8269 48.9021 63.0033 48.847C63.1853 48.7918 63.3839 48.7643 63.5989 48.7643C63.803 48.7643 64.0098 48.7836 64.2193 48.8222C64.4344 48.8608 64.6329 48.9214 64.8149 49.0041L64.6247 49.6246Z" fill="#313332"/>
<path d="M69.8207 50.9316H67.0826V50.9646C67.0826 51.3617 67.1984 51.6623 67.43 51.8663C67.6616 52.0703 67.9677 52.1724 68.3482 52.1724C68.5578 52.1724 68.7453 52.1558 68.9107 52.1227C69.0817 52.0841 69.2527 52.0262 69.4236 51.949L69.5891 52.5694C69.4291 52.6411 69.2389 52.699 69.0183 52.7431C68.7977 52.7928 68.555 52.8176 68.2903 52.8176C68.0091 52.8176 67.7416 52.779 67.4879 52.7018C67.2343 52.6246 67.0109 52.5033 66.8179 52.3378C66.6304 52.1724 66.4815 51.9628 66.3712 51.7091C66.2609 51.4555 66.2058 51.1521 66.2058 50.7992C66.2058 50.4959 66.2499 50.2201 66.3381 49.972C66.4319 49.7183 66.5615 49.5032 66.7269 49.3268C66.8979 49.1448 67.1019 49.0069 67.339 48.9132C67.5817 48.8139 67.8491 48.7643 68.1414 48.7643C68.3951 48.7643 68.624 48.8056 68.828 48.8883C69.0376 48.9711 69.214 49.0896 69.3574 49.244C69.5063 49.3929 69.6194 49.5777 69.6966 49.7983C69.7793 50.0133 69.8207 50.2532 69.8207 50.5179V50.9316ZM68.9438 50.336C68.9438 50.2036 68.9273 50.0795 68.8942 49.9637C68.8611 49.8479 68.8115 49.7486 68.7453 49.6659C68.6791 49.5777 68.5909 49.5087 68.4806 49.4591C68.3758 49.404 68.249 49.3764 68.1001 49.3764C67.8243 49.3764 67.5982 49.4646 67.4218 49.6411C67.2508 49.8176 67.146 50.0547 67.1074 50.3525L68.9438 50.336Z" fill="#313332"/>
<path d="M73.5579 49.6246C73.3815 49.5418 73.216 49.4839 73.0616 49.4508C72.9127 49.4122 72.7638 49.3929 72.6149 49.3929C72.3833 49.3929 72.2068 49.4371 72.0855 49.5253C71.9697 49.608 71.9118 49.7211 71.9118 49.8644C71.9118 49.9747 71.9559 50.0712 72.0441 50.154C72.1324 50.2312 72.3144 50.3084 72.5901 50.3856L72.8383 50.46C73.1967 50.5703 73.4669 50.7137 73.6489 50.8902C73.8364 51.0667 73.9302 51.3038 73.9302 51.6016C73.9302 51.9656 73.7923 52.2606 73.5166 52.4867C73.2408 52.7073 72.8631 52.8176 72.3833 52.8176C72.1241 52.8176 71.8814 52.7928 71.6553 52.7431C71.4347 52.699 71.2362 52.6356 71.0597 52.5529L71.2583 51.9077C71.4182 51.9849 71.5892 52.0483 71.7711 52.0979C71.9531 52.1476 72.1406 52.1724 72.3337 52.1724C72.5708 52.1724 72.7555 52.131 72.8879 52.0483C73.0202 51.9656 73.0864 51.8387 73.0864 51.6678C73.0864 51.5078 73.0258 51.3948 72.9044 51.3286C72.7886 51.2569 72.6066 51.1825 72.3585 51.1053L72.102 51.0308C71.7546 50.915 71.4954 50.7689 71.3245 50.5924C71.159 50.4159 71.0763 50.1843 71.0763 49.8975C71.0763 49.7266 71.1121 49.5722 71.1838 49.4343C71.2555 49.2964 71.3548 49.1779 71.4816 49.0786C71.6085 48.9793 71.7601 48.9021 71.9366 48.847C72.1186 48.7918 72.3171 48.7643 72.5322 48.7643C72.7362 48.7643 72.943 48.7836 73.1526 48.8222C73.3677 48.8608 73.5662 48.9214 73.7482 49.0041L73.5579 49.6246Z" fill="#313332"/>
<path d="M78.0002 48.8304H78.8522V52.7349H78.1987L78.0912 52.2634H78.0581C77.9202 52.4067 77.7465 52.5363 77.5369 52.6522C77.3274 52.7624 77.0737 52.8176 76.7759 52.8176C76.3623 52.8176 76.0314 52.7018 75.7833 52.4702C75.5351 52.2385 75.411 51.8911 75.411 51.4279V48.8304L76.263 48.8304V51.3369C76.263 51.6402 76.332 51.8525 76.4698 51.9738C76.6132 52.0952 76.7842 52.1558 76.9827 52.1558C77.1978 52.1558 77.388 52.1117 77.5535 52.0235C77.7189 51.9297 77.8678 51.8084 78.0002 51.6595V48.8304Z" fill="#313332"/>
<path d="M80.6382 49.1779C80.8918 49.04 81.1345 48.938 81.3661 48.8718C81.6032 48.8001 81.8652 48.7643 82.152 48.7643C82.3725 48.7643 82.5738 48.7891 82.7558 48.8387C82.9433 48.8883 83.1032 48.9683 83.2356 49.0786C83.368 49.1889 83.47 49.3378 83.5417 49.5253C83.6189 49.7073 83.6575 49.9306 83.6575 50.1953V52.7349H82.9709L82.8799 52.313H82.8551C82.7007 52.4895 82.5214 52.6191 82.3174 52.7018C82.1133 52.779 81.8872 52.8176 81.6391 52.8176C81.2475 52.8176 80.9304 52.7128 80.6878 52.5033C80.4507 52.2937 80.3321 52.0152 80.3321 51.6678C80.3321 51.4527 80.3762 51.268 80.4644 51.1135C80.5527 50.9536 80.6768 50.8213 80.8367 50.7165C80.9966 50.6117 81.1869 50.5345 81.4075 50.4849C81.6281 50.4297 81.8707 50.4021 82.1354 50.4021H82.7972V50.1043C82.7972 49.8562 82.731 49.6852 82.5986 49.5915C82.4663 49.4922 82.2843 49.4426 82.0527 49.4426C81.9093 49.4426 81.7466 49.4674 81.5646 49.517C81.3882 49.5611 81.1841 49.6466 80.9525 49.7735L80.6382 49.1779ZM82.8055 50.9646L82.2843 50.9729C81.8928 50.9839 81.617 51.0529 81.4571 51.1797C81.2972 51.3066 81.2172 51.4555 81.2172 51.6264C81.2172 51.7367 81.2337 51.8277 81.2668 51.8994C81.3054 51.9711 81.3551 52.029 81.4157 52.0731C81.4764 52.1172 81.5453 52.1503 81.6225 52.1724C81.7053 52.1889 81.788 52.1972 81.8707 52.1972C82.0417 52.1972 82.2099 52.1558 82.3753 52.0731C82.5463 51.9849 82.6896 51.8608 82.8055 51.7009V50.9646Z" fill="#313332"/>
<path d="M85.3377 52.7349V48.8304H85.9829L86.107 49.5832C86.2007 49.3516 86.3524 49.1586 86.562 49.0041C86.7715 48.8442 87.0252 48.7643 87.323 48.7643C87.4554 48.7643 87.5684 48.7753 87.6622 48.7973C87.7614 48.8194 87.8497 48.8497 87.9269 48.8883L87.7697 49.5997C87.7035 49.5667 87.6263 49.5391 87.5381 49.517C87.4554 49.495 87.3588 49.4839 87.2486 49.4839C86.9452 49.4839 86.6916 49.5887 86.4875 49.7983C86.2835 50.0023 86.1814 50.3139 86.1814 50.733V52.7349H85.3377Z" fill="#313332"/>
<path d="M89.1671 52.7349V46.8534H90.0026V52.7349H89.1671Z" fill="#313332"/>
<path d="M91.8327 49.1779C92.0863 49.04 92.329 48.938 92.5606 48.8718C92.7977 48.8001 93.0597 48.7643 93.3465 48.7643C93.5671 48.7643 93.7683 48.7891 93.9503 48.8387C94.1378 48.8883 94.2978 48.9683 94.4301 49.0786C94.5625 49.1889 94.6645 49.3378 94.7362 49.5253C94.8134 49.7073 94.852 49.9306 94.852 50.1953V52.7349H94.1654L94.0744 52.313H94.0496C93.8952 52.4895 93.716 52.6191 93.5119 52.7018C93.3079 52.779 93.0818 52.8176 92.8336 52.8176C92.442 52.8176 92.1249 52.7128 91.8823 52.5033C91.6452 52.2937 91.5266 52.0152 91.5266 51.6678C91.5266 51.4527 91.5707 51.268 91.659 51.1135C91.7472 50.9536 91.8713 50.8213 92.0312 50.7165C92.1911 50.6117 92.3814 50.5345 92.602 50.4849C92.8226 50.4297 93.0652 50.4021 93.3299 50.4021H93.9917V50.1043C93.9917 49.8562 93.9255 49.6852 93.7932 49.5915C93.6608 49.4922 93.4788 49.4426 93.2472 49.4426C93.1038 49.4426 92.9411 49.4674 92.7591 49.517C92.5827 49.5611 92.3786 49.6466 92.147 49.7735L91.8327 49.1779ZM94 50.9646L93.4788 50.9729C93.0873 50.9839 92.8115 51.0529 92.6516 51.1797C92.4917 51.3066 92.4117 51.4555 92.4117 51.6264C92.4117 51.7367 92.4283 51.8277 92.4613 51.8994C92.4999 51.9711 92.5496 52.029 92.6102 52.0731C92.6709 52.1172 92.7398 52.1503 92.817 52.1724C92.8998 52.1889 92.9825 52.1972 93.0652 52.1972C93.2362 52.1972 93.4044 52.1558 93.5698 52.0731C93.7408 51.9849 93.8842 51.8608 94 51.7009V50.9646Z" fill="#313332"/>
<path d="M96.5322 52.7349V48.8304H97.1774L97.3015 49.5832C97.3953 49.3516 97.5469 49.1586 97.7565 49.0041C97.966 48.8442 98.2197 48.7643 98.5175 48.7643C98.6499 48.7643 98.7629 48.7753 98.8567 48.7973C98.9559 48.8194 99.0442 48.8497 99.1214 48.8883L98.9642 49.5997C98.898 49.5667 98.8208 49.5391 98.7326 49.517C98.6499 49.495 98.5534 49.4839 98.4431 49.4839C98.1398 49.4839 97.8861 49.5887 97.682 49.7983C97.478 50.0023 97.376 50.3139 97.376 50.733V52.7349H96.5322Z" fill="#313332"/>
<path d="M103.394 51.1714C103.394 51.5023 103.502 51.7505 103.717 51.9159C103.932 52.0814 104.221 52.1641 104.585 52.1641C104.833 52.1641 105.062 52.1172 105.272 52.0235C105.487 51.9242 105.655 51.8001 105.776 51.6512L104.221 50.0712C103.995 50.1815 103.799 50.3249 103.634 50.5014C103.474 50.6779 103.394 50.9012 103.394 51.1714ZM102.567 51.1963C102.567 50.8102 102.68 50.4876 102.906 50.2284C103.138 49.9692 103.444 49.7569 103.824 49.5915C103.686 49.4481 103.565 49.2744 103.46 49.0703C103.355 48.8608 103.303 48.6402 103.303 48.4086C103.303 48.2211 103.339 48.0529 103.411 47.904C103.482 47.7495 103.582 47.6199 103.708 47.5152C103.841 47.4104 103.992 47.3304 104.163 47.2753C104.34 47.2201 104.53 47.1926 104.734 47.1926C104.933 47.1926 105.117 47.2229 105.288 47.2835C105.459 47.3387 105.605 47.4214 105.727 47.5317C105.848 47.6365 105.942 47.7633 106.008 47.9122C106.08 48.0556 106.116 48.2128 106.116 48.3837C106.116 48.676 106.038 48.9214 105.884 49.12C105.73 49.313 105.537 49.4646 105.305 49.5749L104.908 49.12C105.035 49.0538 105.137 48.96 105.214 48.8387C105.297 48.7174 105.338 48.5768 105.338 48.4168C105.338 48.2404 105.28 48.0942 105.164 47.9784C105.048 47.8626 104.9 47.8047 104.718 47.8047C104.519 47.8047 104.365 47.8598 104.254 47.9701C104.15 48.0749 104.097 48.2183 104.097 48.4003C104.097 48.6264 104.161 48.8359 104.287 49.029C104.414 49.2165 104.599 49.4343 104.842 49.6825L106.207 51.0722C106.289 50.9343 106.369 50.7716 106.446 50.5841C106.529 50.3966 106.601 50.2201 106.662 50.0547L107.332 50.3194C107.243 50.5676 107.144 50.802 107.034 51.0225C106.923 51.2376 106.816 51.4224 106.711 51.5768L107.853 52.7349H106.827L106.231 52.1227C106.077 52.2992 105.854 52.4591 105.561 52.6025C105.269 52.7404 104.911 52.8093 104.486 52.8093C104.194 52.8093 103.929 52.7707 103.692 52.6935C103.46 52.6163 103.259 52.5088 103.088 52.3709C102.923 52.2275 102.793 52.0566 102.699 51.858C102.611 51.6595 102.567 51.4389 102.567 51.1963Z" fill="#313332"/>
<path d="M111.53 50.1374C111.53 49.9224 111.569 49.7293 111.646 49.5584C111.728 49.3874 111.842 49.244 111.985 49.1282C112.128 49.0069 112.299 48.9159 112.498 48.8552C112.696 48.7946 112.911 48.7643 113.143 48.7643C113.314 48.7643 113.488 48.7863 113.664 48.8304H115.343V49.4178H115.054L114.442 49.335C114.535 49.4398 114.61 49.5611 114.665 49.699C114.72 49.8369 114.748 49.9803 114.748 50.1292C114.748 50.3442 114.709 50.5372 114.632 50.7082C114.555 50.8736 114.444 51.017 114.301 51.1384C114.163 51.2542 113.995 51.3424 113.797 51.4031C113.598 51.4637 113.38 51.4941 113.143 51.4941C113.066 51.4941 112.991 51.4913 112.92 51.4858C112.853 51.4803 112.787 51.472 112.721 51.461C112.616 51.5051 112.542 51.5575 112.498 51.6181C112.454 51.6788 112.432 51.745 112.432 51.8167C112.432 51.927 112.47 52.0042 112.547 52.0483C112.625 52.0924 112.735 52.1145 112.878 52.1145H113.863C114.293 52.1145 114.626 52.2137 114.864 52.4123C115.106 52.6053 115.228 52.8838 115.228 53.2477C115.228 53.4628 115.178 53.6558 115.079 53.8268C114.985 54.0033 114.847 54.1522 114.665 54.2735C114.489 54.4003 114.274 54.4968 114.02 54.563C113.766 54.6292 113.482 54.6623 113.168 54.6623C112.589 54.6623 112.131 54.5603 111.795 54.3562C111.458 54.1522 111.29 53.8516 111.29 53.4545C111.29 53.2615 111.353 53.0961 111.48 52.9582C111.607 52.8204 111.775 52.7128 111.985 52.6356C111.886 52.5694 111.806 52.4922 111.745 52.404C111.684 52.3102 111.654 52.1889 111.654 52.04C111.654 51.8635 111.706 51.7146 111.811 51.5933C111.916 51.4665 112.054 51.3672 112.225 51.2955C112.026 51.2018 111.861 51.0611 111.728 50.8736C111.596 50.6806 111.53 50.4352 111.53 50.1374ZM112.473 52.7762C112.219 52.8976 112.092 53.0795 112.092 53.3222C112.092 53.5428 112.181 53.711 112.357 53.8268C112.539 53.9426 112.82 54.0005 113.201 54.0005C113.416 54.0005 113.598 53.9785 113.747 53.9343C113.896 53.8957 114.017 53.8433 114.111 53.7772C114.21 53.711 114.282 53.6365 114.326 53.5538C114.37 53.4711 114.392 53.3856 114.392 53.2974C114.392 53.0878 114.32 52.9472 114.177 52.8755C114.039 52.8093 113.854 52.7762 113.623 52.7762H112.473ZM113.896 50.1457C113.896 49.881 113.827 49.6852 113.689 49.5584C113.551 49.426 113.369 49.3598 113.143 49.3598C112.911 49.3598 112.727 49.4233 112.589 49.5501C112.456 49.6769 112.39 49.8672 112.39 50.1209C112.39 50.3856 112.459 50.5814 112.597 50.7082C112.735 50.835 112.917 50.8985 113.143 50.8985C113.375 50.8985 113.557 50.835 113.689 50.7082C113.827 50.5814 113.896 50.3939 113.896 50.1457Z" fill="#313332"/>
<path d="M116.718 49.1779C116.972 49.04 117.214 48.938 117.446 48.8718C117.683 48.8001 117.945 48.7643 118.232 48.7643C118.452 48.7643 118.654 48.7891 118.836 48.8387C119.023 48.8883 119.183 48.9683 119.315 49.0786C119.448 49.1889 119.55 49.3378 119.621 49.5253C119.699 49.7073 119.737 49.9306 119.737 50.1953V52.7349H119.051L118.96 52.313H118.935C118.78 52.4895 118.601 52.6191 118.397 52.7018C118.193 52.779 117.967 52.8176 117.719 52.8176C117.327 52.8176 117.01 52.7128 116.767 52.5033C116.53 52.2937 116.412 52.0152 116.412 51.6678C116.412 51.4527 116.456 51.268 116.544 51.1135C116.632 50.9536 116.756 50.8213 116.916 50.7165C117.076 50.6117 117.267 50.5345 117.487 50.4849C117.708 50.4297 117.95 50.4021 118.215 50.4021H118.877V50.1043C118.877 49.8562 118.811 49.6852 118.678 49.5915C118.546 49.4922 118.364 49.4426 118.132 49.4426C117.989 49.4426 117.826 49.4674 117.644 49.517C117.468 49.5611 117.264 49.6466 117.032 49.7735L116.718 49.1779ZM118.885 50.9646L118.364 50.9729C117.972 50.9839 117.697 51.0529 117.537 51.1797C117.377 51.3066 117.297 51.4555 117.297 51.6264C117.297 51.7367 117.313 51.8277 117.347 51.8994C117.385 51.9711 117.435 52.029 117.495 52.0731C117.556 52.1172 117.625 52.1503 117.702 52.1724C117.785 52.1889 117.868 52.1972 117.95 52.1972C118.121 52.1972 118.29 52.1558 118.455 52.0731C118.626 51.9849 118.769 51.8608 118.885 51.7009V50.9646Z" fill="#313332"/>
<path d="M123.998 46.8534H124.85V52.7349H124.18L124.081 52.3047H124.048C123.905 52.4702 123.745 52.597 123.568 52.6852C123.392 52.7735 123.163 52.8176 122.882 52.8176C122.661 52.8176 122.449 52.7762 122.245 52.6935C122.046 52.6053 121.867 52.4757 121.707 52.3047C121.553 52.1338 121.428 51.9214 121.335 51.6678C121.241 51.4141 121.194 51.1218 121.194 50.7909C121.194 50.4821 121.233 50.2036 121.31 49.9554C121.393 49.7073 121.508 49.495 121.657 49.3185C121.812 49.142 121.999 49.0069 122.22 48.9132C122.44 48.8139 122.691 48.7643 122.973 48.7643C123.166 48.7643 123.353 48.7946 123.535 48.8552C123.717 48.9159 123.871 49.0014 123.998 49.1117V46.8534ZM123.998 49.7983C123.767 49.5336 123.488 49.4012 123.163 49.4012C123.019 49.4012 122.882 49.426 122.749 49.4757C122.617 49.5253 122.498 49.6053 122.394 49.7155C122.289 49.8258 122.206 49.9665 122.145 50.1374C122.085 50.3084 122.054 50.5179 122.054 50.7661C122.054 51.0143 122.082 51.2266 122.137 51.4031C122.198 51.5795 122.275 51.7257 122.369 51.8415C122.462 51.9573 122.57 52.0428 122.691 52.0979C122.818 52.1476 122.948 52.1724 123.08 52.1724C123.279 52.1724 123.452 52.1283 123.601 52.04C123.756 51.9518 123.888 51.8277 123.998 51.6678V49.7983Z" fill="#313332"/>
<path d="M126.694 48.8304H127.546V52.1558C127.546 52.4702 127.524 52.7597 127.48 53.0244C127.442 53.2891 127.37 53.529 127.265 53.7441C127.16 53.9591 127.017 54.1522 126.835 54.3231C126.653 54.4941 126.419 54.6402 126.132 54.7615L125.751 54.1494C125.922 54.0612 126.066 53.9702 126.182 53.8764C126.303 53.7882 126.399 53.6751 126.471 53.5373C126.548 53.3994 126.603 53.2257 126.636 53.0161C126.675 52.8121 126.694 52.5529 126.694 52.2385V48.8304ZM127.125 47.8626C126.976 47.8626 126.857 47.8185 126.769 47.7302C126.681 47.6365 126.636 47.5207 126.636 47.3828C126.636 47.2449 126.681 47.1319 126.769 47.0437C126.863 46.9499 126.981 46.903 127.125 46.903C127.268 46.903 127.384 46.9499 127.472 47.0437C127.566 47.1319 127.613 47.2449 127.613 47.3828C127.613 47.5262 127.566 47.642 127.472 47.7302C127.384 47.8185 127.268 47.8626 127.125 47.8626Z" fill="#313332"/>
<path d="M132.765 50.9316H130.027V50.9646C130.027 51.3617 130.142 51.6623 130.374 51.8663C130.606 52.0703 130.912 52.1724 131.292 52.1724C131.502 52.1724 131.689 52.1558 131.855 52.1227C132.026 52.0841 132.197 52.0262 132.368 51.949L132.533 52.5694C132.373 52.6411 132.183 52.699 131.962 52.7431C131.742 52.7928 131.499 52.8176 131.234 52.8176C130.953 52.8176 130.686 52.779 130.432 52.7018C130.178 52.6246 129.955 52.5033 129.762 52.3378C129.574 52.1724 129.426 51.9628 129.315 51.7091C129.205 51.4555 129.15 51.1521 129.15 50.7992C129.15 50.4959 129.194 50.2201 129.282 49.972C129.376 49.7183 129.506 49.5032 129.671 49.3268C129.842 49.1448 130.046 49.0069 130.283 48.9132C130.526 48.8139 130.793 48.7643 131.086 48.7643C131.339 48.7643 131.568 48.8056 131.772 48.8883C131.982 48.9711 132.158 49.0896 132.302 49.244C132.45 49.3929 132.563 49.5777 132.641 49.7983C132.723 50.0133 132.765 50.2532 132.765 50.5179V50.9316ZM131.888 50.336C131.888 50.2036 131.871 50.0795 131.838 49.9637C131.805 49.8479 131.756 49.7486 131.689 49.6659C131.623 49.5777 131.535 49.5087 131.425 49.4591C131.32 49.404 131.193 49.3764 131.044 49.3764C130.768 49.3764 130.542 49.4646 130.366 49.6411C130.195 49.8176 130.09 50.0547 130.051 50.3525L131.888 50.336Z" fill="#313332"/>
<path d="M136.403 49.4591H135.294V51.5685C135.294 51.7615 135.338 51.8911 135.427 51.9573C135.52 52.0235 135.644 52.0566 135.799 52.0566C135.909 52.0566 136.025 52.0455 136.146 52.0235C136.273 51.9959 136.383 51.9656 136.477 51.9325L136.61 52.5612C136.499 52.6053 136.356 52.6466 136.179 52.6852C136.008 52.7183 135.826 52.7349 135.633 52.7349C135.214 52.7349 134.911 52.6494 134.723 52.4784C134.542 52.302 134.451 52.0428 134.451 51.7009V49.4591H133.855V48.8304H134.451V47.5979H135.294V48.8304H136.403V49.4591Z" fill="#313332"/>
<path d="M138.009 52.7349V46.8534H138.844V52.7349H138.009Z" fill="#313332"/>
<path d="M142.033 48.5006C142.431 48.5006 142.78 48.5807 143.08 48.741C143.38 48.9013 143.613 49.1391 143.778 49.4545C143.949 49.7698 144.034 50.1602 144.034 50.6255C144.034 51.0804 143.957 51.4708 143.801 51.7965C143.652 52.1222 143.437 52.373 143.158 52.5488C142.884 52.7245 142.563 52.8124 142.196 52.8124C141.845 52.8124 141.54 52.7349 141.281 52.5798C141.023 52.4247 140.823 52.2075 140.684 51.9283C140.549 51.644 140.482 51.3131 140.482 50.9357V50.5247H143.328C143.318 50.0542 143.197 49.6975 142.964 49.4545C142.736 49.2063 142.416 49.0822 142.002 49.0822C141.739 49.0822 141.503 49.1081 141.297 49.1598C141.095 49.2063 140.886 49.2761 140.668 49.3692V48.772C140.88 48.6789 141.09 48.6117 141.297 48.5704C141.503 48.5238 141.749 48.5006 142.033 48.5006ZM143.313 51.0675H141.196C141.201 51.4191 141.284 51.706 141.444 51.9283C141.604 52.1455 141.857 52.2541 142.204 52.2541C142.53 52.2541 142.786 52.1507 142.972 51.9439C143.163 51.7319 143.277 51.4398 143.313 51.0675Z" fill="#313332"/>
<path d="M145.614 52.7349V48.8304H146.259L146.383 49.5832C146.477 49.3516 146.629 49.1586 146.838 49.0041C147.048 48.8442 147.301 48.7643 147.599 48.7643C147.732 48.7643 147.845 48.7753 147.938 48.7973C148.038 48.8194 148.126 48.8497 148.203 48.8883L148.046 49.5997C147.98 49.5667 147.903 49.5391 147.814 49.517C147.732 49.495 147.635 49.4839 147.525 49.4839C147.222 49.4839 146.968 49.5887 146.764 49.7983C146.56 50.0023 146.458 50.3139 146.458 50.733V52.7349H145.614Z" fill="#313332"/>
</svg>
