<svg width="200" height="102" viewBox="0 0 200 102" fill="none" xmlns="http://www.w3.org/2000/svg">
<g filter="url(#filter0_d)">
<path d="M4 0H196V94H4V0Z" fill="url(#paint0_linear)"/>
</g>
<path fill-rule="evenodd" clip-rule="evenodd" d="M73.1779 27H47V50.9964H52.6095V32.4537H57.2842V42.7379H62.8937V32.4537H67.7241V50.9964H73.1779V27ZM73.1779 66.5784H47V54.1128H52.6095V61.1247H57.2842V43.9844H62.8937V61.1247H67.7241V54.1128H73.1779V66.5784Z" fill="#313332"/>
<path d="M79.7132 39.3441H83.2715L85.1226 45.2472C85.2049 45.5078 85.2872 45.7889 85.3695 46.0905C85.4654 46.3922 85.5546 46.6939 85.6368 46.9955C85.7191 47.2972 85.7945 47.592 85.8631 47.88C85.9317 48.1679 85.9865 48.4353 86.0276 48.6821H86.1099C86.1511 48.4628 86.2059 48.2091 86.2745 47.9211C86.343 47.6195 86.4184 47.3109 86.5007 46.9955C86.583 46.6802 86.6653 46.3716 86.7475 46.07C86.8298 45.7683 86.9052 45.4941 86.9738 45.2472L88.7632 39.3441H92.3216L93.2883 52.3022H90.635C90.5527 50.8761 90.4704 49.45 90.3881 48.024C90.3059 46.5979 90.251 45.1581 90.2236 43.7046L90.203 42.018H90.1413C89.9631 42.7722 89.7642 43.5606 89.5448 44.3834C89.3391 45.2061 89.1403 45.926 88.9483 46.543L87.1178 52.3022H84.9375L83.0658 46.5225C82.8327 45.782 82.6133 45.0004 82.4076 44.1777C82.2019 43.355 82.0374 42.6351 81.914 42.018H81.8523C81.8523 42.5117 81.8454 43.0327 81.8317 43.5812C81.818 44.116 81.7974 44.6508 81.77 45.1855C81.7563 45.7203 81.7357 46.2482 81.7083 46.7693C81.6946 47.2766 81.674 47.7429 81.6466 48.1679L81.3998 52.3022H78.7876L79.7132 39.3441Z" fill="#313332"/>
<path d="M105.588 47.3246C105.588 48.1337 105.458 48.8604 105.197 49.5049C104.937 50.1494 104.574 50.6978 104.107 51.1503C103.655 51.5891 103.12 51.9319 102.503 52.1788C101.886 52.4119 101.221 52.5284 100.508 52.5284C99.7949 52.5284 99.1298 52.4187 98.5128 52.1993C97.9094 51.9799 97.3815 51.6577 96.929 51.2326C96.4902 50.8075 96.1406 50.2865 95.88 49.6694C95.6332 49.0387 95.5098 48.3256 95.5098 47.5303C95.5098 46.6939 95.6401 45.9534 95.9006 45.3089C96.1611 44.6508 96.5176 44.1023 96.9702 43.6635C97.4364 43.211 97.978 42.8682 98.595 42.6351C99.2121 42.402 99.8771 42.2854 100.59 42.2854C101.303 42.2854 101.961 42.3951 102.565 42.6145C103.182 42.8339 103.71 43.1561 104.148 43.5812C104.601 43.9926 104.951 44.5136 105.197 45.1444C105.458 45.7752 105.588 46.5019 105.588 47.3246ZM102.77 47.4275C102.77 46.8653 102.709 46.3854 102.585 45.9877C102.462 45.59 102.297 45.2678 102.092 45.021C101.886 44.7742 101.646 44.5959 101.372 44.4862C101.098 44.3628 100.816 44.3011 100.528 44.3011C100.241 44.3011 99.9663 44.3559 99.7057 44.4656C99.4452 44.5616 99.2121 44.733 99.0064 44.9799C98.8007 45.213 98.6362 45.5283 98.5128 45.926C98.3894 46.3237 98.3277 46.8241 98.3277 47.4275C98.3277 47.9623 98.3894 48.4285 98.5128 48.8261C98.6362 49.2101 98.8007 49.5255 99.0064 49.7723C99.2258 50.0191 99.4658 50.2042 99.7263 50.3276C100.001 50.451 100.282 50.5127 100.57 50.5127C100.858 50.5127 101.132 50.4647 101.392 50.3688C101.653 50.2591 101.886 50.0808 102.092 49.834C102.297 49.5872 102.462 49.2718 102.585 48.8878C102.709 48.4902 102.77 48.0034 102.77 47.4275Z" fill="#313332"/>
<path d="M117.468 47.4275C117.468 48.2091 117.352 48.9153 117.119 49.546C116.886 50.1768 116.563 50.7184 116.152 51.1709C115.741 51.6097 115.254 51.9457 114.692 52.1788C114.129 52.4119 113.519 52.5284 112.861 52.5284C112.217 52.5284 111.668 52.4324 111.216 52.2405C110.763 52.0348 110.365 51.7537 110.023 51.3972H109.94L109.755 52.3022H107.781V37.6164H110.496V43.2933C110.839 42.9779 111.236 42.731 111.689 42.5528C112.155 42.3745 112.649 42.2854 113.17 42.2854C114.513 42.2854 115.562 42.7379 116.317 43.6429C117.084 44.5479 117.468 45.8094 117.468 47.4275ZM114.651 47.4892C114.651 46.4745 114.452 45.7066 114.054 45.1855C113.656 44.6508 113.094 44.3834 112.367 44.3834C111.984 44.3834 111.627 44.4794 111.298 44.6713C110.969 44.8496 110.708 45.0553 110.516 45.2884V49.7928C110.695 49.9985 110.921 50.1699 111.195 50.307C111.483 50.4442 111.785 50.5127 112.1 50.5127C112.429 50.5127 112.745 50.451 113.046 50.3276C113.362 50.2042 113.636 50.0191 113.869 49.7723C114.116 49.5255 114.308 49.2169 114.445 48.8467C114.582 48.4628 114.651 48.0103 114.651 47.4892Z" fill="#313332"/>
<path d="M119.862 52.3022V42.4911H122.597V52.3022H119.862ZM121.24 40.3931C120.774 40.3931 120.41 40.2629 120.15 40.0023C119.889 39.7281 119.759 39.3921 119.759 38.9945C119.759 38.5968 119.889 38.2677 120.15 38.0072C120.41 37.7329 120.774 37.5958 121.24 37.5958C121.692 37.5958 122.049 37.7329 122.309 38.0072C122.584 38.2677 122.721 38.5968 122.721 38.9945C122.721 39.3921 122.59 39.7281 122.33 40.0023C122.069 40.2629 121.706 40.3931 121.24 40.3931Z" fill="#313332"/>
<path d="M131.388 44.4656H128.775V48.9907C128.775 49.4569 128.878 49.7791 129.084 49.9574C129.303 50.1219 129.591 50.2042 129.948 50.2042C130.222 50.2042 130.503 50.1768 130.791 50.1219C131.079 50.0671 131.312 49.9917 131.49 49.8957L131.902 51.8085C131.669 51.9182 131.319 52.0279 130.853 52.1376C130.387 52.2473 129.893 52.3022 129.372 52.3022C128.179 52.3022 127.329 52.0691 126.821 51.6029C126.314 51.1229 126.06 50.4099 126.06 49.4637V44.4656H124.538V42.4911H126.06V39.4675H128.775V42.4911H131.388V44.4656Z" fill="#313332"/>
<path d="M142.327 48.1062H135.806V48.1885C135.806 48.9701 136.081 49.5529 136.629 49.9368C137.178 50.3208 137.884 50.5127 138.748 50.5127C139.296 50.5127 139.776 50.4579 140.187 50.3482C140.612 50.2385 140.996 50.1082 141.339 49.9574L141.833 51.8702C141.463 52.0485 140.996 52.1993 140.434 52.3227C139.872 52.4599 139.207 52.5284 138.439 52.5284C137.699 52.5284 136.999 52.4324 136.341 52.2405C135.697 52.0348 135.128 51.7263 134.634 51.3149C134.154 50.9035 133.77 50.3825 133.482 49.7517C133.194 49.1209 133.05 48.3668 133.05 47.4892C133.05 46.7076 133.167 46.0014 133.4 45.3707C133.633 44.7262 133.962 44.1777 134.387 43.7252C134.826 43.2727 135.347 42.923 135.95 42.6762C136.554 42.4157 137.226 42.2854 137.966 42.2854C139.296 42.2854 140.352 42.6899 141.134 43.4989C141.929 44.308 142.327 45.4392 142.327 46.8927V48.1062ZM139.529 46.2345C139.529 45.974 139.495 45.7203 139.426 45.4735C139.372 45.2267 139.276 45.0141 139.138 44.8359C139.001 44.6439 138.83 44.4931 138.624 44.3834C138.419 44.2737 138.165 44.2188 137.863 44.2188C137.315 44.2188 136.862 44.4039 136.506 44.7742C136.149 45.1444 135.937 45.6449 135.868 46.2757L139.529 46.2345Z" fill="#313332"/>
<path d="M147.213 49.0112V52.3022H144.498V37.6164H147.213V46.3374L150.504 42.4911H153.815L150.03 46.6253L154 52.3022H150.771L148.015 48.2091L147.213 49.0112Z" fill="#313332"/>
<path d="M78.9321 56.6433C79.085 56.5602 79.2312 56.4987 79.3708 56.4588C79.5138 56.4156 79.6717 56.394 79.8445 56.394C79.9775 56.394 80.0988 56.409 80.2085 56.4389C80.3216 56.4688 80.418 56.517 80.4977 56.5835C80.5775 56.65 80.639 56.7397 80.6822 56.8527C80.7288 56.9624 80.752 57.0971 80.752 57.2566V58.7874H80.3382L80.2833 58.5331H80.2684C80.1753 58.6395 80.0673 58.7176 79.9443 58.7675C79.8213 58.814 79.685 58.8373 79.5354 58.8373C79.2994 58.8373 79.1082 58.7741 78.962 58.6478C78.819 58.5215 78.7476 58.3536 78.7476 58.1442C78.7476 58.0145 78.7742 57.9032 78.8273 57.8101C78.8805 57.7137 78.9553 57.6339 79.0517 57.5708C79.1481 57.5076 79.2628 57.4611 79.3958 57.4312C79.5287 57.3979 79.675 57.3813 79.8346 57.3813H80.2335V57.2018C80.2335 57.0522 80.1936 56.9492 80.1138 56.8926C80.034 56.8328 79.9243 56.8029 79.7847 56.8029C79.6983 56.8029 79.6002 56.8178 79.4905 56.8478C79.3841 56.8744 79.2611 56.9259 79.1215 57.0023L78.9321 56.6433ZM80.2385 57.7204L79.9243 57.7253C79.6883 57.732 79.5221 57.7735 79.4257 57.85C79.3293 57.9265 79.2811 58.0162 79.2811 58.1193C79.2811 58.1857 79.2911 58.2406 79.311 58.2838C79.3343 58.327 79.3642 58.3619 79.4008 58.3885C79.4373 58.4151 79.4789 58.4351 79.5254 58.4484C79.5753 58.4583 79.6251 58.4633 79.675 58.4633C79.7781 58.4633 79.8794 58.4384 79.9792 58.3885C80.0822 58.3353 80.1686 58.2605 80.2385 58.1641V57.7204Z" fill="#313332"/>
<path d="M82.2884 57.9497V58.7874H81.7798V55.2422H82.2884V57.4162L83.1809 56.4339H83.8092L82.8618 57.4262L83.8541 58.7874H83.2507L82.5078 57.7303L82.2884 57.9497Z" fill="#313332"/>
<path d="M85.9548 56.9126C85.8484 56.8627 85.7487 56.8278 85.6556 56.8079C85.5659 56.7846 85.4761 56.773 85.3864 56.773C85.2468 56.773 85.1404 56.7996 85.0673 56.8527C84.9974 56.9026 84.9625 56.9708 84.9625 57.0572C84.9625 57.1237 84.9891 57.1818 85.0423 57.2317C85.0955 57.2782 85.2052 57.3248 85.3714 57.3713L85.521 57.4162C85.7371 57.4827 85.9 57.5691 86.0097 57.6755C86.1227 57.7819 86.1792 57.9248 86.1792 58.1043C86.1792 58.3237 86.0961 58.5015 85.9299 58.6378C85.7637 58.7708 85.536 58.8373 85.2468 58.8373C85.0905 58.8373 84.9443 58.8223 84.808 58.7924C84.675 58.7658 84.5553 58.7276 84.449 58.6777L84.5686 58.2888C84.665 58.3353 84.7681 58.3736 84.8778 58.4035C84.9875 58.4334 85.1005 58.4484 85.2168 58.4484C85.3598 58.4484 85.4711 58.4234 85.5509 58.3736C85.6307 58.3237 85.6706 58.2472 85.6706 58.1442C85.6706 58.0478 85.634 57.9796 85.5609 57.9398C85.4911 57.8965 85.3814 57.8517 85.2318 57.8051L85.0772 57.7602C84.8678 57.6904 84.7116 57.6024 84.6085 57.496C84.5088 57.3896 84.4589 57.25 84.4589 57.0771C84.4589 56.9741 84.4805 56.881 84.5237 56.7979C84.567 56.7148 84.6268 56.6433 84.7033 56.5835C84.7797 56.5237 84.8711 56.4771 84.9775 56.4439C85.0872 56.4106 85.2069 56.394 85.3365 56.394C85.4595 56.394 85.5842 56.4056 85.7105 56.4289C85.8401 56.4522 85.9598 56.4888 86.0695 56.5386L85.9548 56.9126Z" fill="#313332"/>
<path d="M89.0868 57.7004H87.4364V57.7204C87.4364 57.9597 87.5062 58.1409 87.6458 58.2639C87.7854 58.3869 87.9699 58.4484 88.1993 58.4484C88.3256 58.4484 88.4386 58.4384 88.5384 58.4184C88.6414 58.3952 88.7445 58.3603 88.8475 58.3137L88.9472 58.6877C88.8508 58.7309 88.7361 58.7658 88.6032 58.7924C88.4702 58.8223 88.3239 58.8373 88.1644 58.8373C87.9948 58.8373 87.8336 58.814 87.6807 58.7675C87.5278 58.7209 87.3932 58.6478 87.2768 58.5481C87.1638 58.4484 87.0741 58.322 87.0076 58.1691C86.9411 58.0162 86.9078 57.8334 86.9078 57.6206C86.9078 57.4378 86.9344 57.2716 86.9876 57.122C87.0441 56.9691 87.1223 56.8395 87.222 56.7331C87.325 56.6234 87.448 56.5403 87.591 56.4838C87.7372 56.4239 87.8984 56.394 88.0746 56.394C88.2275 56.394 88.3655 56.4189 88.4885 56.4688C88.6148 56.5187 88.7212 56.5901 88.8076 56.6832C88.8974 56.773 88.9655 56.8843 89.012 57.0173C89.0619 57.1469 89.0868 57.2915 89.0868 57.4511V57.7004ZM88.5583 57.3414C88.5583 57.2616 88.5483 57.1868 88.5284 57.117C88.5084 57.0472 88.4785 56.9874 88.4386 56.9375C88.3987 56.8843 88.3455 56.8428 88.2791 56.8129C88.2159 56.7796 88.1395 56.763 88.0497 56.763C87.8835 56.763 87.7472 56.8162 87.6408 56.9226C87.5378 57.0289 87.4746 57.1719 87.4513 57.3514L88.5583 57.3414Z" fill="#313332"/>
<path d="M91.3396 56.9126C91.2332 56.8627 91.1335 56.8278 91.0404 56.8079C90.9506 56.7846 90.8609 56.773 90.7711 56.773C90.6315 56.773 90.5252 56.7996 90.452 56.8527C90.3822 56.9026 90.3473 56.9708 90.3473 57.0572C90.3473 57.1237 90.3739 57.1818 90.4271 57.2317C90.4803 57.2782 90.59 57.3248 90.7562 57.3713L90.9058 57.4162C91.1218 57.4827 91.2847 57.5691 91.3944 57.6755C91.5074 57.7819 91.564 57.9248 91.564 58.1043C91.564 58.3237 91.4809 58.5015 91.3146 58.6378C91.1484 58.7708 90.9207 58.8373 90.6315 58.8373C90.4753 58.8373 90.329 58.8223 90.1927 58.7924C90.0598 58.7658 89.9401 58.7276 89.8337 58.6777L89.9534 58.2888C90.0498 58.3353 90.1528 58.3736 90.2625 58.4035C90.3722 58.4334 90.4853 58.4484 90.6016 58.4484C90.7446 58.4484 90.8559 58.4234 90.9357 58.3736C91.0155 58.3237 91.0554 58.2472 91.0554 58.1442C91.0554 58.0478 91.0188 57.9796 90.9457 57.9398C90.8759 57.8965 90.7662 57.8517 90.6166 57.8051L90.462 57.7602C90.2526 57.6904 90.0963 57.6024 89.9933 57.496C89.8936 57.3896 89.8437 57.25 89.8437 57.0771C89.8437 56.9741 89.8653 56.881 89.9085 56.7979C89.9517 56.7148 90.0116 56.6433 90.088 56.5835C90.1645 56.5237 90.2559 56.4771 90.3623 56.4439C90.472 56.4106 90.5916 56.394 90.7213 56.394C90.8443 56.394 90.9689 56.4056 91.0953 56.4289C91.2249 56.4522 91.3446 56.4888 91.4543 56.5386L91.3396 56.9126Z" fill="#313332"/>
<path d="M94.0173 56.4339H94.5309V58.7874H94.1369L94.0721 58.5032H94.0522C93.9691 58.5896 93.8644 58.6677 93.738 58.7376C93.6117 58.804 93.4588 58.8373 93.2793 58.8373C93.03 58.8373 92.8305 58.7675 92.681 58.6279C92.5314 58.4882 92.4566 58.2788 92.4566 57.9996V56.4339H92.9702V57.9447C92.9702 58.1276 93.0117 58.2556 93.0948 58.3287C93.1812 58.4018 93.2843 58.4384 93.404 58.4384C93.5336 58.4384 93.6483 58.4118 93.748 58.3586C93.8477 58.3021 93.9375 58.229 94.0173 58.1392V56.4339Z" fill="#313332"/>
<path d="M95.6074 56.6433C95.7603 56.5602 95.9066 56.4987 96.0462 56.4588C96.1891 56.4156 96.347 56.394 96.5199 56.394C96.6528 56.394 96.7742 56.409 96.8839 56.4389C96.9969 56.4688 97.0933 56.517 97.1731 56.5835C97.2529 56.65 97.3144 56.7397 97.3576 56.8527C97.4041 56.9624 97.4274 57.0971 97.4274 57.2566V58.7874H97.0135L96.9587 58.5331H96.9437C96.8506 58.6395 96.7426 58.7176 96.6196 58.7675C96.4966 58.814 96.3603 58.8373 96.2107 58.8373C95.9747 58.8373 95.7836 58.7741 95.6373 58.6478C95.4944 58.5215 95.4229 58.3536 95.4229 58.1442C95.4229 58.0145 95.4495 57.9032 95.5027 57.8101C95.5559 57.7137 95.6307 57.6339 95.7271 57.5708C95.8235 57.5076 95.9381 57.4611 96.0711 57.4312C96.2041 57.3979 96.3503 57.3813 96.5099 57.3813H96.9088V57.2018C96.9088 57.0522 96.8689 56.9492 96.7891 56.8926C96.7094 56.8328 96.5997 56.8029 96.46 56.8029C96.3736 56.8029 96.2755 56.8178 96.1658 56.8478C96.0595 56.8744 95.9365 56.9259 95.7969 57.0023L95.6074 56.6433ZM96.9138 57.7204L96.5997 57.7253C96.3636 57.732 96.1974 57.7735 96.101 57.85C96.0046 57.9265 95.9564 58.0162 95.9564 58.1193C95.9564 58.1857 95.9664 58.2406 95.9863 58.2838C96.0096 58.327 96.0395 58.3619 96.0761 58.3885C96.1127 58.4151 96.1542 58.4351 96.2008 58.4484C96.2506 58.4583 96.3005 58.4633 96.3503 58.4633C96.4534 58.4633 96.5548 58.4384 96.6545 58.3885C96.7576 58.3353 96.844 58.2605 96.9138 58.1641V57.7204Z" fill="#313332"/>
<path d="M98.4402 58.7874V56.4339H98.8291L98.9039 56.8877C98.9604 56.748 99.0518 56.6317 99.1781 56.5386C99.3045 56.4422 99.4574 56.394 99.6369 56.394C99.7167 56.394 99.7848 56.4007 99.8413 56.414C99.9011 56.4273 99.9543 56.4455 100.001 56.4688L99.9061 56.8976C99.8662 56.8777 99.8197 56.8611 99.7665 56.8478C99.7167 56.8345 99.6585 56.8278 99.592 56.8278C99.4092 56.8278 99.2563 56.891 99.1333 57.0173C99.0103 57.1403 98.9488 57.3281 98.9488 57.5807V58.7874H98.4402Z" fill="#313332"/>
<path d="M100.748 58.7874V55.2422H101.252V58.7874H100.748Z" fill="#313332"/>
<path d="M102.355 56.6433C102.508 56.5602 102.654 56.4987 102.794 56.4588C102.937 56.4156 103.095 56.394 103.268 56.394C103.401 56.394 103.522 56.409 103.632 56.4389C103.745 56.4688 103.841 56.517 103.921 56.5835C104.001 56.65 104.062 56.7397 104.105 56.8527C104.152 56.9624 104.175 57.0971 104.175 57.2566V58.7874H103.761L103.706 58.5331H103.692C103.598 58.6395 103.49 58.7176 103.367 58.7675C103.244 58.814 103.108 58.8373 102.959 58.8373C102.723 58.8373 102.531 58.7741 102.385 58.6478C102.242 58.5215 102.171 58.3536 102.171 58.1442C102.171 58.0145 102.197 57.9032 102.25 57.8101C102.304 57.7137 102.378 57.6339 102.475 57.5708C102.571 57.5076 102.686 57.4611 102.819 57.4312C102.952 57.3979 103.098 57.3813 103.258 57.3813H103.657V57.2018C103.657 57.0522 103.617 56.9492 103.537 56.8926C103.457 56.8328 103.347 56.8029 103.208 56.8029C103.121 56.8029 103.023 56.8178 102.914 56.8478C102.807 56.8744 102.684 56.9259 102.545 57.0023L102.355 56.6433ZM103.662 57.7204L103.347 57.7253C103.111 57.732 102.945 57.7735 102.849 57.85C102.752 57.9265 102.704 58.0162 102.704 58.1193C102.704 58.1857 102.714 58.2406 102.734 58.2838C102.757 58.327 102.787 58.3619 102.824 58.3885C102.86 58.4151 102.902 58.4351 102.949 58.4484C102.998 58.4583 103.048 58.4633 103.098 58.4633C103.201 58.4633 103.303 58.4384 103.402 58.3885C103.505 58.3353 103.592 58.2605 103.662 58.1641V57.7204Z" fill="#313332"/>
<path d="M105.188 58.7874V56.4339H105.577L105.652 56.8877C105.708 56.748 105.8 56.6317 105.926 56.5386C106.052 56.4422 106.205 56.394 106.385 56.394C106.464 56.394 106.533 56.4007 106.589 56.414C106.649 56.4273 106.702 56.4455 106.749 56.4688L106.654 56.8976C106.614 56.8777 106.568 56.8611 106.514 56.8478C106.464 56.8345 106.406 56.8278 106.34 56.8278C106.157 56.8278 106.004 56.891 105.881 57.0173C105.758 57.1403 105.697 57.3281 105.697 57.5807V58.7874H105.188Z" fill="#313332"/>
<path d="M109.324 57.845C109.324 58.0445 109.389 58.1941 109.519 58.2938C109.648 58.3935 109.823 58.4434 110.042 58.4434C110.192 58.4434 110.33 58.4151 110.456 58.3586C110.586 58.2988 110.687 58.224 110.76 58.1342L109.823 57.1818C109.686 57.2483 109.568 57.3348 109.469 57.4411C109.372 57.5475 109.324 57.6821 109.324 57.845ZM108.826 57.86C108.826 57.6273 108.894 57.4328 109.03 57.2766C109.17 57.1203 109.354 56.9924 109.583 56.8926C109.5 56.8062 109.427 56.7015 109.364 56.5785C109.301 56.4522 109.269 56.3192 109.269 56.1796C109.269 56.0666 109.291 55.9652 109.334 55.8754C109.377 55.7824 109.437 55.7042 109.514 55.6411C109.593 55.5779 109.685 55.5297 109.788 55.4965C109.894 55.4632 110.009 55.4466 110.132 55.4466C110.252 55.4466 110.363 55.4649 110.466 55.5015C110.569 55.5347 110.657 55.5846 110.73 55.6511C110.803 55.7142 110.86 55.7907 110.9 55.8804C110.943 55.9669 110.965 56.0616 110.965 56.1646C110.965 56.3408 110.918 56.4888 110.825 56.6084C110.732 56.7248 110.616 56.8162 110.476 56.8827L110.237 56.6084C110.313 56.5685 110.375 56.512 110.421 56.4389C110.471 56.3658 110.496 56.281 110.496 56.1846C110.496 56.0782 110.461 55.9901 110.391 55.9203C110.321 55.8505 110.232 55.8156 110.122 55.8156C110.002 55.8156 109.909 55.8488 109.843 55.9153C109.78 55.9785 109.748 56.0649 109.748 56.1746C109.748 56.3109 109.786 56.4372 109.863 56.5536C109.939 56.6666 110.05 56.7979 110.197 56.9475L111.019 57.7852C111.069 57.7021 111.118 57.604 111.164 57.491C111.214 57.378 111.257 57.2716 111.294 57.1719L111.698 57.3314C111.644 57.481 111.585 57.6223 111.518 57.7553C111.452 57.8849 111.387 57.9963 111.324 58.0893L112.012 58.7874H111.393L111.034 58.4184C110.941 58.5248 110.807 58.6212 110.631 58.7076C110.454 58.7907 110.238 58.8323 109.982 58.8323C109.806 58.8323 109.647 58.809 109.504 58.7625C109.364 58.7159 109.243 58.6511 109.14 58.568C109.04 58.4816 108.962 58.3785 108.905 58.2589C108.852 58.1392 108.826 58.0062 108.826 57.86Z" fill="#313332"/>
<path d="M114.228 57.2217C114.228 57.0921 114.252 56.9757 114.298 56.8727C114.348 56.7696 114.416 56.6832 114.503 56.6134C114.589 56.5403 114.692 56.4854 114.812 56.4489C114.931 56.4123 115.061 56.394 115.201 56.394C115.304 56.394 115.408 56.4073 115.515 56.4339H116.527V56.7879H116.352L115.983 56.7381C116.04 56.8012 116.085 56.8744 116.118 56.9575C116.151 57.0406 116.168 57.127 116.168 57.2167C116.168 57.3464 116.145 57.4627 116.098 57.5658C116.052 57.6655 115.985 57.7519 115.899 57.8251C115.816 57.8949 115.714 57.9481 115.595 57.9846C115.475 58.0212 115.344 58.0395 115.201 58.0395C115.154 58.0395 115.109 58.0378 115.066 58.0345C115.026 58.0312 114.986 58.0262 114.946 58.0195C114.883 58.0461 114.838 58.0777 114.812 58.1143C114.785 58.1508 114.772 58.1907 114.772 58.2339C114.772 58.3004 114.795 58.347 114.842 58.3736C114.888 58.4002 114.955 58.4134 115.041 58.4134H115.634C115.894 58.4134 116.095 58.4733 116.238 58.593C116.384 58.7093 116.457 58.8772 116.457 59.0966C116.457 59.2262 116.427 59.3426 116.367 59.4456C116.311 59.552 116.228 59.6417 116.118 59.7149C116.012 59.7913 115.882 59.8495 115.729 59.8894C115.576 59.9293 115.405 59.9492 115.216 59.9492C114.867 59.9492 114.591 59.8877 114.388 59.7647C114.185 59.6417 114.084 59.4606 114.084 59.2212C114.084 59.1049 114.122 59.0052 114.198 58.922C114.275 58.8389 114.376 58.7741 114.503 58.7276C114.443 58.6877 114.395 58.6412 114.358 58.588C114.321 58.5315 114.303 58.4583 114.303 58.3686C114.303 58.2622 114.335 58.1724 114.398 58.0993C114.461 58.0229 114.544 57.963 114.647 57.9198C114.527 57.8633 114.428 57.7785 114.348 57.6655C114.268 57.5492 114.228 57.4012 114.228 57.2217ZM114.797 58.8123C114.644 58.8855 114.567 58.9952 114.567 59.1414C114.567 59.2744 114.621 59.3758 114.727 59.4456C114.837 59.5154 115.006 59.5503 115.236 59.5503C115.365 59.5503 115.475 59.537 115.565 59.5104C115.654 59.4872 115.728 59.4556 115.784 59.4157C115.844 59.3758 115.887 59.3309 115.914 59.2811C115.94 59.2312 115.954 59.1797 115.954 59.1265C115.954 59.0002 115.91 58.9154 115.824 58.8722C115.741 58.8323 115.629 58.8123 115.49 58.8123H114.797ZM115.654 57.2267C115.654 57.0672 115.613 56.9492 115.53 56.8727C115.447 56.7929 115.337 56.753 115.201 56.753C115.061 56.753 114.95 56.7913 114.867 56.8677C114.787 56.9442 114.747 57.0588 114.747 57.2118C114.747 57.3713 114.788 57.4893 114.872 57.5658C114.955 57.6422 115.064 57.6805 115.201 57.6805C115.34 57.6805 115.45 57.6422 115.53 57.5658C115.613 57.4893 115.654 57.3763 115.654 57.2267Z" fill="#313332"/>
<path d="M117.355 56.6433C117.508 56.5602 117.655 56.4987 117.794 56.4588C117.937 56.4156 118.095 56.394 118.268 56.394C118.401 56.394 118.522 56.409 118.632 56.4389C118.745 56.4688 118.841 56.517 118.921 56.5835C119.001 56.65 119.062 56.7397 119.106 56.8527C119.152 56.9624 119.175 57.0971 119.175 57.2566V58.7874H118.762L118.707 58.5331H118.692C118.599 58.6395 118.491 58.7176 118.368 58.7675C118.245 58.814 118.108 58.8373 117.959 58.8373C117.723 58.8373 117.532 58.7741 117.385 58.6478C117.242 58.5215 117.171 58.3536 117.171 58.1442C117.171 58.0145 117.198 57.9032 117.251 57.8101C117.304 57.7137 117.379 57.6339 117.475 57.5708C117.572 57.5076 117.686 57.4611 117.819 57.4312C117.952 57.3979 118.098 57.3813 118.258 57.3813H118.657V57.2018C118.657 57.0522 118.617 56.9492 118.537 56.8926C118.457 56.8328 118.348 56.8029 118.208 56.8029C118.122 56.8029 118.024 56.8178 117.914 56.8478C117.808 56.8744 117.685 56.9259 117.545 57.0023L117.355 56.6433ZM118.662 57.7204L118.348 57.7253C118.112 57.732 117.946 57.7735 117.849 57.85C117.753 57.9265 117.705 58.0162 117.705 58.1193C117.705 58.1857 117.714 58.2406 117.734 58.2838C117.758 58.327 117.788 58.3619 117.824 58.3885C117.861 58.4151 117.902 58.4351 117.949 58.4484C117.999 58.4583 118.049 58.4633 118.098 58.4633C118.201 58.4633 118.303 58.4384 118.403 58.3885C118.506 58.3353 118.592 58.2605 118.662 58.1641V57.7204Z" fill="#313332"/>
<path d="M121.744 55.2422H122.258V58.7874H121.854L121.794 58.5281H121.774C121.687 58.6279 121.591 58.7043 121.485 58.7575C121.378 58.8107 121.24 58.8373 121.071 58.8373C120.938 58.8373 120.81 58.8123 120.687 58.7625C120.567 58.7093 120.459 58.6312 120.363 58.5281C120.27 58.4251 120.195 58.2971 120.138 58.1442C120.082 57.9913 120.054 57.8151 120.054 57.6156C120.054 57.4295 120.077 57.2616 120.123 57.112C120.173 56.9624 120.243 56.8345 120.333 56.7281C120.426 56.6217 120.539 56.5403 120.672 56.4838C120.805 56.4239 120.956 56.394 121.126 56.394C121.242 56.394 121.355 56.4123 121.465 56.4489C121.574 56.4854 121.668 56.537 121.744 56.6034V55.2422ZM121.744 57.0173C121.604 56.8577 121.436 56.778 121.24 56.778C121.154 56.778 121.071 56.7929 120.991 56.8228C120.911 56.8527 120.84 56.9009 120.777 56.9674C120.713 57.0339 120.664 57.1187 120.627 57.2217C120.59 57.3248 120.572 57.4511 120.572 57.6007C120.572 57.7503 120.589 57.8783 120.622 57.9846C120.659 58.091 120.705 58.1791 120.762 58.2489C120.818 58.3187 120.883 58.3702 120.956 58.4035C121.033 58.4334 121.111 58.4484 121.19 58.4484C121.31 58.4484 121.415 58.4218 121.505 58.3686C121.598 58.3154 121.677 58.2406 121.744 58.1442V57.0173Z" fill="#313332"/>
<path d="M123.369 56.4339H123.883V58.4384C123.883 58.6279 123.869 58.8024 123.843 58.9619C123.82 59.1215 123.776 59.2661 123.713 59.3957C123.65 59.5254 123.564 59.6417 123.454 59.7448C123.344 59.8478 123.203 59.9359 123.03 60.0091L122.801 59.6401C122.904 59.5869 122.99 59.532 123.06 59.4755C123.133 59.4223 123.191 59.3542 123.234 59.2711C123.281 59.188 123.314 59.0833 123.334 58.957C123.357 58.834 123.369 58.6777 123.369 58.4882V56.4339ZM123.628 55.8505C123.539 55.8505 123.467 55.8239 123.414 55.7707C123.361 55.7142 123.334 55.6444 123.334 55.5613C123.334 55.4782 123.361 55.4101 123.414 55.3569C123.47 55.3004 123.542 55.2721 123.628 55.2721C123.715 55.2721 123.785 55.3004 123.838 55.3569C123.894 55.4101 123.923 55.4782 123.923 55.5613C123.923 55.6477 123.894 55.7175 123.838 55.7707C123.785 55.8239 123.715 55.8505 123.628 55.8505Z" fill="#313332"/>
<path d="M127.028 57.7004H125.378V57.7204C125.378 57.9597 125.448 58.1409 125.587 58.2639C125.727 58.3869 125.911 58.4484 126.141 58.4484C126.267 58.4484 126.38 58.4384 126.48 58.4184C126.583 58.3952 126.686 58.3603 126.789 58.3137L126.889 58.6877C126.792 58.7309 126.677 58.7658 126.545 58.7924C126.412 58.8223 126.265 58.8373 126.106 58.8373C125.936 58.8373 125.775 58.814 125.622 58.7675C125.469 58.7209 125.335 58.6478 125.218 58.5481C125.105 58.4484 125.015 58.322 124.949 58.1691C124.882 58.0162 124.849 57.8334 124.849 57.6206C124.849 57.4378 124.876 57.2716 124.929 57.122C124.985 56.9691 125.064 56.8395 125.163 56.7331C125.266 56.6234 125.389 56.5403 125.532 56.4838C125.679 56.4239 125.84 56.394 126.016 56.394C126.169 56.394 126.307 56.4189 126.43 56.4688C126.556 56.5187 126.663 56.5901 126.749 56.6832C126.839 56.773 126.907 56.8843 126.953 57.0173C127.003 57.1469 127.028 57.2915 127.028 57.4511V57.7004ZM126.5 57.3414C126.5 57.2616 126.49 57.1868 126.47 57.117C126.45 57.0472 126.42 56.9874 126.38 56.9375C126.34 56.8843 126.287 56.8428 126.22 56.8129C126.157 56.7796 126.081 56.763 125.991 56.763C125.825 56.763 125.689 56.8162 125.582 56.9226C125.479 57.0289 125.416 57.1719 125.393 57.3514L126.5 57.3414Z" fill="#313332"/>
<path d="M129.221 56.8129H128.553V58.0844C128.553 58.2007 128.58 58.2788 128.633 58.3187C128.689 58.3586 128.764 58.3785 128.857 58.3785C128.924 58.3785 128.993 58.3719 129.067 58.3586C129.143 58.342 129.209 58.3237 129.266 58.3038L129.346 58.6827C129.279 58.7093 129.193 58.7342 129.086 58.7575C128.983 58.7774 128.874 58.7874 128.757 58.7874C128.505 58.7874 128.322 58.7359 128.209 58.6328C128.099 58.5265 128.044 58.3702 128.044 58.1641V56.8129H127.685V56.4339H128.044V55.691H128.553V56.4339H129.221V56.8129Z" fill="#313332"/>
<path d="M130.189 58.7874V55.2422H130.693V58.7874H130.189Z" fill="#313332"/>
<path d="M132.615 56.2351C132.855 56.2351 133.065 56.2834 133.246 56.38C133.427 56.4766 133.567 56.62 133.667 56.8101C133.77 57.0002 133.821 57.2354 133.821 57.5159C133.821 57.7902 133.774 58.0255 133.681 58.2218C133.59 58.4181 133.461 58.5693 133.293 58.6752C133.128 58.7812 132.934 58.8342 132.713 58.8342C132.501 58.8342 132.317 58.7874 132.162 58.6939C132.006 58.6004 131.886 58.4695 131.802 58.3013C131.721 58.1299 131.68 57.9304 131.68 57.7029V57.4552H133.396C133.389 57.1716 133.316 56.9565 133.176 56.8101C133.039 56.6605 132.846 56.5857 132.596 56.5857C132.437 56.5857 132.296 56.6013 132.171 56.6324C132.049 56.6605 131.923 56.7025 131.792 56.7586V56.3987C131.92 56.3426 132.046 56.3021 132.171 56.2771C132.296 56.2491 132.444 56.2351 132.615 56.2351ZM133.386 57.7824H132.11C132.113 57.9943 132.163 58.1673 132.26 58.3013C132.356 58.4321 132.509 58.4976 132.718 58.4976C132.914 58.4976 133.068 58.4353 133.181 58.3106C133.296 58.1828 133.365 58.0068 133.386 57.7824Z" fill="#313332"/>
<path d="M134.773 58.7874V56.4339H135.162L135.237 56.8877C135.294 56.748 135.385 56.6317 135.511 56.5386C135.638 56.4422 135.791 56.394 135.97 56.394C136.05 56.394 136.118 56.4007 136.175 56.414C136.234 56.4273 136.288 56.4455 136.334 56.4688L136.239 56.8976C136.199 56.8777 136.153 56.8611 136.1 56.8478C136.05 56.8345 135.992 56.8278 135.925 56.8278C135.742 56.8278 135.59 56.891 135.467 57.0173C135.344 57.1403 135.282 57.3281 135.282 57.5807V58.7874H134.773Z" fill="#313332"/>
<defs>
<filter id="filter0_d" x="0" y="0" width="200" height="102" filterUnits="userSpaceOnUse" color-interpolation-filters="sRGB">
<feFlood flood-opacity="0" result="BackgroundImageFix"/>
<feColorMatrix in="SourceAlpha" type="matrix" values="0 0 0 0 0 0 0 0 0 0 0 0 0 0 0 0 0 0 127 0"/>
<feOffset dy="4"/>
<feGaussianBlur stdDeviation="2"/>
<feColorMatrix type="matrix" values="0 0 0 0 0 0 0 0 0 0 0 0 0 0 0 0 0 0 0.25 0"/>
<feBlend mode="normal" in2="BackgroundImageFix" result="effect1_dropShadow"/>
<feBlend mode="normal" in="SourceGraphic" in2="effect1_dropShadow" result="shape"/>
</filter>
<linearGradient id="paint0_linear" x1="100" y1="0" x2="100" y2="94" gradientUnits="userSpaceOnUse">
<stop stop-color="#FF9900"/>
<stop offset="1" stop-color="#FFCC00"/>
</linearGradient>
</defs>
</svg>
