<svg width="119" height="119" viewBox="0 0 119 119" fill="none" xmlns="http://www.w3.org/2000/svg">
<path d="M0 19L32.9999 18.9999L102 83.9999L102 117L0 19Z" fill="#333333"/>
<g filter="url(#filter0_d)">
<path d="M28.3242 25.1427L32.4976 29.0835L31.4788 30.1625L28.6999 27.5385L27.3158 29.0043L29.83 31.3784L28.8208 32.4472L26.3066 30.0731L24.6822 31.7934L27.4916 34.4462L26.4728 35.5252L22.2688 31.5555L28.3242 25.1427ZM37.2846 31.9862L38.6384 33.2645L31.7756 40.5324L30.8086 39.6193L31.1659 38.9554L31.115 38.9074C30.8327 38.9617 30.5153 38.9444 30.1628 38.8555C29.8171 38.7729 29.461 38.5587 29.0946 38.2126C28.7892 37.9243 28.5587 37.5975 28.4029 37.2322C28.2472 36.8669 28.1735 36.4828 28.1817 36.0798C28.19 35.6769 28.2838 35.2648 28.4632 34.8437C28.6494 34.429 28.9315 34.0215 29.3096 33.6211C29.6748 33.2343 30.0557 32.9329 30.4523 32.7169C30.8488 32.5008 31.2446 32.3739 31.6397 32.3362C32.0412 32.2917 32.4355 32.3431 32.8226 32.4904C33.2162 32.631 33.5928 32.8711 33.9525 33.2107C34.1832 33.4286 34.3683 33.6676 34.5078 33.9277C34.6541 34.1942 34.7371 34.4394 34.7567 34.6633L37.2846 31.9862ZM33.8051 35.671C33.8194 35.4791 33.7906 35.2786 33.7186 35.0694C33.6465 34.8602 33.5257 34.6755 33.3561 34.5153C33.1932 34.3615 33.0115 34.2413 32.8109 34.1546C32.6171 34.0743 32.4049 34.0408 32.1742 34.054C31.9567 34.0668 31.7211 34.1396 31.4674 34.2723C31.2201 34.3983 30.9651 34.6003 30.7024 34.8786C30.4461 35.15 30.2556 35.413 30.1308 35.6674C30.0061 35.9219 29.9337 36.1617 29.9137 36.3867C29.8938 36.6118 29.9228 36.8189 30.0009 37.0081C30.0857 37.2038 30.2062 37.3753 30.3623 37.5227C30.5794 37.7277 30.8107 37.8498 31.0561 37.889C31.3147 37.9278 31.5486 37.9112 31.7578 37.8392L33.8051 35.671ZM33.1343 41.8154L37.7191 36.9599L39.0729 38.2383L34.4881 43.0937L33.1343 41.8154ZM39.3815 36.5656C39.1508 36.3478 39.0318 36.1135 39.0246 35.8628C39.0238 35.6053 39.1164 35.3782 39.3022 35.1814C39.488 34.9846 39.7063 34.8826 39.957 34.8754C40.2141 34.8615 40.458 34.9634 40.6887 35.1813C40.9126 35.3927 41.025 35.6272 41.0258 35.8847C41.0397 36.1418 40.9538 36.3687 40.768 36.5655C40.5822 36.7623 40.3607 36.8677 40.1036 36.8817C39.8529 36.8888 39.6122 36.7835 39.3815 36.5656ZM42.3986 43.2271L41.1059 42.0064L38.9913 44.2458C38.7734 44.4766 38.6738 44.6841 38.6922 44.8684C38.7239 45.0524 38.828 45.2277 39.0044 45.3943C39.1401 45.5224 39.2921 45.6402 39.4602 45.7476C39.6284 45.855 39.779 45.9267 39.912 45.9625L39.2217 47.1013C39.0551 47.0467 38.8308 46.9376 38.5488 46.774C38.2668 46.6104 37.9969 46.4069 37.739 46.1634C37.1486 45.6059 36.8368 45.0933 36.8036 44.6255C36.7768 44.1509 36.9845 43.6794 37.4266 43.2112L39.7622 40.7377L39.009 40.0264L39.9317 39.0492L40.685 39.7605L42.0979 38.2641L43.4415 39.5329L42.0286 41.0292L43.3214 42.2499L42.3986 43.2271ZM46.7714 50.0326C46.3934 50.433 45.9893 50.7318 45.5592 50.929C45.1291 51.1262 44.6929 51.2278 44.2508 51.2339C43.8218 51.2396 43.3969 51.1593 42.9762 50.9931C42.5619 50.8201 42.1783 50.567 41.8254 50.2338C41.4725 49.9006 41.1947 49.5356 40.9918 49.1386C40.7958 48.7481 40.6851 48.3419 40.6598 47.9201C40.6413 47.5047 40.7117 47.0834 40.8711 46.6563C41.0438 46.2288 41.3159 45.8182 41.6875 45.4247C42.0784 45.0107 42.4889 44.7051 42.919 44.5079C43.3555 44.3039 43.7883 44.1991 44.2173 44.1934C44.6594 44.1873 45.0877 44.2708 45.502 44.4438C45.9163 44.6168 46.2999 44.8699 46.6528 45.2031C47.0057 45.5363 47.2801 45.8981 47.4762 46.2887C47.679 46.6856 47.7897 47.0918 47.8082 47.5072C47.8399 47.9222 47.7695 48.3435 47.5969 48.771C47.431 49.2049 47.1559 49.6254 46.7714 50.0326ZM45.3288 48.7667C45.5916 48.4885 45.7853 48.2221 45.91 47.9676C46.0348 47.7132 46.1039 47.4768 46.1175 47.2585C46.131 47.0403 46.0956 46.8399 46.0111 46.6575C45.9331 46.4682 45.8228 46.3064 45.6803 46.1718C45.5378 46.0372 45.3764 45.9362 45.1962 45.8688C45.0224 45.7945 44.827 45.7704 44.6098 45.7964C44.3991 45.8157 44.1703 45.8949 43.9234 46.034C43.6765 46.1731 43.4121 46.392 43.1301 46.6906C42.8802 46.9552 42.6929 47.2148 42.5682 47.4692C42.4498 47.7169 42.3839 47.9499 42.3703 48.1682C42.3636 48.3928 42.3958 48.5966 42.4671 48.7794C42.5451 48.9686 42.6554 49.1305 42.7979 49.2651C42.9404 49.3997 43.0986 49.5041 43.2724 49.5783C43.4526 49.6458 43.6512 49.6665 43.8683 49.6405C44.0855 49.6144 44.3143 49.5352 44.5548 49.4029C44.8017 49.2638 45.0597 49.0517 45.3288 48.7667ZM45.4083 53.4052L49.9931 48.5497L51.0415 49.5397L50.3676 50.5593C50.7265 50.4104 51.1243 50.356 51.5613 50.3963C51.9982 50.4366 52.4066 50.6362 52.7867 50.995C52.9427 51.1424 53.0658 51.2907 53.1559 51.44C53.2461 51.5893 53.3094 51.7261 53.346 51.8505L52.1128 52.7079C52.0766 52.5967 52.0136 52.473 51.9239 52.3369C51.8406 52.1941 51.7209 52.049 51.5648 51.9016C51.2323 51.5876 50.8483 51.4368 50.4129 51.4493C49.9907 51.4614 49.5425 51.7186 49.0683 52.2207L46.7519 54.6739L45.4083 53.4052ZM55.5618 51.5359C55.3827 51.277 55.3026 51.0152 55.3214 50.7505C55.3466 50.4791 55.4617 50.2348 55.6668 50.0177C55.8718 49.8005 56.1193 49.6812 56.4092 49.6597C56.7055 49.6313 56.986 49.7421 57.2506 49.9921C57.3524 50.0882 57.435 50.2046 57.4983 50.3415C57.5685 50.4847 57.5996 50.6489 57.5917 50.834C57.5902 51.0123 57.5429 51.2051 57.4498 51.4125C57.3631 51.613 57.2141 51.8253 57.0026 52.0492C56.7783 52.2867 56.5263 52.4788 56.2466 52.6255C55.9734 52.7654 55.6857 52.866 55.3838 52.9275C55.0883 52.9822 54.7886 53.0073 54.4847 53.0028C54.1873 52.9915 53.9121 52.9499 53.6592 52.8779L53.7722 51.9834C54.0847 52.0602 54.4121 52.0806 54.7544 52.0443C55.1034 52.0145 55.4139 51.9033 55.6856 51.7106L55.5618 51.5359ZM58.1213 58.4199C57.9003 57.8519 57.6032 57.3916 57.23 57.0392C57.0128 56.8341 56.808 56.7113 56.6153 56.6706C56.4295 56.6363 56.2757 56.6836 56.1539 56.8125C56.0322 56.9415 55.9837 57.0947 56.0086 57.2723C56.0403 57.4562 56.1708 57.7463 56.4 58.1425L56.6189 58.5224C56.9243 59.0419 57.0766 59.5195 57.0759 59.9553C57.0752 60.391 56.9018 60.7921 56.5558 61.1586C56.1009 61.6404 55.5522 61.8476 54.9098 61.7802C54.2743 61.7192 53.6409 61.3907 53.0098 60.7948C52.3651 60.186 51.921 59.5484 51.6774 58.882L52.9247 58.1728C53.0254 58.4604 53.1523 58.7407 53.3054 59.0136C53.4649 59.2797 53.6566 59.5185 53.8805 59.7299C54.152 59.9863 54.3872 60.1314 54.5862 60.1653C54.7985 60.1988 54.9687 60.1477 55.0968 60.012C55.2314 59.8695 55.2729 59.7032 55.2212 59.5132C55.1759 59.3165 55.0285 59.0104 54.7789 58.595L54.5499 58.2054C54.2709 57.6852 54.1421 57.2235 54.1635 56.8201C54.185 56.4167 54.3719 56.0284 54.7243 55.6552C55.1408 55.2141 55.6467 55.0114 56.242 55.0472C56.8372 55.0829 57.4334 55.3828 58.0306 55.9466C58.621 56.5041 59.0442 57.1027 59.3002 57.7424L58.1213 58.4199ZM61.8512 67.2563C62.0683 67.4614 62.284 67.6136 62.4981 67.7131C62.7254 67.8122 62.919 67.8859 63.0788 67.9342L62.449 69.1109C62.2428 69.0574 61.9788 68.9429 61.6568 68.7672C61.3349 68.5916 61.0212 68.3596 60.7158 68.0712C60.3494 67.7252 60.0579 67.3473 59.8415 66.9376C59.6251 66.5278 59.4974 66.1056 59.4586 65.671C59.4329 65.236 59.4996 64.7983 59.6586 64.358C59.8177 63.9177 60.0926 63.4906 60.4835 63.0766C60.8423 62.6966 61.2336 62.4114 61.6573 62.221C62.081 62.0305 62.5139 61.9323 62.9561 61.9262C63.3983 61.9201 63.8399 62.0098 64.281 62.1952C64.7221 62.3807 65.136 62.656 65.5228 63.0213C65.7332 63.2199 65.9345 63.4485 66.1268 63.7071C66.3259 63.9721 66.4902 64.2942 66.62 64.6734L65.4507 65.3408C65.3851 65.1248 65.2898 64.9129 65.1651 64.7052C65.0534 64.4971 64.9128 64.313 64.7432 64.1528C64.3224 63.7555 63.858 63.5609 63.3498 63.5688C62.8485 63.5832 62.3639 63.8381 61.8961 64.3335C61.6206 64.6253 61.4274 64.9114 61.3166 65.1919C61.219 65.472 61.1804 65.7372 61.2008 65.9875C61.2212 66.2378 61.2905 66.4702 61.4089 66.6847C61.5273 66.8992 61.6747 67.0897 61.8512 67.2563ZM64.5363 71.4669L63.1825 70.1886L70.0452 62.9207L71.3991 64.199L68.7078 67.0492C69.052 67.0789 69.3977 67.1615 69.7449 67.2968C70.0988 67.4385 70.4251 67.6503 70.7237 67.9322C71.0087 68.2014 71.2148 68.4794 71.3418 68.7662C71.4821 69.0527 71.5464 69.3381 71.5347 69.6223C71.5363 69.9062 71.4685 70.1887 71.3313 70.4699C71.2005 70.7444 71.0166 71.0072 70.7795 71.2582L67.7325 74.485L66.3787 73.2067L69.2046 70.214C69.5186 69.8815 69.675 69.5799 69.6738 69.3092C69.6726 69.0386 69.5431 68.7815 69.2853 68.538C69.1088 68.3714 68.8839 68.2425 68.6106 68.1513C68.3505 68.0597 68.0785 68.0147 67.7947 68.0162L64.5363 71.4669ZM76.0265 77.6569C75.6484 78.0573 75.2444 78.3561 74.8142 78.5533C74.3841 78.7505 73.948 78.8521 73.5058 78.8582C73.0768 78.8639 72.652 78.7836 72.2313 78.6174C71.817 78.4445 71.4334 78.1914 71.0805 77.8582C70.7276 77.5249 70.4497 77.1599 70.2469 76.7629C70.0508 76.3724 69.9402 75.9663 69.9149 75.5444C69.8963 75.129 69.9668 74.7077 70.1262 74.2806C70.2988 73.8531 70.571 73.4426 70.9426 73.049C71.3335 72.635 71.744 72.3294 72.1741 72.1322C72.6106 71.9283 73.0433 71.8234 73.4723 71.8177C73.9145 71.8117 74.3428 71.8951 74.7571 72.0681C75.1714 72.2411 75.555 72.4942 75.9078 72.8274C76.2607 73.1606 76.5352 73.5225 76.7312 73.913C76.9341 74.3099 77.0448 74.7161 77.0633 75.1315C77.095 75.5465 77.0245 75.9678 76.8519 76.3953C76.6861 76.8292 76.411 77.2498 76.0265 77.6569ZM74.5839 76.391C74.8466 76.1128 75.0404 75.8464 75.1651 75.592C75.2899 75.3375 75.359 75.1011 75.3726 74.8829C75.3861 74.6646 75.3507 74.4642 75.2662 74.2818C75.1881 74.0926 75.0779 73.9307 74.9354 73.7961C74.7928 73.6615 74.6315 73.5605 74.4513 73.4931C74.2775 73.4188 74.082 73.3947 73.8649 73.4208C73.6542 73.44 73.4254 73.5192 73.1785 73.6583C72.9316 73.7974 72.6671 74.0163 72.3852 74.3149C72.1353 74.5795 71.948 74.8391 71.8232 75.0936C71.7049 75.3413 71.6389 75.5742 71.6254 75.7925C71.6186 76.0172 71.6509 76.2209 71.7221 76.4037C71.8002 76.593 71.9105 76.7549 72.053 76.8894C72.1955 77.024 72.3536 77.1284 72.5274 77.2026C72.7076 77.2701 72.9063 77.2908 73.1234 77.2648C73.3405 77.2388 73.5694 77.1596 73.8099 77.0272C74.0568 76.8881 74.3148 76.676 74.5839 76.391ZM74.7753 81.1352L79.3601 76.2798L80.7139 77.5581L76.1291 82.4136L74.7753 81.1352ZM81.0225 75.8855C80.7918 75.6676 80.6728 75.4333 80.6656 75.1827C80.6649 74.9252 80.7574 74.6981 80.9432 74.5013C81.129 74.3045 81.3473 74.2025 81.598 74.1953C81.8551 74.1813 82.099 74.2833 82.3297 74.5011C82.5536 74.7126 82.666 74.947 82.6668 75.2045C82.6808 75.4616 82.5948 75.6885 82.409 75.8853C82.2232 76.0821 82.0017 76.1875 81.7446 76.2015C81.4939 76.2087 81.2532 76.1033 81.0225 75.8855ZM80.8575 85.2032C81.0747 85.4082 81.2903 85.5605 81.5044 85.66C81.7318 85.7591 81.9254 85.8328 82.0852 85.8811L81.4554 87.0578C81.2492 87.0043 80.9851 86.8897 80.6632 86.7141C80.3412 86.5385 80.0275 86.3065 79.7222 86.0181C79.3557 85.6721 79.0643 85.2942 78.8479 84.8845C78.6314 84.4747 78.5038 84.0525 78.4649 83.6179C78.4393 83.1829 78.5059 82.7452 78.665 82.3049C78.824 81.8646 79.099 81.4374 79.4898 81.0235C79.8487 80.6435 80.2399 80.3583 80.6636 80.1678C81.0873 79.9774 81.5203 79.8792 81.9625 79.8731C82.4046 79.867 82.8463 79.9567 83.2873 80.1421C83.7284 80.3276 84.1424 80.6029 84.5292 80.9681C84.7395 81.1668 84.9409 81.3954 85.1331 81.654C85.3322 81.919 85.4966 82.2411 85.6263 82.6203L84.457 83.2876C84.3914 83.0716 84.2962 82.8598 84.1714 82.6521C84.0598 82.444 83.9192 82.2599 83.7495 82.0997C83.3288 81.7024 82.8643 81.5078 82.3562 81.5157C81.8548 81.5301 81.3702 81.785 80.9025 82.2804C80.6269 82.5722 80.4338 82.8583 80.323 83.1388C80.2254 83.4189 80.1867 83.6841 80.2071 83.9344C80.2275 84.1847 80.2969 84.4171 80.4153 84.6316C80.5337 84.8461 80.6811 85.0366 80.8575 85.2032ZM88.187 89.8713L84.9602 86.8243L84.9218 86.8651C84.5565 87.2519 84.4199 87.6684 84.5119 88.1148C84.604 88.5611 84.8637 88.9861 85.2913 89.3898C85.5627 89.6461 85.8258 89.8432 86.0807 89.9812C86.3423 90.1255 86.5932 90.2405 86.8333 90.326L86.1837 91.5034C85.9172 91.4186 85.616 91.2753 85.2801 91.0737C84.9378 90.8788 84.5766 90.602 84.1966 90.2432C83.8302 89.8971 83.5289 89.5228 83.2929 89.1203C83.0701 88.7173 82.9326 88.2987 82.8806 87.8644C82.8353 87.4366 82.8888 86.9993 83.041 86.5525C83.1933 86.1058 83.4745 85.6653 83.8846 85.231C84.2498 84.8442 84.6375 84.5492 85.0476 84.3459C85.4641 84.1359 85.8833 84.0183 86.3051 83.993C86.7338 83.9741 87.155 84.0445 87.569 84.2043C87.9893 84.3573 88.3827 84.6069 88.7491 84.9529C89.4074 85.5744 89.7409 86.268 89.7496 87.0337C89.7652 87.8057 89.4333 88.5514 88.7541 89.2707L88.187 89.8713ZM87.6773 87.6378C87.799 87.5088 87.9006 87.3673 87.982 87.2131C88.0702 87.0653 88.122 86.9153 88.1375 86.763C88.1593 86.6039 88.145 86.4491 88.0945 86.2987C88.0439 86.1483 87.944 86.0026 87.7947 85.8617C87.5233 85.6053 87.2128 85.4855 86.8634 85.5021C86.5139 85.5187 86.1749 85.6671 85.8462 85.9472L87.6773 87.6378Z" fill="#FFCC00"/>
</g>
<defs>
<filter id="filter0_d" x="21.269" y="24.1427" width="69.4813" height="68.3607" filterUnits="userSpaceOnUse" color-interpolation-filters="sRGB">
<feFlood flood-opacity="0" result="BackgroundImageFix"/>
<feColorMatrix in="SourceAlpha" type="matrix" values="0 0 0 0 0 0 0 0 0 0 0 0 0 0 0 0 0 0 127 0"/>
<feOffset/>
<feGaussianBlur stdDeviation="0.5"/>
<feColorMatrix type="matrix" values="0 0 0 0 1 0 0 0 0 0.8 0 0 0 0 0 0 0 0 1 0"/>
<feBlend mode="normal" in2="BackgroundImageFix" result="effect1_dropShadow"/>
<feBlend mode="normal" in="SourceGraphic" in2="effect1_dropShadow" result="shape"/>
</filter>
</defs>
</svg>
