<svg width="43" height="43" viewBox="0 0 43 43" fill="none" xmlns="http://www.w3.org/2000/svg">
<path d="M10.7044 19.4967L8.48306 16.5917L8.47164 16.5944C6.98864 16.9653 5.6569 17.398 4.51287 17.8809L1.98779 19.9091L4.15325 22.3402C5.39848 22.0323 6.71385 22.3895 7.85923 23.2293L7.85822 23.2268C7.85813 23.2262 7.85813 23.2254 7.85805 23.2248L7.85939 23.2292L10.7044 19.4967Z" fill="#252525"/>
<path d="M15.3796 30.0481L11.0039 30.6304C10.8738 32.0236 10.3741 33.2563 9.57861 34.1173L10.0944 37.6065L13.4753 36.898C13.4753 36.898 13.8281 34.84 16.4799 33.5358L15.3796 30.0481Z" fill="#252525"/>
<path d="M32.2954 19.4967L34.5168 16.5917L34.5282 16.5944C36.0112 16.9653 37.343 17.398 38.4869 17.8809L41.012 19.9091L38.8465 22.3402C37.6013 22.0322 36.2859 22.3894 35.1405 23.2292L35.1416 23.2267C35.1416 23.2261 35.1416 23.2253 35.1417 23.2248L35.1404 23.2291L32.2954 19.4967Z" fill="#252525"/>
<path d="M27.6204 30.0481L31.9961 30.6304C32.1261 32.0236 32.6259 33.2563 33.4214 34.1173L32.9055 37.6065L29.5246 36.898C29.5246 36.898 29.1718 34.84 26.52 33.5358L27.6204 30.0481Z" fill="#252525"/>
<path d="M21.5 43C15.7571 43 10.358 40.7636 6.29715 36.7029C2.23625 32.6421 0 27.2429 0 21.5C0 15.7571 2.23642 10.358 6.29715 6.29715C10.3579 2.23625 15.7571 0 21.5 0C27.2429 0 32.642 2.23642 36.7029 6.29715C40.7637 10.3579 43 15.7571 43 21.5C43 27.2429 40.7636 32.642 36.7029 36.7029C32.6421 40.7637 27.2429 43 21.5 43ZM21.5 4.13321C11.9238 4.13321 4.13321 11.924 4.13321 21.5C4.13321 31.076 11.924 38.8668 21.5 38.8668C31.076 38.8668 38.8668 31.076 38.8668 21.5C38.8668 11.9238 31.076 4.13321 21.5 4.13321Z" fill="#333333"/>
<path d="M8.48332 16.5916C8.48096 16.5974 7.36733 19.3148 7.85847 23.2268L7.85948 23.2294C9.08607 24.1287 10.1178 25.5819 10.6581 27.3715C10.9954 28.489 11.1 29.6032 11.0042 30.6303C11.0042 30.6303 13.3652 30.4715 16.4802 33.5357C18.0477 33.912 19.738 34.1172 21.5001 34.1172C23.2623 34.1172 24.9525 33.912 26.5201 33.5357C29.6351 30.4715 31.9961 30.6303 31.9961 30.6303C31.9002 29.6031 32.005 28.489 32.3422 27.3715C32.8824 25.5819 33.9141 24.1288 35.1408 23.2294L35.1418 23.2268C35.6329 19.3149 34.5194 16.5974 34.517 16.5916C30.9036 15.6885 26.3934 15.1517 21.5001 15.1517C16.6067 15.1517 12.0967 15.6885 8.48332 16.5916Z" fill="#333333"/>
<g filter="url(#filter0_d)">
<path fill-rule="evenodd" clip-rule="evenodd" d="M24.2425 21.5005C24.2425 23.0148 23.0149 24.2424 21.5006 24.2424C19.9864 24.2424 18.7588 23.0148 18.7588 21.5005C18.7588 19.9862 19.9864 18.7587 21.5006 18.7587C23.0149 18.7587 24.2425 19.9862 24.2425 21.5005ZM21.5001 22.5C22.0524 22.5 22.5001 22.0523 22.5001 21.5C22.5001 20.9477 22.0524 20.5 21.5001 20.5C20.9478 20.5 20.5001 20.9477 20.5001 21.5C20.5001 22.0523 20.9478 22.5 21.5001 22.5Z" fill="#FFCC00"/>
</g>
<defs>
<filter id="filter0_d" x="17.7588" y="17.7587" width="7.48367" height="7.4837" filterUnits="userSpaceOnUse" color-interpolation-filters="sRGB">
<feFlood flood-opacity="0" result="BackgroundImageFix"/>
<feColorMatrix in="SourceAlpha" type="matrix" values="0 0 0 0 0 0 0 0 0 0 0 0 0 0 0 0 0 0 127 0"/>
<feOffset/>
<feGaussianBlur stdDeviation="0.5"/>
<feColorMatrix type="matrix" values="0 0 0 0 1 0 0 0 0 0.8 0 0 0 0 0 0 0 0 1 0"/>
<feBlend mode="normal" in2="BackgroundImageFix" result="effect1_dropShadow"/>
<feBlend mode="normal" in="SourceGraphic" in2="effect1_dropShadow" result="shape"/>
</filter>
</defs>
</svg>
