<svg width="25" height="40" viewBox="0 0 25 40" fill="none" xmlns="http://www.w3.org/2000/svg">
<path d="M4.00439 23.0928C4.00439 22.0607 4.84107 21.224 5.87317 21.224H18.9546C19.9867 21.224 20.8234 22.0607 20.8234 23.0928V32.8371C20.8234 33.8692 19.9867 34.7059 18.9546 34.7059H5.87317C4.84107 34.7059 4.00439 33.8692 4.00439 32.8371V23.0928Z" fill="#252525"/>
<path d="M0 3.3371C0 1.49407 1.49407 0 3.3371 0H21.6244C23.4675 0 24.9615 1.49407 24.9615 3.3371V21.6244C24.9615 23.4675 23.4675 24.9615 21.6244 24.9615H3.3371C1.49407 24.9615 0 23.4675 0 21.6244V3.3371Z" fill="#333333"/>
<path fill-rule="evenodd" clip-rule="evenodd" d="M21.6244 0.739601H3.3371C1.90254 0.739601 0.739601 1.90254 0.739601 3.3371V21.6244C0.739601 23.059 1.90254 24.2219 3.3371 24.2219H21.6244C23.059 24.2219 24.2219 23.059 24.2219 21.6244V3.3371C24.2219 1.90254 23.059 0.739601 21.6244 0.739601ZM3.3371 0C1.49407 0 0 1.49407 0 3.3371V21.6244C0 23.4675 1.49407 24.9615 3.3371 24.9615H21.6244C23.4675 24.9615 24.9615 23.4675 24.9615 21.6244V3.3371C24.9615 1.49407 23.4675 0 21.6244 0H3.3371Z" fill="#171717"/>
<path d="M7.4751 36.0458C7.4751 35.7481 7.68427 35.5067 7.94229 35.5067C8.20032 35.5067 8.40949 35.7481 8.40949 36.0458V38.9722C8.40949 39.2699 8.20032 39.5112 7.94229 39.5112C7.68427 39.5112 7.4751 39.2699 7.4751 38.9722V36.0458Z" fill="black"/>
<path d="M16.4185 36.0458C16.4185 35.7481 16.6276 35.5067 16.8857 35.5067C17.1437 35.5067 17.3528 35.7481 17.3528 36.0458V38.9722C17.3528 39.2699 17.1437 39.5112 16.8857 39.5112C16.6276 39.5112 16.4185 39.2699 16.4185 38.9722V36.0458Z" fill="black"/>
<path d="M6.94141 34.7058H8.94367V37.509H6.94141V34.7058Z" fill="#1B1B1B"/>
<path d="M15.8848 34.7058H17.887V37.509H15.8848V34.7058Z" fill="#1B1B1B"/>
<g filter="url(#filter0_d)">
<path d="M15.4169 10.833H13.6173L15.7076 6.70772C15.7353 6.65234 15.763 6.58313 15.763 6.51391C15.763 6.30626 15.5969 6.14014 15.3892 6.14014H9.45043C9.24278 6.14014 9.07666 6.30626 9.07666 6.51391V13.1172C9.0905 13.311 9.25662 13.4771 9.45043 13.4771H10.8209V18.3362C10.8209 18.4608 10.8901 18.5854 11.0009 18.6546C11.1809 18.7653 11.4024 18.6961 11.5131 18.53L15.7215 11.4145C15.763 11.3591 15.7907 11.276 15.7907 11.2068C15.7907 10.9992 15.6246 10.833 15.4169 10.833ZM11.5685 16.9795V13.1172C11.5685 12.9096 11.4024 12.7434 11.1947 12.7434H9.8242V6.88768H14.7663L12.6759 11.0407C12.579 11.2207 12.6621 11.4422 12.8421 11.5391C12.8974 11.5667 12.9528 11.5806 13.0082 11.5806H14.7663L11.5685 16.9795Z" fill="#FFCC00"/>
</g>
<defs>
<filter id="filter0_d" x="8.07666" y="5.14014" width="8.71405" height="14.5683" filterUnits="userSpaceOnUse" color-interpolation-filters="sRGB">
<feFlood flood-opacity="0" result="BackgroundImageFix"/>
<feColorMatrix in="SourceAlpha" type="matrix" values="0 0 0 0 0 0 0 0 0 0 0 0 0 0 0 0 0 0 127 0"/>
<feOffset/>
<feGaussianBlur stdDeviation="0.5"/>
<feColorMatrix type="matrix" values="0 0 0 0 1 0 0 0 0 0.8 0 0 0 0 0 0 0 0 1 0"/>
<feBlend mode="normal" in2="BackgroundImageFix" result="effect1_dropShadow"/>
<feBlend mode="normal" in="SourceGraphic" in2="effect1_dropShadow" result="shape"/>
</filter>
</defs>
</svg>
