<svg width="43" height="43" viewBox="0 0 43 43" fill="none" xmlns="http://www.w3.org/2000/svg">
<path d="M42.5 21.5C42.5 33.098 33.098 42.5 21.5 42.5C9.90202 42.5 0.5 33.098 0.5 21.5C0.5 9.90202 9.90202 0.5 21.5 0.5C33.098 0.5 42.5 9.90202 42.5 21.5Z" fill="#333333" stroke="#1F1E1E"/>
<g filter="url(#filter0_d)">
<path d="M27.7107 24.0294C24.9554 24.0294 22.7139 26.2711 22.7139 29.0262C22.7139 31.7815 24.9554 34.023 27.7107 34.023C30.466 34.023 32.7075 31.7815 32.7075 29.0262C32.7075 26.2711 30.466 24.0294 27.7107 24.0294ZM27.7107 32.0243C26.0572 32.0243 24.7126 30.6797 24.7126 29.0262C24.7126 27.373 26.0572 26.0281 27.7107 26.0281C29.3641 26.0281 30.7087 27.373 30.7087 29.0262C30.7087 30.6797 29.3641 32.0243 27.7107 32.0243Z" fill="#FFCC00"/>
</g>
<g filter="url(#filter1_d)">
<path d="M9 20.0319H20.4392L14.7192 10.0229L9 20.0319ZM12.4438 18.0332L14.7192 14.0514L16.9949 18.0332H12.4438Z" fill="#FFCC00"/>
</g>
<g filter="url(#filter2_d)">
<path d="M22.7139 20.0319H32.7075V10.0383H22.7139V20.0319ZM24.7126 12.037H30.7087V18.0332H24.7126V12.037Z" fill="#FFCC00"/>
</g>
<g filter="url(#filter3_d)">
<path d="M11.2213 33.9375L14.719 30.4398L18.2168 33.9375L19.6304 32.5239L16.1327 29.0261L19.6304 25.5284L18.2168 24.115L14.719 27.6127L11.2213 24.115L9.80762 25.5284L13.3054 29.0261L9.80762 32.5239L11.2213 33.9375Z" fill="#FFCC00"/>
</g>
<defs>
<filter id="filter0_d" x="21.7139" y="23.0294" width="11.9936" height="11.9936" filterUnits="userSpaceOnUse" color-interpolation-filters="sRGB">
<feFlood flood-opacity="0" result="BackgroundImageFix"/>
<feColorMatrix in="SourceAlpha" type="matrix" values="0 0 0 0 0 0 0 0 0 0 0 0 0 0 0 0 0 0 127 0"/>
<feOffset/>
<feGaussianBlur stdDeviation="0.5"/>
<feColorMatrix type="matrix" values="0 0 0 0 1 0 0 0 0 0.8 0 0 0 0 0 0 0 0 1 0"/>
<feBlend mode="normal" in2="BackgroundImageFix" result="effect1_dropShadow"/>
<feBlend mode="normal" in="SourceGraphic" in2="effect1_dropShadow" result="shape"/>
</filter>
<filter id="filter1_d" x="8" y="9.02295" width="13.4392" height="12.009" filterUnits="userSpaceOnUse" color-interpolation-filters="sRGB">
<feFlood flood-opacity="0" result="BackgroundImageFix"/>
<feColorMatrix in="SourceAlpha" type="matrix" values="0 0 0 0 0 0 0 0 0 0 0 0 0 0 0 0 0 0 127 0"/>
<feOffset/>
<feGaussianBlur stdDeviation="0.5"/>
<feColorMatrix type="matrix" values="0 0 0 0 1 0 0 0 0 0.8 0 0 0 0 0 0 0 0 1 0"/>
<feBlend mode="normal" in2="BackgroundImageFix" result="effect1_dropShadow"/>
<feBlend mode="normal" in="SourceGraphic" in2="effect1_dropShadow" result="shape"/>
</filter>
<filter id="filter2_d" x="21.7139" y="9.03833" width="11.9936" height="11.9936" filterUnits="userSpaceOnUse" color-interpolation-filters="sRGB">
<feFlood flood-opacity="0" result="BackgroundImageFix"/>
<feColorMatrix in="SourceAlpha" type="matrix" values="0 0 0 0 0 0 0 0 0 0 0 0 0 0 0 0 0 0 127 0"/>
<feOffset/>
<feGaussianBlur stdDeviation="0.5"/>
<feColorMatrix type="matrix" values="0 0 0 0 1 0 0 0 0 0.8 0 0 0 0 0 0 0 0 1 0"/>
<feBlend mode="normal" in2="BackgroundImageFix" result="effect1_dropShadow"/>
<feBlend mode="normal" in="SourceGraphic" in2="effect1_dropShadow" result="shape"/>
</filter>
<filter id="filter3_d" x="8.80762" y="23.115" width="11.8228" height="11.8226" filterUnits="userSpaceOnUse" color-interpolation-filters="sRGB">
<feFlood flood-opacity="0" result="BackgroundImageFix"/>
<feColorMatrix in="SourceAlpha" type="matrix" values="0 0 0 0 0 0 0 0 0 0 0 0 0 0 0 0 0 0 127 0"/>
<feOffset/>
<feGaussianBlur stdDeviation="0.5"/>
<feColorMatrix type="matrix" values="0 0 0 0 1 0 0 0 0 0.8 0 0 0 0 0 0 0 0 1 0"/>
<feBlend mode="normal" in2="BackgroundImageFix" result="effect1_dropShadow"/>
<feBlend mode="normal" in="SourceGraphic" in2="effect1_dropShadow" result="shape"/>
</filter>
</defs>
</svg>
