<svg width="47" height="43" viewBox="0 0 47 43" fill="none" xmlns="http://www.w3.org/2000/svg">
<path d="M40.3431 14.607V5.00094H33.5349V8.70262L23.5 0L0 20.3802L3.24401 25.1339L23.5 7.56273L43.7561 25.134L47 20.3803L40.3431 14.607Z" fill="#1F1E1E"/>
<path d="M19.8239 42.497V42.5H7.83398V24.4405L23.5 10.851L39.166 24.4405V42.5H27.7247V42.497H27.2247H20.3239H19.8239Z" fill="#333333" stroke="#1F1E1E"/>
<g filter="url(#filter0_d)">
<path fill-rule="evenodd" clip-rule="evenodd" d="M18.9471 25.5571C19.1459 25.6238 19.3602 25.5144 19.4258 25.3124C20.0206 23.4845 21.694 22.2564 23.5901 22.2564C26.008 22.2564 27.9752 24.2552 27.9752 26.7122C27.9752 28.6111 27.1381 29.7456 26.4656 30.6572C25.9763 31.3203 25.5538 31.8931 25.5538 32.5877C25.5538 32.6334 25.5532 32.6787 25.5522 32.7237H23.969V31.8393C23.969 31.6266 23.7994 31.4543 23.5901 31.4543C23.3808 31.4543 23.2112 31.6266 23.2112 31.8393V32.7237H21.6279C21.6268 32.6787 21.6262 32.6334 21.6262 32.5877C21.6262 31.8929 21.2037 31.3203 20.7144 30.6571C20.219 29.9856 19.6577 29.2245 19.3793 28.1431C19.3263 27.9374 19.1191 27.8142 18.9168 27.868C18.7145 27.9217 18.5932 28.1323 18.6462 28.3378C18.9622 29.5654 19.5976 30.4268 20.1082 31.1189C20.533 31.6947 20.8685 32.1495 20.8685 32.5877C20.8685 32.7721 20.8762 32.952 20.8911 33.1235V36.38C20.8911 36.3904 20.8919 36.4004 20.8926 36.4105C20.8929 36.4129 20.8927 36.4155 20.893 36.4179C20.8944 36.4322 20.8966 36.446 20.8994 36.4598V36.4601C21.031 37.0872 21.3678 37.6575 21.8483 38.0658C22.3378 38.4821 22.9565 38.7112 23.5901 38.7112C24.2237 38.7112 24.8422 38.4821 25.3319 38.0658C25.8122 37.6575 26.1492 37.0872 26.2806 36.4601C26.2806 36.46 26.2808 36.4598 26.2808 36.4597C26.2836 36.446 26.2857 36.4322 26.2871 36.4179C26.2873 36.4155 26.2873 36.4129 26.2874 36.4105C26.2882 36.4003 26.2889 36.3902 26.2889 36.3798V33.1235C26.3039 32.952 26.3117 32.7721 26.3117 32.5877C26.3117 32.1495 26.6472 31.6947 27.072 31.1189C27.7729 30.1688 28.733 28.8676 28.733 26.7122C28.733 23.8307 26.4258 21.4865 23.5901 21.4865C21.3665 21.4865 19.404 22.9268 18.7063 25.0707C18.6406 25.2725 18.7485 25.4903 18.9471 25.5571ZM23.5901 37.9413C22.8197 37.9413 22.125 37.4679 21.7959 36.7648H25.3843C25.055 37.4679 24.3603 37.9413 23.5901 37.9413ZM25.5313 35.9948H21.6489V35.1292H25.5313V35.9948ZM25.5313 34.3593H21.6489V33.4936H25.5313V34.3593Z" fill="#FFCC00"/>
<path fill-rule="evenodd" clip-rule="evenodd" d="M23.5898 20.7957C23.7991 20.7957 23.9687 20.6234 23.9687 20.4108V19.385C23.9687 19.1723 23.7991 19 23.5898 19C23.3805 19 23.2109 19.1723 23.2109 19.385V20.4108C23.2109 20.6234 23.3805 20.7957 23.5898 20.7957Z" fill="#FFCC00"/>
<path fill-rule="evenodd" clip-rule="evenodd" d="M16.3789 27.0972H17.3884C17.5977 27.0972 17.7673 26.9249 17.7673 26.7123C17.7673 26.4996 17.5977 26.3273 17.3884 26.3273H16.3789C16.1696 26.3273 16 26.4996 16 26.7123C16 26.9249 16.1696 27.0972 16.3789 27.0972Z" fill="#FFCC00"/>
<path fill-rule="evenodd" clip-rule="evenodd" d="M25.3249 27.4901C25.3249 27.2774 25.1553 27.1051 24.946 27.1051H22.2344C22.0251 27.1051 21.8555 27.2774 21.8555 27.4901C21.8555 27.7027 22.0251 27.8751 22.2344 27.8751H23.2113V28.7595C23.2113 28.9721 23.3809 29.1445 23.5902 29.1445C23.7995 29.1445 23.9691 28.9721 23.9691 28.7595V27.8751H24.946C25.1553 27.8751 25.3249 27.7027 25.3249 27.4901Z" fill="#FFCC00"/>
<path fill-rule="evenodd" clip-rule="evenodd" d="M18.9372 22.5286C19.0112 22.6038 19.1081 22.6414 19.205 22.6414C19.302 22.6414 19.3989 22.6038 19.4729 22.5286C19.6209 22.3782 19.6209 22.1344 19.4729 21.9842L18.7591 21.2589C18.6111 21.1085 18.3712 21.1085 18.2232 21.2589C18.0753 21.4091 18.0753 21.6529 18.2232 21.8033L18.9372 22.5286Z" fill="#FFCC00"/>
<path fill-rule="evenodd" clip-rule="evenodd" d="M18.2295 32.5437C18.3264 32.5437 18.4234 32.5061 18.4974 32.431L19.2112 31.7056C19.3592 31.5553 19.3592 31.3116 19.2112 31.1613C19.0632 31.0109 18.8233 31.0109 18.6754 31.1613L17.9615 31.8866C17.8136 32.0369 17.8136 32.2807 17.9615 32.431C18.0355 32.5061 18.1324 32.5437 18.2295 32.5437Z" fill="#FFCC00"/>
<path fill-rule="evenodd" clip-rule="evenodd" d="M27.9751 22.6415C28.072 22.6415 28.169 22.6039 28.243 22.5287L28.9568 21.8034C29.1048 21.653 29.1048 21.4092 28.9568 21.2589C28.8089 21.1085 28.569 21.1086 28.421 21.2589L27.7072 21.9842C27.5592 22.1345 27.5592 22.3783 27.7071 22.5287C27.7811 22.6039 27.8782 22.6415 27.9751 22.6415Z" fill="#FFCC00"/>
<path fill-rule="evenodd" clip-rule="evenodd" d="M27.9684 31.1613C27.8204 31.3115 27.8204 31.5553 27.9684 31.7056L28.6822 32.431C28.7562 32.5061 28.8532 32.5437 28.9501 32.5437C29.0471 32.5437 29.144 32.5061 29.218 32.431C29.366 32.2807 29.366 32.0369 29.218 31.8866L28.5042 31.1613C28.3562 31.0109 28.1163 31.0109 27.9684 31.1613Z" fill="#FFCC00"/>
<path fill-rule="evenodd" clip-rule="evenodd" d="M29.7915 27.0972H30.801C31.0103 27.0972 31.1799 26.9249 31.1799 26.7123C31.1799 26.4996 31.0103 26.3273 30.801 26.3273H29.7915C29.5822 26.3273 29.4126 26.4996 29.4126 26.7123C29.4126 26.9249 29.5822 27.0972 29.7915 27.0972Z" fill="#FFCC00"/>
<path fill-rule="evenodd" clip-rule="evenodd" d="M23.5898 29.9143C23.3811 29.9143 23.2109 30.0872 23.2109 30.2993C23.2109 30.5113 23.3811 30.6843 23.5898 30.6843C23.7985 30.6843 23.9687 30.5113 23.9687 30.2993C23.9687 30.0872 23.7985 29.9143 23.5898 29.9143Z" fill="#FFCC00"/>
<path fill-rule="evenodd" clip-rule="evenodd" d="M19.205 26.7123C19.205 26.5002 19.0348 26.3273 18.8262 26.3273C18.6173 26.3273 18.4473 26.5002 18.4473 26.7123C18.4473 26.9243 18.6173 27.0972 18.8262 27.0972C19.0348 27.0972 19.205 26.9243 19.205 26.7123Z" fill="#FFCC00"/>
</g>
<defs>
<filter id="filter0_d" x="15" y="18" width="17.1799" height="21.7112" filterUnits="userSpaceOnUse" color-interpolation-filters="sRGB">
<feFlood flood-opacity="0" result="BackgroundImageFix"/>
<feColorMatrix in="SourceAlpha" type="matrix" values="0 0 0 0 0 0 0 0 0 0 0 0 0 0 0 0 0 0 127 0"/>
<feOffset/>
<feGaussianBlur stdDeviation="0.5"/>
<feColorMatrix type="matrix" values="0 0 0 0 1 0 0 0 0 0.8 0 0 0 0 0 0 0 0 1 0"/>
<feBlend mode="normal" in2="BackgroundImageFix" result="effect1_dropShadow"/>
<feBlend mode="normal" in="SourceGraphic" in2="effect1_dropShadow" result="shape"/>
</filter>
</defs>
</svg>
