<svg width="41" height="46" viewBox="0 0 41 46" fill="none" xmlns="http://www.w3.org/2000/svg">
<path fill-rule="evenodd" clip-rule="evenodd" d="M3.52942 0C1.5802 0 0 1.55255 0 3.46771V39.5323C0 41.4474 1.5802 43 3.52942 43H20.4706C22.4198 43 24 41.4474 24 39.5323V3.46771C24 1.55255 22.4198 0 20.4706 0H3.52942ZM13 4H4V13H13V4Z" fill="#333333"/>
<g filter="url(#filter0_d)">
<circle cx="12.5" cy="22.5" r="2.5" fill="#FFCC00"/>
</g>
<path d="M24 21.1532V3.52942C24 1.58018 22.4198 0 20.4706 0H3.52941C1.58329 0 0 1.55563 0 3.46774V39.5323C0 41.4444 1.58329 43 3.52941 43H20.4706C22.4198 43 24 41.4198 24 39.4706V21.1532ZM3.52941 41.6129C2.36188 41.6129 1.41176 40.6794 1.41176 39.5323V37.4516V36.0645V34.6774V33.2903V3.46774C1.41176 2.32061 2.36188 1.3871 3.52941 1.3871H20.4706C21.6381 1.3871 22.5882 2.32061 22.5882 3.46774V39.5323C22.5882 40.6794 21.6381 41.6129 20.4706 41.6129H3.52941Z" fill="#252525"/>
<path d="M12.1765 3.0343H5.11765C3.95012 3.0343 3 3.96782 3 5.11495V12.0504C3 13.1976 3.95012 14.1311 5.11765 14.1311H12.1765C13.344 14.1311 14.2941 13.1976 14.2941 12.0504V5.11495C14.2941 3.96782 13.344 3.0343 12.1765 3.0343ZM12.8824 12.0504C12.8824 12.4326 12.5661 12.744 12.1765 12.744H5.11765C4.728 12.744 4.41176 12.4326 4.41176 12.0504V5.11495C4.41176 4.7328 4.728 4.4214 5.11765 4.4214H12.1765C12.5661 4.4214 12.8824 4.7328 12.8824 5.11495V12.0504Z" fill="#1F1E1E"/>
<rect x="19" y="6" width="20" height="36" fill="white"/>
<path d="M35.6971 3H22.3877C19.9644 3 18 4.96436 18 7.38809V41.6119C18 44.0352 19.9644 46 22.3877 46H35.6971C38.12 46 40.0848 44.0356 40.0848 41.6119V7.38766C40.0848 4.96436 38.12 3 35.6971 3ZM35.2952 5.66086C35.6183 5.66086 35.8806 5.92269 35.8806 6.24625C35.8806 6.56982 35.6183 6.83165 35.2952 6.83165C34.9721 6.83165 34.7098 6.56982 34.7098 6.24625C34.7098 5.92269 34.9721 5.66086 35.2952 5.66086ZM33.1133 6.0866C33.2895 6.0866 33.4326 6.22965 33.4326 6.40591C33.4326 6.58216 33.2895 6.72521 33.1133 6.72521C32.937 6.72521 32.794 6.58216 32.794 6.40591C32.794 6.22965 32.9366 6.0866 33.1133 6.0866ZM32.0758 6.0866C32.252 6.0866 32.3951 6.22965 32.3951 6.40591C32.3951 6.58216 32.252 6.72521 32.0758 6.72521C31.8995 6.72521 31.7565 6.58216 31.7565 6.40591C31.7565 6.22965 31.8995 6.0866 32.0758 6.0866ZM26.594 4.91582H31.4899C31.6368 4.91582 31.756 5.0346 31.756 5.18191C31.756 5.32921 31.6368 5.448 31.4899 5.448H26.594C26.4471 5.448 26.3279 5.32921 26.3279 5.18191C26.3279 5.0346 26.4471 4.91582 26.594 4.91582ZM30.9084 44.8539H27.1764C26.5607 44.8539 26.0622 44.3549 26.0622 43.7398H32.0225C32.0225 44.3549 31.5236 44.8539 30.9084 44.8539ZM38.6449 41.4139H19.4398V7.5852H38.6449V41.4139Z" fill="#1F1E1E"/>
<defs>
<filter id="filter0_d" x="9" y="19" width="7" height="7" filterUnits="userSpaceOnUse" color-interpolation-filters="sRGB">
<feFlood flood-opacity="0" result="BackgroundImageFix"/>
<feColorMatrix in="SourceAlpha" type="matrix" values="0 0 0 0 0 0 0 0 0 0 0 0 0 0 0 0 0 0 127 0"/>
<feOffset/>
<feGaussianBlur stdDeviation="0.5"/>
<feColorMatrix type="matrix" values="0 0 0 0 1 0 0 0 0 0.8 0 0 0 0 0 0 0 0 1 0"/>
<feBlend mode="normal" in2="BackgroundImageFix" result="effect1_dropShadow"/>
<feBlend mode="normal" in="SourceGraphic" in2="effect1_dropShadow" result="shape"/>
</filter>
</defs>
</svg>
