<svg width="43" height="43" viewBox="0 0 43 43" fill="none" xmlns="http://www.w3.org/2000/svg">
<mask id="path-1-inside-1" fill="white">
<path fill-rule="evenodd" clip-rule="evenodd" d="M0 21.5C0 9.62596 9.62596 0 21.5 0C33.3684 0.0134975 42.9865 9.63158 43 21.5C43 33.374 33.374 43 21.5 43C9.62596 43 0 33.374 0 21.5Z"/>
</mask>
<path fill-rule="evenodd" clip-rule="evenodd" d="M0 21.5C0 9.62596 9.62596 0 21.5 0C33.3684 0.0134975 42.9865 9.63158 43 21.5C43 33.374 33.374 43 21.5 43C9.62596 43 0 33.374 0 21.5Z" fill="#333333"/>
<path d="M21.5 0L21.5011 -1H21.5V0ZM43 21.5H44V21.4989L43 21.5ZM21.5 -1C9.07367 -1 -1 9.07367 -1 21.5H1C1 10.1782 10.1782 1 21.5 1V-1ZM44 21.4989C43.9859 9.07905 33.9209 -0.985875 21.5011 -0.999999L21.4989 0.999999C32.8159 1.01287 41.9871 10.1841 42 21.5011L44 21.4989ZM21.5 44C33.9263 44 44 33.9263 44 21.5H42C42 32.8218 32.8218 42 21.5 42V44ZM-1 21.5C-1 33.9263 9.07367 44 21.5 44V42C10.1782 42 1 32.8218 1 21.5H-1Z" fill="#1F1E1E" mask="url(#path-1-inside-1)"/>
<g filter="url(#filter0_d)">
<path fill-rule="evenodd" clip-rule="evenodd" d="M22.1462 9.86367C21.8468 9.38372 21.1488 9.38125 20.8461 9.85906L19.1754 12.4957C18.8514 13.0069 19.2187 13.6745 19.824 13.6745H20.7319V26.5607L17.6605 23.9926V21.0996C18.1195 20.8341 18.4284 20.3378 18.4284 19.7694C18.4284 18.9212 17.7408 18.2337 16.8926 18.2337C16.0445 18.2337 15.3569 18.9212 15.3569 19.7694C15.3569 20.3378 15.6658 20.8341 16.1248 21.0996V23.9926V24.3849C16.1248 24.6218 16.2342 24.8455 16.4212 24.991L16.5567 25.0964L20.7319 28.563V30.7248C20.2729 30.9904 19.9641 31.4867 19.9641 32.0551C19.9641 32.9032 20.6516 33.5908 21.4998 33.5908C22.3479 33.5908 23.0355 32.9032 23.0355 32.0551C23.0355 31.4867 22.7267 30.9904 22.2676 30.7248V25.6374L26.4426 23.6081L26.4429 23.6087C26.7055 23.4919 26.8748 23.2315 26.8748 22.944V22.4569V18.2337C27.2989 18.2337 27.6426 17.8899 27.6426 17.4658V15.9301C27.6426 15.506 27.2989 15.1622 26.8748 15.1622H25.3391C24.915 15.1622 24.5712 15.506 24.5712 15.9301V17.4658C24.5712 17.8899 24.915 18.2337 25.3391 18.2337V22.4369L22.2676 23.9299V13.6745H23.1393C23.7421 13.6745 24.1098 13.0117 23.7908 12.5003L22.1462 9.86367Z" fill="#FFCC00"/>
</g>
<defs>
<filter id="filter0_d" x="14.3569" y="8.5022" width="14.2857" height="26.0886" filterUnits="userSpaceOnUse" color-interpolation-filters="sRGB">
<feFlood flood-opacity="0" result="BackgroundImageFix"/>
<feColorMatrix in="SourceAlpha" type="matrix" values="0 0 0 0 0 0 0 0 0 0 0 0 0 0 0 0 0 0 127 0"/>
<feOffset/>
<feGaussianBlur stdDeviation="0.5"/>
<feColorMatrix type="matrix" values="0 0 0 0 1 0 0 0 0 0.8 0 0 0 0 0 0 0 0 1 0"/>
<feBlend mode="normal" in2="BackgroundImageFix" result="effect1_dropShadow"/>
<feBlend mode="normal" in="SourceGraphic" in2="effect1_dropShadow" result="shape"/>
</filter>
</defs>
</svg>
