<svg width="376" height="71" viewBox="0 0 376 71" fill="none" xmlns="http://www.w3.org/2000/svg">
<g filter="url(#filter0_d)">
<rect x="4" width="368" height="63" rx="31.5" fill="white"/>
</g>
<g filter="url(#filter1_d)">
<rect x="4" width="368" height="63" rx="31.5" fill="#333333"/>
</g>
<path d="M147.391 22.36H152.235L154.755 30.396C154.867 30.7507 154.979 31.1333 155.091 31.544C155.222 31.9547 155.343 32.3653 155.455 32.776C155.567 33.1867 155.67 33.588 155.763 33.98C155.856 34.372 155.931 34.736 155.987 35.072H156.099C156.155 34.7733 156.23 34.428 156.323 34.036C156.416 33.6253 156.519 33.2053 156.631 32.776C156.743 32.3467 156.855 31.9267 156.967 31.516C157.079 31.1053 157.182 30.732 157.275 30.396L159.711 22.36H164.555L165.871 40H162.259C162.147 38.0587 162.035 36.1173 161.923 34.176C161.811 32.2347 161.736 30.2747 161.699 28.296L161.671 26H161.587C161.344 27.0267 161.074 28.1 160.775 29.22C160.495 30.34 160.224 31.32 159.963 32.16L157.471 40H154.503L151.955 32.132C151.638 31.124 151.339 30.06 151.059 28.94C150.779 27.82 150.555 26.84 150.387 26H150.303C150.303 26.672 150.294 27.3813 150.275 28.128C150.256 28.856 150.228 29.584 150.191 30.312C150.172 31.04 150.144 31.7587 150.107 32.468C150.088 33.1587 150.06 33.7933 150.023 34.372L149.687 40H146.131L147.391 22.36ZM177.575 22.052C178.826 22.052 179.983 22.2573 181.047 22.668C182.111 23.0787 183.026 23.676 183.791 24.46C184.556 25.2253 185.154 26.1773 185.583 27.316C186.031 28.4547 186.255 29.752 186.255 31.208C186.255 32.6267 186.031 33.896 185.583 35.016C185.135 36.136 184.519 37.088 183.735 37.872C182.951 38.656 182.018 39.2627 180.935 39.692C179.871 40.1027 178.714 40.308 177.463 40.308C176.212 40.308 175.055 40.112 173.991 39.72C172.927 39.3093 172.012 38.7213 171.247 37.956C170.482 37.172 169.875 36.22 169.427 35.1C168.998 33.9613 168.783 32.664 168.783 31.208C168.783 29.7893 169.007 28.52 169.455 27.4C169.903 26.2613 170.519 25.3 171.303 24.516C172.087 23.7133 173.011 23.1067 174.075 22.696C175.158 22.2667 176.324 22.052 177.575 22.052ZM172.843 31.208C172.843 32.2533 172.964 33.168 173.207 33.952C173.468 34.7173 173.814 35.3613 174.243 35.884C174.672 36.388 175.167 36.7707 175.727 37.032C176.306 37.2747 176.922 37.396 177.575 37.396C178.21 37.396 178.807 37.2747 179.367 37.032C179.946 36.7707 180.44 36.388 180.851 35.884C181.262 35.3613 181.588 34.7173 181.831 33.952C182.074 33.168 182.195 32.2533 182.195 31.208C182.195 30.1253 182.064 29.192 181.803 28.408C181.56 27.624 181.224 26.98 180.795 26.476C180.366 25.9533 179.862 25.5707 179.283 25.328C178.723 25.0853 178.116 24.964 177.463 24.964C176.81 24.964 176.203 25.0947 175.643 25.356C175.083 25.6173 174.598 26.0093 174.187 26.532C173.776 27.036 173.45 27.68 173.207 28.464C172.964 29.248 172.843 30.1627 172.843 31.208ZM195.61 22.36C197.477 22.36 198.951 22.7613 200.034 23.564C201.117 24.3667 201.658 25.496 201.658 26.952C201.658 27.4933 201.555 27.9787 201.35 28.408C201.163 28.8373 200.911 29.2107 200.594 29.528C200.295 29.8267 199.95 30.0787 199.558 30.284C199.185 30.4893 198.802 30.6387 198.41 30.732C198.933 30.8253 199.418 30.984 199.866 31.208C200.333 31.4133 200.734 31.6933 201.07 32.048C201.425 32.4027 201.695 32.832 201.882 33.336C202.087 33.8213 202.19 34.3813 202.19 35.016C202.19 35.744 202.031 36.416 201.714 37.032C201.397 37.6293 200.939 38.152 200.342 38.6C199.763 39.048 199.054 39.3933 198.214 39.636C197.393 39.8787 196.478 40 195.47 40H189.31V22.36H195.61ZM193.146 29.416H194.966C195.806 29.416 196.469 29.2387 196.954 28.884C197.458 28.5107 197.71 27.96 197.71 27.232C197.71 26.5787 197.477 26.0933 197.01 25.776C196.562 25.44 195.909 25.272 195.05 25.272H193.146V29.416ZM193.146 37.088H194.966C195.918 37.088 196.702 36.9107 197.318 36.556C197.934 36.1827 198.242 35.548 198.242 34.652C198.242 33.812 197.915 33.2147 197.262 32.86C196.609 32.4867 195.806 32.3 194.854 32.3H193.146V37.088ZM209.115 22.36V40H205.279V22.36H209.115ZM225.057 22.36V25.384H220.073V40H216.237V25.384H211.365V22.36H225.057ZM227.236 22.36H238.716V25.328H231.072V29.36H237.988V32.3H231.072V37.032H238.8V40H227.236V22.36ZM241.701 40V22.36H245.537V29.78L251.613 22.36H256.373L249.793 30.06L256.933 40H252.201L246.993 32.468L245.537 34.008V40H241.701ZM277.338 22.36V25.384H272.354V40H268.518V25.384H263.646V22.36H277.338ZM281.813 22.36L284.753 31.376C284.846 31.6747 284.958 32.0387 285.089 32.468C285.22 32.8787 285.35 33.308 285.481 33.756C285.612 34.204 285.733 34.652 285.845 35.1C285.976 35.548 286.078 35.9493 286.153 36.304H286.237C286.386 35.5947 286.601 34.7827 286.881 33.868C287.18 32.9347 287.45 32.0947 287.693 31.348L290.661 22.36H294.609L288.309 40H284.137L277.753 22.36H281.813Z" fill="white"/>
<path fill-rule="evenodd" clip-rule="evenodd" d="M125.12 15.084C127.289 15.668 128.998 17.3776 129.582 19.5464C130.666 23.5077 130.625 31.7645 130.625 31.7645C130.625 31.7645 130.625 39.9792 129.582 43.9409C128.998 46.1094 127.289 47.819 125.12 48.4027C121.158 49.4456 105.312 49.4456 105.312 49.4456C105.312 49.4456 89.5076 49.4456 85.5046 48.3613C83.3359 47.7773 81.6265 46.0676 81.0425 43.8992C80 39.9792 80 31.7228 80 31.7228C80 31.7228 80 23.5077 81.0425 19.5464C81.6259 17.3779 83.3776 15.6262 85.5043 15.0428C89.4659 14 105.312 14 105.312 14C105.312 14 121.158 14 125.12 15.084Z" fill="white"/>
<g filter="url(#filter2_d)">
<path d="M113.339 31.6997L100.339 39.2595L100.339 24.1997L113.339 31.6997Z" fill="#333333"/>
</g>
<defs>
<filter id="filter0_d" x="0" y="0" width="376" height="71" filterUnits="userSpaceOnUse" color-interpolation-filters="sRGB">
<feFlood flood-opacity="0" result="BackgroundImageFix"/>
<feColorMatrix in="SourceAlpha" type="matrix" values="0 0 0 0 0 0 0 0 0 0 0 0 0 0 0 0 0 0 127 0"/>
<feOffset dy="4"/>
<feGaussianBlur stdDeviation="2"/>
<feColorMatrix type="matrix" values="0 0 0 0 0 0 0 0 0 0 0 0 0 0 0 0 0 0 0.25 0"/>
<feBlend mode="normal" in2="BackgroundImageFix" result="effect1_dropShadow"/>
<feBlend mode="normal" in="SourceGraphic" in2="effect1_dropShadow" result="shape"/>
</filter>
<filter id="filter1_d" x="0" y="0" width="376" height="71" filterUnits="userSpaceOnUse" color-interpolation-filters="sRGB">
<feFlood flood-opacity="0" result="BackgroundImageFix"/>
<feColorMatrix in="SourceAlpha" type="matrix" values="0 0 0 0 0 0 0 0 0 0 0 0 0 0 0 0 0 0 127 0"/>
<feOffset dy="4"/>
<feGaussianBlur stdDeviation="2"/>
<feColorMatrix type="matrix" values="0 0 0 0 0 0 0 0 0 0 0 0 0 0 0 0 0 0 0.25 0"/>
<feBlend mode="normal" in2="BackgroundImageFix" result="effect1_dropShadow"/>
<feBlend mode="normal" in="SourceGraphic" in2="effect1_dropShadow" result="shape"/>
</filter>
<filter id="filter2_d" x="99.3389" y="23.1997" width="15" height="17.0598" filterUnits="userSpaceOnUse" color-interpolation-filters="sRGB">
<feFlood flood-opacity="0" result="BackgroundImageFix"/>
<feColorMatrix in="SourceAlpha" type="matrix" values="0 0 0 0 0 0 0 0 0 0 0 0 0 0 0 0 0 0 127 0"/>
<feOffset/>
<feGaussianBlur stdDeviation="0.5"/>
<feColorMatrix type="matrix" values="0 0 0 0 1 0 0 0 0 0.8 0 0 0 0 0 0 0 0 1 0"/>
<feBlend mode="normal" in2="BackgroundImageFix" result="effect1_dropShadow"/>
<feBlend mode="normal" in="SourceGraphic" in2="effect1_dropShadow" result="shape"/>
</filter>
</defs>
</svg>
