<svg width="216" height="47" viewBox="0 0 216 47" fill="none" xmlns="http://www.w3.org/2000/svg">
<path d="M67.3909 14.36H72.2349L74.7549 22.396C74.8669 22.7507 74.9789 23.1333 75.0909 23.544C75.2215 23.9547 75.3429 24.3653 75.4549 24.776C75.5669 25.1867 75.6695 25.588 75.7629 25.98C75.8562 26.372 75.9309 26.736 75.9869 27.072H76.0989C76.1549 26.7733 76.2295 26.428 76.3229 26.036C76.4162 25.6253 76.5189 25.2053 76.6309 24.776C76.7429 24.3467 76.8549 23.9267 76.9669 23.516C77.0789 23.1053 77.1815 22.732 77.2749 22.396L79.7109 14.36H84.5549L85.8709 32H82.2589C82.1469 30.0587 82.0349 28.1173 81.9229 26.176C81.8109 24.2347 81.7362 22.2747 81.6989 20.296L81.6709 18H81.5869C81.3442 19.0267 81.0735 20.1 80.7749 21.22C80.4949 22.34 80.2242 23.32 79.9629 24.16L77.4709 32H74.5029L71.9549 24.132C71.6375 23.124 71.3389 22.06 71.0589 20.94C70.7789 19.82 70.5549 18.84 70.3869 18H70.3029C70.3029 18.672 70.2935 19.3813 70.2749 20.128C70.2562 20.856 70.2282 21.584 70.1909 22.312C70.1722 23.04 70.1442 23.7587 70.1069 24.468C70.0882 25.1587 70.0602 25.7933 70.0229 26.372L69.6869 32H66.1309L67.3909 14.36ZM97.5751 14.052C98.8258 14.052 99.9831 14.2573 101.047 14.668C102.111 15.0787 103.026 15.676 103.791 16.46C104.556 17.2253 105.154 18.1773 105.583 19.316C106.031 20.4547 106.255 21.752 106.255 23.208C106.255 24.6267 106.031 25.896 105.583 27.016C105.135 28.136 104.519 29.088 103.735 29.872C102.951 30.656 102.018 31.2627 100.935 31.692C99.8711 32.1027 98.7138 32.308 97.4631 32.308C96.2124 32.308 95.0551 32.112 93.9911 31.72C92.9271 31.3093 92.0124 30.7213 91.2471 29.956C90.4818 29.172 89.8751 28.22 89.4271 27.1C88.9978 25.9613 88.7831 24.664 88.7831 23.208C88.7831 21.7893 89.0071 20.52 89.4551 19.4C89.9031 18.2613 90.5191 17.3 91.3031 16.516C92.0871 15.7133 93.0111 15.1067 94.0751 14.696C95.1578 14.2667 96.3244 14.052 97.5751 14.052ZM92.8431 23.208C92.8431 24.2533 92.9644 25.168 93.2071 25.952C93.4684 26.7173 93.8138 27.3613 94.2431 27.884C94.6724 28.388 95.1671 28.7707 95.7271 29.032C96.3058 29.2747 96.9218 29.396 97.5751 29.396C98.2098 29.396 98.8071 29.2747 99.3671 29.032C99.9458 28.7707 100.44 28.388 100.851 27.884C101.262 27.3613 101.588 26.7173 101.831 25.952C102.074 25.168 102.195 24.2533 102.195 23.208C102.195 22.1253 102.064 21.192 101.803 20.408C101.56 19.624 101.224 18.98 100.795 18.476C100.366 17.9533 99.8618 17.5707 99.2831 17.328C98.7231 17.0853 98.1164 16.964 97.4631 16.964C96.8098 16.964 96.2031 17.0947 95.6431 17.356C95.0831 17.6173 94.5978 18.0093 94.1871 18.532C93.7764 19.036 93.4498 19.68 93.2071 20.464C92.9644 21.248 92.8431 22.1627 92.8431 23.208ZM115.61 14.36C117.477 14.36 118.951 14.7613 120.034 15.564C121.117 16.3667 121.658 17.496 121.658 18.952C121.658 19.4933 121.555 19.9787 121.35 20.408C121.163 20.8373 120.911 21.2107 120.594 21.528C120.295 21.8267 119.95 22.0787 119.558 22.284C119.185 22.4893 118.802 22.6387 118.41 22.732C118.933 22.8253 119.418 22.984 119.866 23.208C120.333 23.4133 120.734 23.6933 121.07 24.048C121.425 24.4027 121.695 24.832 121.882 25.336C122.087 25.8213 122.19 26.3813 122.19 27.016C122.19 27.744 122.031 28.416 121.714 29.032C121.397 29.6293 120.939 30.152 120.342 30.6C119.763 31.048 119.054 31.3933 118.214 31.636C117.393 31.8787 116.478 32 115.47 32H109.31V14.36H115.61ZM113.146 21.416H114.966C115.806 21.416 116.469 21.2387 116.954 20.884C117.458 20.5107 117.71 19.96 117.71 19.232C117.71 18.5787 117.477 18.0933 117.01 17.776C116.562 17.44 115.909 17.272 115.05 17.272H113.146V21.416ZM113.146 29.088H114.966C115.918 29.088 116.702 28.9107 117.318 28.556C117.934 28.1827 118.242 27.548 118.242 26.652C118.242 25.812 117.915 25.2147 117.262 24.86C116.609 24.4867 115.806 24.3 114.854 24.3H113.146V29.088ZM129.115 14.36V32H125.279V14.36H129.115ZM145.057 14.36V17.384H140.073V32H136.237V17.384H131.365V14.36H145.057ZM147.236 14.36H158.716V17.328H151.072V21.36H157.988V24.3H151.072V29.032H158.8V32H147.236V14.36ZM161.701 32V14.36H165.537V21.78L171.613 14.36H176.373L169.793 22.06L176.933 32H172.201L166.993 24.468L165.537 26.008V32H161.701ZM197.338 14.36V17.384H192.354V32H188.518V17.384H183.646V14.36H197.338ZM201.813 14.36L204.753 23.376C204.846 23.6747 204.958 24.0387 205.089 24.468C205.22 24.8787 205.35 25.308 205.481 25.756C205.612 26.204 205.733 26.652 205.845 27.1C205.976 27.548 206.078 27.9493 206.153 28.304H206.237C206.386 27.5947 206.601 26.7827 206.881 25.868C207.18 24.9347 207.45 24.0947 207.693 23.348L210.661 14.36H214.609L208.309 32H204.137L197.753 14.36H201.813Z" fill="#333333"/>
<path fill-rule="evenodd" clip-rule="evenodd" d="M45.12 7.08398C47.2885 7.66797 48.9985 9.37756 49.5818 11.5464C50.6664 15.5077 50.6247 23.7645 50.6247 23.7645C50.6247 23.7645 50.6247 31.9792 49.5825 35.9409C48.9985 38.1094 47.2888 39.819 45.12 40.4027C41.1584 41.4456 25.3125 41.4456 25.3125 41.4456C25.3125 41.4456 9.50763 41.4456 5.50464 40.3613C3.33588 39.7773 1.62653 38.0676 1.04254 35.8992C0 31.9792 0 23.7228 0 23.7228C0 23.7228 0 15.5077 1.04254 11.5464C1.62592 9.37793 3.37756 7.62622 5.50433 7.04285C9.46594 6 25.3119 6 25.3119 6C25.3119 6 41.1584 6 45.12 7.08398Z" fill="#333333"/>
<g filter="url(#filter0_d)">
<path d="M33.3389 23.6997L20.3389 31.2595L20.3389 16.1997L33.3389 23.6997Z" fill="#FFCC00"/>
</g>
<defs>
<filter id="filter0_d" x="19.3389" y="15.1997" width="15" height="17.0598" filterUnits="userSpaceOnUse" color-interpolation-filters="sRGB">
<feFlood flood-opacity="0" result="BackgroundImageFix"/>
<feColorMatrix in="SourceAlpha" type="matrix" values="0 0 0 0 0 0 0 0 0 0 0 0 0 0 0 0 0 0 127 0"/>
<feOffset/>
<feGaussianBlur stdDeviation="0.5"/>
<feColorMatrix type="matrix" values="0 0 0 0 1 0 0 0 0 0.8 0 0 0 0 0 0 0 0 1 0"/>
<feBlend mode="normal" in2="BackgroundImageFix" result="effect1_dropShadow"/>
<feBlend mode="normal" in="SourceGraphic" in2="effect1_dropShadow" result="shape"/>
</filter>
</defs>
</svg>
