<svg width="1440" height="595" viewBox="0 0 1440 595" fill="none" xmlns="http://www.w3.org/2000/svg">
<g style="mix-blend-mode:multiply" opacity="0.2">
<path d="M426.447 360.007H422.623V363.831H426.447V360.007Z" fill="#444444"/>
</g>
<path d="M719.988 312.676C225.375 314.816 0 0 0 0V595H1440V0C1440 0 1214.62 310.535 719.988 312.676Z" fill="#FFCC00"/>
<path d="M820.641 495.197H620.513C619.703 495.146 618.891 495.261 618.127 495.535C617.363 495.81 616.663 496.238 616.071 496.794C615.479 497.349 615.007 498.02 614.684 498.765C614.362 499.511 614.195 500.314 614.195 501.126C614.195 501.938 614.362 502.741 614.684 503.486C615.007 504.231 615.479 504.902 616.071 505.458C616.663 506.014 617.363 506.442 618.127 506.716C618.891 506.991 619.703 507.106 620.513 507.054H820.545C822.052 506.958 823.466 506.292 824.499 505.191C825.532 504.09 826.107 502.636 826.107 501.126C826.107 499.616 825.532 498.162 824.499 497.061C823.466 495.96 822.052 495.293 820.545 495.197H820.641Z" fill="#E2B548"/>
<path d="M649.88 339.901H638.264V491.951H649.88V339.901Z" fill="#E8E8E8"/>
<path d="M802.939 339.901H791.323V491.951H802.939V339.901Z" fill="#E8E8E8"/>
<path d="M826.558 354.572H614.669V392.476H826.558V354.572Z" fill="#FFCD26"/>
<path d="M638.648 354.572L638.263 355.197L616.497 392.5H614.669V354.572H638.648Z" fill="#444444"/>
<path d="M692.209 354.572L670.034 392.5H641.077L649.904 377.42L663.252 354.572H692.209Z" fill="#444444"/>
<path d="M745.722 354.572L723.571 392.5H694.614L716.789 354.572H745.722Z" fill="#444444"/>
<path d="M799.26 354.596L777.109 392.5H748.152L770.327 354.596H799.26Z" fill="#444444"/>
<path d="M826.557 354.596V392.5H801.689L823.864 354.596H826.557Z" fill="#444444"/>
<path d="M826.558 422.395H614.669V460.276H826.558V422.395Z" fill="#FFCD26"/>
<path d="M638.648 422.395L638.263 423.021L616.497 460.276H614.669V422.395H638.648Z" fill="#444444"/>
<path d="M692.209 422.395L670.034 460.276H641.077L649.904 445.22L663.252 422.395H692.209Z" fill="#444444"/>
<path d="M745.722 422.395L723.571 460.276H694.614L716.789 422.395H745.722Z" fill="#444444"/>
<path d="M799.26 422.395L777.109 460.3H748.152L770.327 422.395H799.26Z" fill="#444444"/>
<path d="M826.557 422.395V460.3H801.689L823.864 422.395H826.557Z" fill="#444444"/>
<path d="M810.516 491.951H783.723V499.503H810.516V491.951Z" fill="#AEAEAE"/>
<path d="M657.504 491.951H630.711V499.527H657.504V491.951Z" fill="#AEAEAE"/>
<path d="M655.892 333.672C655.843 335.583 655.254 337.441 654.195 339.033C653.135 340.624 651.648 341.884 649.904 342.667C648.091 343.537 646.106 343.989 644.095 343.989C642.085 343.989 640.1 343.537 638.287 342.667C636.549 341.878 635.068 340.616 634.014 339.025C632.959 337.435 632.373 335.58 632.323 333.672C632.323 327.972 637.59 323.378 644.107 323.378C650.625 323.378 655.892 327.972 655.892 333.672Z" fill="#FAA436"/>
<path d="M808.928 333.672C808.928 339.372 803.661 343.99 797.143 343.99C790.626 343.99 785.334 339.372 785.334 333.672C785.334 327.972 790.626 323.378 797.143 323.378C803.661 323.378 808.928 327.996 808.928 333.672Z" fill="#FAA436"/>
<g style="mix-blend-mode:multiply" opacity="0.3">
<path d="M649.904 392.476V422.371H720.181V460.252H649.904V491.927H657.504V499.503H630.711V491.927H638.287V460.276H614.669V422.396H638.287V392.476H614.669V354.572H638.287V342.667C636.55 341.878 635.069 340.616 634.014 339.025C632.959 337.435 632.373 335.58 632.323 333.672C632.323 327.972 637.59 323.378 644.108 323.378C650.626 323.378 655.893 327.972 655.893 333.672C655.843 335.583 655.254 337.441 654.195 339.033C653.135 340.624 651.648 341.884 649.904 342.667V354.572H720.181V392.476H649.904Z" fill="#444444"/>
</g>
<path d="M1120.41 507.055H810.516C809.744 507.004 808.97 507.113 808.242 507.373C807.514 507.634 806.848 508.041 806.283 508.57C805.719 509.098 805.269 509.737 804.962 510.447C804.654 511.156 804.495 511.921 804.495 512.694C804.495 513.468 804.654 514.233 804.962 514.942C805.269 515.652 805.719 516.291 806.283 516.819C806.848 517.348 807.514 517.755 808.242 518.016C808.97 518.276 809.744 518.385 810.516 518.334H1120.41C1121.18 518.385 1121.96 518.276 1122.69 518.016C1123.41 517.755 1124.08 517.348 1124.64 516.819C1125.21 516.291 1125.66 515.652 1125.97 514.942C1126.27 514.233 1126.43 513.468 1126.43 512.694C1126.43 511.921 1126.27 511.156 1125.97 510.447C1125.66 509.737 1125.21 509.098 1124.64 508.57C1124.08 508.041 1123.41 507.634 1122.69 507.373C1121.96 507.113 1121.18 507.004 1120.41 507.055Z" fill="#E2B548"/>
<path d="M1057.69 336.438L1010.86 181.429L1010.5 180.251H918.744L919.081 181.429L923.458 195.86L933.992 230.758L936.614 239.464L949.842 283.189L952.488 291.919L960.665 319.001L965.018 333.431L1019.76 514.703H1028.49L1021.66 492.071H1096L1102.83 514.703H1111.56L1057.69 336.438ZM930 188.981H1004.41L1006.48 195.86L1017.04 230.806H942.627L930 188.981ZM945.272 239.488H1019.76L1032.99 283.213H958.476L945.272 239.488ZM969.323 319.001L964.97 304.57L961.146 291.919H1035.54L1048.02 333.119H1040.8C1032.99 333.119 1022.57 333.119 1012.21 333.119L973.724 333.335L969.323 319.001ZM976.274 342.065C1003.96 341.873 1040.68 341.705 1050.64 341.921L1063.51 384.443H989.045L976.274 342.065ZM991.739 393.15H1066.13L1078.95 435.503H1004.39L991.739 393.15ZM1018.96 483.34L1007.16 444.234H1081.57L1093.38 483.34H1018.96Z" fill="#AEAEAE"/>
<path d="M919.346 180.251L918.985 181.429L872.206 336.389L818.332 514.655H827.062L833.917 492.023H908.306L901.476 514.655H910.206L964.946 333.431L969.323 319.001L977.501 291.943L980.122 283.213L993.302 239.512L995.924 230.806L1006.46 195.86L1010.84 181.429L1011.2 180.251H919.346ZM910.928 483.292H836.514L848.323 444.186H922.737L910.928 483.292ZM925.358 435.455H850.945L863.764 393.101H938.153L925.358 435.455ZM940.775 384.395H866.386L879.229 341.969C889.21 341.753 925.935 341.969 953.594 342.114L940.775 384.395ZM964.826 304.546L960.449 318.977L956.119 333.407L917.638 333.191C907.248 333.191 896.834 333.191 889.041 333.191H881.826L894.284 291.991H968.698L964.826 304.546ZM971.271 283.165H896.954L910.182 239.44H984.596L971.271 283.165ZM987.121 230.734H912.563L923.122 195.836L925.214 188.909H999.627L987.121 230.734Z" fill="#E8E8E8"/>
<path d="M1089.12 528.628H966.197C964.647 528.628 963.161 529.244 962.065 530.34C960.969 531.436 960.353 532.923 960.353 534.473C960.353 536.023 960.969 537.509 962.065 538.605C963.161 539.701 964.647 540.317 966.197 540.317H1041.84C1042.92 540.315 1043.98 540.01 1044.9 539.436C1045.82 538.862 1046.56 538.043 1047.03 537.07H1089.12C1089.7 537.114 1090.29 537.037 1090.84 536.845C1091.39 536.653 1091.89 536.349 1092.32 535.953C1092.75 535.557 1093.09 535.077 1093.32 534.543C1093.55 534.008 1093.67 533.432 1093.67 532.849C1093.67 532.266 1093.55 531.69 1093.32 531.156C1093.09 530.622 1092.75 530.142 1092.32 529.745C1091.89 529.349 1091.39 529.045 1090.84 528.853C1090.29 528.661 1089.7 528.584 1089.12 528.628Z" fill="#E2B548"/>
<path d="M1083.71 462.873V529.566C1083.7 530.104 1083.49 530.618 1083.1 530.996C1082.72 531.374 1082.2 531.587 1081.67 531.586H1021.32C1020.79 531.58 1020.28 531.365 1019.91 530.986C1019.54 530.608 1019.33 530.098 1019.33 529.566V462.873H1083.71Z" fill="#E8E8E8"/>
<path d="M1082.44 462.849H1080.03C1080.03 455.31 1077.04 448.079 1071.7 442.747C1066.37 437.416 1059.14 434.421 1051.6 434.421C1044.06 434.421 1036.83 437.416 1031.5 442.747C1026.17 448.079 1023.17 455.31 1023.17 462.849H1020.77C1020.77 454.646 1024.03 446.779 1029.83 440.979C1035.63 435.178 1043.5 431.92 1051.7 431.92C1059.9 431.92 1067.77 435.178 1073.57 440.979C1079.37 446.779 1082.63 454.646 1082.63 462.849H1082.44Z" fill="#E8E8E8"/>
<path d="M1083.71 462.873V475.837C1081.71 476.366 1079.14 474.514 1076.78 474.105C1075.76 473.96 1074.71 474.109 1073.77 474.535C1072.82 474.961 1072.02 475.645 1071.44 476.51C1070.34 478.29 1070.34 480.743 1068.68 482.042C1067.69 482.586 1066.57 482.841 1065.44 482.777C1064.31 482.713 1063.23 482.333 1062.3 481.681C1060.5 480.344 1058.41 479.446 1056.2 479.059C1055.32 479.041 1054.46 479.202 1053.65 479.533C1052.84 479.864 1052.11 480.358 1051.51 480.983C1050.88 481.557 1050.35 482.222 1049.92 482.956C1048.81 485.218 1048.12 487.662 1047.87 490.171C1047.54 492.047 1046.96 494.211 1045.16 494.981C1044.08 495.353 1042.91 495.353 1041.84 494.981C1039.95 494.411 1038.24 493.387 1036.84 491.999C1035.44 490.611 1034.41 488.901 1033.83 487.02C1032.67 483.196 1033.03 478.097 1029.33 476.293C1027.59 475.773 1025.79 475.459 1023.97 475.355C1022.14 475.019 1020.49 474.037 1019.33 472.59V462.969L1083.71 462.873Z" fill="#FAA436"/>
<g style="mix-blend-mode:multiply" opacity="0.2">
<path d="M1051.51 431.92V434.445C1043.97 434.445 1036.74 437.437 1031.41 442.763C1026.08 448.089 1023.08 455.314 1023.08 462.849H1020.67C1020.69 454.667 1023.93 446.822 1029.71 441.027C1035.49 435.232 1043.32 431.958 1051.51 431.92Z" fill="#444444"/>
</g>
<g style="mix-blend-mode:multiply" opacity="0.2">
<path d="M1019.33 462.873H1051.51V531.683H1021.32C1020.79 531.676 1020.28 531.461 1019.91 531.083C1019.54 530.704 1019.33 530.194 1019.33 529.662V462.873Z" fill="#444444"/>
</g>
<path d="M1035.87 467.491V533.679C1035.87 533.943 1035.82 534.205 1035.72 534.448C1035.62 534.692 1035.47 534.913 1035.28 535.099C1035.09 535.285 1034.87 535.431 1034.62 535.53C1034.38 535.629 1034.12 535.678 1033.85 535.675H974.062C973.533 535.675 973.025 535.465 972.651 535.09C972.276 534.716 972.066 534.208 972.066 533.679V467.491H1035.87Z" fill="#E8E8E8"/>
<path d="M1034.62 467.491H1032.22C1032.22 460.021 1029.25 452.858 1023.97 447.576C1018.69 442.294 1011.52 439.327 1004.05 439.327C996.584 439.327 989.42 442.294 984.139 447.576C978.857 452.858 975.89 460.021 975.89 467.491H973.485C973.485 459.364 976.713 451.571 982.459 445.824C988.205 440.078 995.999 436.85 1004.13 436.85C1012.25 436.85 1020.05 440.078 1025.79 445.824C1031.54 451.571 1034.77 459.364 1034.77 467.491H1034.62Z" fill="#E8E8E8"/>
<path d="M1035.87 467.491V480.334C1033.9 480.863 1031.35 479.011 1029.02 478.626C1028 478.479 1026.96 478.628 1026.02 479.054C1025.08 479.48 1024.29 480.167 1023.73 481.032C1022.62 482.787 1022.62 485.192 1020.99 486.491C1020.01 487.032 1018.9 487.288 1017.79 487.229C1016.67 487.169 1015.6 486.797 1014.68 486.154C1012.89 484.824 1010.82 483.926 1008.62 483.533C1007.75 483.515 1006.89 483.676 1006.09 484.007C1005.29 484.338 1004.56 484.832 1003.96 485.457C1003.34 486.024 1002.81 486.68 1002.39 487.405C1001.3 489.671 1000.61 492.114 1000.37 494.62C1000.04 496.472 999.46 498.613 997.68 499.43C996.623 499.813 995.466 499.813 994.409 499.43C992.544 498.863 990.845 497.851 989.458 496.481C988.071 495.11 987.038 493.424 986.448 491.566C985.318 487.766 985.678 482.715 981.999 480.911C980.269 480.399 978.485 480.092 976.683 479.997C974.872 479.666 973.241 478.693 972.09 477.256V467.635L1035.87 467.491Z" fill="#FFCD26"/>
<g style="mix-blend-mode:multiply" opacity="0.2">
<path d="M975.818 467.491H1003.96V535.675H974.062C973.533 535.675 973.025 535.465 972.651 535.09C972.276 534.716 972.066 534.208 972.066 533.679V467.491H973.317C973.323 459.37 976.55 451.584 982.29 445.84C988.029 440.096 995.813 436.863 1003.93 436.85V439.255C996.462 439.274 989.303 442.259 984.031 447.553C978.759 452.848 975.805 460.019 975.818 467.491Z" fill="#444444"/>
</g>
<path d="M604.615 499.527H390.731C389.808 499.472 388.883 499.606 388.014 499.921C387.145 500.237 386.349 500.726 385.676 501.36C385.003 501.995 384.467 502.76 384.1 503.608C383.734 504.457 383.545 505.372 383.545 506.297C383.545 507.222 383.734 508.137 384.1 508.985C384.467 509.834 385.003 510.599 385.676 511.234C386.349 511.868 387.145 512.357 388.014 512.673C388.883 512.988 389.808 513.122 390.731 513.067H604.615C605.538 513.122 606.463 512.988 607.332 512.673C608.201 512.357 608.997 511.868 609.67 511.234C610.343 510.599 610.879 509.834 611.246 508.985C611.612 508.137 611.801 507.222 611.801 506.297C611.801 505.372 611.612 504.457 611.246 503.608C610.879 502.76 610.343 501.995 609.67 501.36C608.997 500.726 608.201 500.237 607.332 499.921C606.463 499.606 605.538 499.472 604.615 499.527Z" fill="#E2B548"/>
<path d="M463.726 214.644H453.24V497.314H463.726V214.644Z" fill="#E8E8E8"/>
<path d="M461.369 224.745C495.028 224.745 522.314 197.459 522.314 163.8C522.314 130.141 495.028 102.855 461.369 102.855C427.71 102.855 400.424 130.141 400.424 163.8C400.424 197.459 427.71 224.745 461.369 224.745Z" fill="#FFCD26"/>
<path d="M513.12 171.876C517.581 143.292 498.025 116.503 469.441 112.043C440.856 107.582 414.068 127.138 409.607 155.722C405.146 184.306 424.702 211.095 453.286 215.555C481.871 220.016 508.659 200.46 513.12 171.876Z" fill="#FFCD26"/>
<path d="M461.369 217.698C450.703 217.698 440.277 214.535 431.409 208.609C422.541 202.683 415.629 194.26 411.549 184.406C407.468 174.551 406.402 163.708 408.484 153.248C410.567 142.787 415.705 133.179 423.249 125.639C430.792 118.099 440.402 112.965 450.864 110.887C461.325 108.809 472.168 109.881 482.02 113.965C491.873 118.05 500.293 124.965 506.215 133.836C512.137 142.707 515.296 153.134 515.291 163.8C515.272 178.093 509.584 191.795 499.475 201.899C489.366 212.004 475.662 217.685 461.369 217.698ZM461.369 112.932C451.31 112.942 441.48 115.933 433.121 121.529C424.762 127.124 418.25 135.072 414.407 144.367C410.565 153.663 409.564 163.889 411.532 173.753C413.501 183.618 418.349 192.677 425.465 199.786C432.581 206.895 441.645 211.735 451.511 213.694C461.377 215.653 471.602 214.643 480.894 210.791C490.186 206.94 498.128 200.42 503.715 192.056C509.302 183.692 512.284 173.859 512.284 163.8C512.272 150.305 506.902 137.366 497.355 127.828C487.807 118.29 474.864 112.932 461.369 112.932Z" fill="#444444"/>
<path d="M497.854 152.352L493.525 148.047C493.078 148.473 492.484 148.711 491.866 148.711C491.248 148.711 490.653 148.473 490.206 148.047L489.629 147.47L490.735 146.387C490.888 146.234 490.974 146.026 490.974 145.81C490.974 145.594 490.888 145.386 490.735 145.233L479.672 134.193C479.672 134.193 471.35 127.988 463.774 132.414L465.915 134.314C468.455 134.205 470.983 134.725 473.274 135.829C473.631 136.021 473.938 136.295 474.167 136.629C474.397 136.963 474.544 137.347 474.596 137.749C474.648 138.151 474.603 138.56 474.465 138.941C474.327 139.323 474.1 139.665 473.803 139.942L472.697 141.024C472.445 141.274 472.244 141.572 472.108 141.9C471.971 142.228 471.901 142.58 471.901 142.936C471.901 143.291 471.971 143.643 472.108 143.972C472.244 144.3 472.445 144.598 472.697 144.848L473.755 145.906L451.244 168.442L450.835 168.057C450.736 167.948 450.615 167.862 450.48 167.802C450.346 167.743 450.2 167.712 450.053 167.712C449.906 167.712 449.761 167.743 449.626 167.802C449.491 167.862 449.371 167.948 449.271 168.057L429.069 188.236C428.478 188.83 428.147 189.634 428.147 190.472C428.147 191.311 428.478 192.115 429.069 192.709L432.869 196.509C433.463 197.1 434.267 197.431 435.105 197.431C435.944 197.431 436.748 197.1 437.342 196.509L457.521 176.307C457.63 176.207 457.716 176.087 457.776 175.952C457.835 175.817 457.866 175.672 457.866 175.525C457.866 175.378 457.835 175.232 457.776 175.098C457.716 174.963 457.63 174.842 457.521 174.743L457.136 174.334L479.672 151.823L481.836 153.987C481.91 154.062 481.998 154.122 482.095 154.162C482.192 154.203 482.296 154.224 482.402 154.224C482.507 154.224 482.611 154.203 482.708 154.162C482.805 154.122 482.893 154.062 482.967 153.987L484.073 152.905L484.65 153.482C485.077 153.93 485.315 154.524 485.315 155.142C485.315 155.76 485.077 156.354 484.65 156.801L488.955 161.106C489.077 161.233 489.222 161.334 489.383 161.403C489.545 161.471 489.718 161.507 489.893 161.507C490.069 161.507 490.242 161.471 490.403 161.403C490.565 161.334 490.71 161.233 490.831 161.106L497.854 154.372C497.994 154.244 498.106 154.088 498.182 153.914C498.259 153.74 498.298 153.552 498.298 153.362C498.298 153.172 498.259 152.984 498.182 152.81C498.106 152.636 497.994 152.48 497.854 152.352Z" fill="#444444"/>
<path d="M460.912 155.479L454.562 161.756L444.317 151.534C442.248 152.334 439.991 152.514 437.821 152.053C435.652 151.592 433.663 150.509 432.099 148.937C430.61 147.15 429.65 144.983 429.327 142.679C429.004 140.376 429.331 138.029 430.271 135.901L437.727 144.752C437.851 144.887 438.001 144.994 438.169 145.068C438.337 145.142 438.518 145.18 438.701 145.18C438.884 145.18 439.065 145.142 439.233 145.068C439.4 144.994 439.551 144.887 439.675 144.752L443.956 140.471C444.091 140.347 444.198 140.196 444.272 140.029C444.346 139.861 444.384 139.68 444.384 139.497C444.384 139.314 444.346 139.132 444.272 138.965C444.198 138.797 444.091 138.647 443.956 138.523L435.153 131.139C437.281 130.199 439.628 129.872 441.932 130.195C444.235 130.518 446.402 131.478 448.189 132.967C449.761 134.531 450.844 136.52 451.305 138.689C451.767 140.859 451.586 143.116 450.786 145.185L460.912 155.479Z" fill="#444444"/>
<path d="M479.238 184.388C479.111 184.518 479.013 184.673 478.95 184.843C478.887 185.013 478.86 185.195 478.871 185.376C478.882 185.558 478.932 185.735 479.016 185.896C479.1 186.057 479.216 186.199 479.359 186.312L488.137 193.719C484.073 195.307 478.517 195.235 475.126 191.892C473.541 190.33 472.45 188.337 471.988 186.161C471.526 183.984 471.714 181.72 472.528 179.65L463.87 170.991L470.147 164.714L478.805 173.372C480.876 172.558 483.14 172.37 485.317 172.832C487.493 173.294 489.486 174.385 491.047 175.97C494.39 179.289 494.463 184.917 492.875 188.981L485.468 180.203C485.354 180.061 485.213 179.944 485.052 179.86C484.891 179.776 484.714 179.726 484.532 179.715C484.351 179.704 484.169 179.731 483.999 179.794C483.829 179.857 483.673 179.956 483.544 180.083L479.238 184.388Z" fill="#444444"/>
<path d="M471.999 497.314H444.942C443.29 497.314 441.705 497.97 440.537 499.138C439.369 500.307 438.713 501.891 438.713 503.543V508.209H478.204V503.543C478.204 501.895 477.551 500.314 476.388 499.147C475.225 497.979 473.647 497.32 471.999 497.314Z" fill="#AEAEAE"/>
<g style="mix-blend-mode:multiply" opacity="0.2">
<path d="M458.483 102.903V508.209H438.737V503.519C438.744 501.871 439.403 500.293 440.57 499.13C441.738 497.967 443.318 497.314 444.966 497.314H453.24V224.12C438.153 222.106 424.366 214.519 414.591 202.853C404.815 191.187 399.759 176.285 400.416 161.079C401.074 145.872 407.397 131.462 418.143 120.683C428.889 109.904 443.279 103.536 458.483 102.831V102.903Z" fill="#444444"/>
</g>
<path d="M420.097 511.768H340.729C339.867 511.715 339.003 511.839 338.191 512.132C337.379 512.425 336.635 512.882 336.006 513.473C335.377 514.065 334.876 514.779 334.533 515.571C334.19 516.364 334.014 517.218 334.014 518.082C334.014 518.945 334.19 519.8 334.533 520.592C334.876 521.385 335.377 522.099 336.006 522.69C336.635 523.282 337.379 523.738 338.191 524.031C339.003 524.324 339.867 524.448 340.729 524.395H420.097C421.704 524.296 423.213 523.587 424.316 522.414C425.418 521.241 426.032 519.692 426.032 518.082C426.032 516.472 425.418 514.922 424.316 513.749C423.213 512.576 421.704 511.868 420.097 511.768Z" fill="#E2B548"/>
<path d="M402.998 483.412L398.019 463.979L391.742 439.495L387.701 423.742C385.946 416.864 378.634 416.864 376.855 423.742L372.79 439.495L366.513 463.979L361.534 483.412L355.305 507.92H409.299L402.998 483.412Z" fill="#FFCD26"/>
<path d="M418.558 507.896H346.021V518.238H418.558V507.896Z" fill="#FFCD26"/>
<path d="M409.275 507.92H355.305L361.582 483.412H402.998L409.275 507.92Z" fill="#444444"/>
<path d="M397.995 463.979H366.56L372.837 439.496H391.717L397.995 463.979Z" fill="#444444"/>
<g style="mix-blend-mode:multiply" opacity="0.2">
<path d="M382.41 418.667V518.262H346.021V507.92H355.304L361.581 483.461L366.56 464.027L372.789 439.495L376.878 423.742C377.079 422.391 377.738 421.149 378.745 420.225C379.752 419.302 381.046 418.752 382.41 418.667Z" fill="#444444"/>
</g>
<path d="M589.704 490.772H522.145L530.01 468.838L536.335 451.401L544.2 429.418L549.226 415.349C549.727 413.947 550.649 412.735 551.865 411.878C553.081 411.021 554.533 410.562 556.021 410.562C557.509 410.562 558.96 411.021 560.176 411.878C561.393 412.735 562.314 413.947 562.815 415.349L567.818 429.418L575.682 451.401L581.936 468.838L589.704 490.772Z" fill="#FAA436"/>
<path d="M601.296 490.772H510.528V507.006H601.296V490.772Z" fill="#FAA436"/>
<path d="M589.704 490.772H522.145L530.01 468.838H581.839L589.704 490.772Z" fill="white"/>
<path d="M575.586 451.401H536.215L544.08 429.418H567.722L575.586 451.401Z" fill="white"/>
<g style="mix-blend-mode:multiply" opacity="0.2">
<path d="M555.912 410.731V506.934H510.528V490.7H522.145L530.01 468.765L536.335 451.401L544.2 429.418L549.226 415.348C549.722 413.979 550.632 412.798 551.83 411.97C553.029 411.142 554.456 410.709 555.912 410.731Z" fill="#444444"/>
</g>
</svg>
