<svg width="320" height="297" viewBox="0 0 320 297" fill="none" xmlns="http://www.w3.org/2000/svg">
<path fill-rule="evenodd" clip-rule="evenodd" d="M0 22.6931C36.3992 45.0332 89.3419 65.7953 160.181 65.4887C230.785 65.1832 283.611 44.5161 320 22.3894V152.611V297H0V152.611V22.6931Z" fill="#FFCC00"/>
<g style="mix-blend-mode:multiply" opacity="0.2">
<path d="M69.5971 80.0946H68.417V81.2747H69.5971V80.0946Z" fill="#444444"/>
</g>
<path d="M191.242 121.813H129.484C129.234 121.797 128.984 121.833 128.748 121.917C128.512 122.002 128.296 122.134 128.113 122.306C127.931 122.477 127.785 122.684 127.686 122.914C127.586 123.144 127.535 123.392 127.535 123.643C127.535 123.893 127.586 124.141 127.686 124.371C127.785 124.601 127.931 124.808 128.113 124.979C128.296 125.151 128.512 125.283 128.748 125.368C128.984 125.452 129.234 125.488 129.484 125.472H191.212C191.677 125.442 192.114 125.237 192.432 124.897C192.751 124.557 192.929 124.109 192.929 123.643C192.929 123.177 192.751 122.728 192.432 122.388C192.114 122.048 191.677 121.843 191.212 121.813H191.242Z" fill="#E2B548"/>
<path d="M138.546 73.8903H134.962V120.811H138.546V73.8903Z" fill="#E8E8E8"/>
<path d="M185.779 73.8903H182.194V120.811H185.779V73.8903Z" fill="#E8E8E8"/>
<path d="M193.068 78.4174H127.681V90.1142H193.068V78.4174Z" fill="#FFCD26"/>
<path d="M135.081 78.4174L134.962 78.6103L128.245 90.1217H127.681V78.4174H135.081Z" fill="#444444"/>
<path d="M151.609 78.4174L144.766 90.1217H135.83L138.554 85.4681L142.673 78.4174H151.609Z" fill="#444444"/>
<path d="M168.123 78.4174L161.287 90.1217H152.351L159.194 78.4174H168.123Z" fill="#444444"/>
<path d="M184.644 78.4247L177.808 90.1216H168.872L175.715 78.4247H184.644Z" fill="#444444"/>
<path d="M193.067 78.4247V90.1216H185.393L192.236 78.4247H193.067Z" fill="#444444"/>
<path d="M193.068 99.3469H127.681V111.036H193.068V99.3469Z" fill="#FFCD26"/>
<path d="M135.081 99.3469L134.962 99.5399L128.245 111.036H127.681V99.3469H135.081Z" fill="#444444"/>
<path d="M151.609 99.3469L144.766 111.036H135.83L138.554 106.39L142.673 99.3469H151.609Z" fill="#444444"/>
<path d="M168.123 99.3469L161.287 111.036H152.351L159.194 99.3469H168.123Z" fill="#444444"/>
<path d="M184.644 99.3469L177.808 111.044H168.872L175.715 99.3469H184.644Z" fill="#444444"/>
<path d="M193.067 99.3469V111.044H185.393L192.236 99.3469H193.067Z" fill="#444444"/>
<path d="M188.117 120.811H179.849V123.142H188.117V120.811Z" fill="#AEAEAE"/>
<path d="M140.899 120.811H132.631V123.149H140.899V120.811Z" fill="#AEAEAE"/>
<path d="M140.402 71.9679C140.387 72.5577 140.205 73.1312 139.878 73.6222C139.551 74.1133 139.092 74.5021 138.554 74.7437C137.995 75.0123 137.382 75.1517 136.762 75.1517C136.141 75.1517 135.529 75.0123 134.969 74.7437C134.433 74.5003 133.976 74.1109 133.651 73.62C133.325 73.1292 133.144 72.5567 133.129 71.9679C133.129 70.209 134.754 68.7914 136.765 68.7914C138.777 68.7914 140.402 70.209 140.402 71.9679Z" fill="#FAA436"/>
<path d="M187.627 71.9679C187.627 73.7269 186.002 75.1519 183.99 75.1519C181.979 75.1519 180.346 73.7269 180.346 71.9679C180.346 70.209 181.979 68.7914 183.99 68.7914C186.002 68.7914 187.627 70.2164 187.627 71.9679Z" fill="#FAA436"/>
<g style="mix-blend-mode:multiply" opacity="0.3">
<path d="M138.554 90.1144V99.3398H160.241V111.029H138.554V120.804H140.9V123.142H132.632V120.804H134.969V111.037H127.681V99.3472H134.969V90.1144H127.681V78.4175H134.969V74.7437C134.433 74.5003 133.976 74.1109 133.651 73.62C133.325 73.1292 133.144 72.5567 133.129 71.9679C133.129 70.209 134.754 68.7914 136.766 68.7914C138.777 68.7914 140.402 70.209 140.402 71.9679C140.387 72.5577 140.205 73.1312 139.878 73.6222C139.551 74.1133 139.092 74.5021 138.554 74.7437V78.4175H160.241V90.1144H138.554Z" fill="#444444"/>
</g>
<path d="M283.748 125.472H188.117C187.879 125.457 187.64 125.49 187.416 125.571C187.191 125.651 186.985 125.777 186.811 125.94C186.637 126.103 186.498 126.3 186.403 126.519C186.308 126.738 186.26 126.974 186.26 127.213C186.26 127.451 186.308 127.687 186.403 127.906C186.498 128.125 186.637 128.322 186.811 128.485C186.985 128.649 187.191 128.774 187.416 128.855C187.64 128.935 187.879 128.969 188.117 128.953H283.748C283.986 128.969 284.225 128.935 284.45 128.855C284.674 128.774 284.88 128.649 285.054 128.485C285.228 128.322 285.367 128.125 285.462 127.906C285.557 127.687 285.606 127.451 285.606 127.213C285.606 126.974 285.557 126.738 285.462 126.519C285.367 126.3 285.228 126.103 285.054 125.94C284.88 125.777 284.674 125.651 284.45 125.571C284.225 125.49 283.986 125.457 283.748 125.472Z" fill="#E2B548"/>
<path d="M264.391 72.8215L249.941 24.9876L249.829 24.6239H221.515L221.619 24.9876L222.97 29.4407L226.22 40.2098L227.029 42.8966L231.111 56.3895L231.928 59.0837L234.451 67.4407L235.795 71.8938L252.687 127.832H255.381L253.273 120.848H276.214L278.322 127.832H281.016L264.391 72.8215ZM224.988 27.318H247.952L248.59 29.4407L251.848 40.2247H228.885L224.988 27.318ZM229.701 42.904H252.687L256.769 56.3969H233.776L229.701 42.904ZM237.123 67.4407L235.78 62.9876L234.6 59.0837H257.555L261.407 71.7973H259.181C256.769 71.7973 253.555 71.7973 250.356 71.7973L238.481 71.8641L237.123 67.4407ZM239.268 74.5583C247.811 74.4989 259.144 74.4469 262.216 74.5137L266.187 87.6356H243.209L239.268 74.5583ZM244.04 90.3223H266.996L270.952 103.392H247.944L244.04 90.3223ZM252.442 118.154L248.798 106.086H271.761L275.405 118.154H252.442Z" fill="#AEAEAE"/>
<path d="M221.701 24.6239L221.589 24.9876L207.154 72.8067L190.529 127.818H193.223L195.338 120.834H218.294L216.186 127.818H218.88L235.773 71.8938L237.123 67.4407L239.647 59.0911L240.456 56.3969L244.523 42.9114L245.332 40.2247L248.583 29.4407L249.933 24.9876L250.045 24.6239H221.701ZM219.103 118.139H196.14L199.784 106.072H222.747L219.103 118.139ZM223.556 103.377H200.593L204.549 90.3075H227.505L223.556 103.377ZM228.314 87.6208H205.358L209.321 74.5286C212.401 74.4618 223.734 74.5286 232.269 74.5731L228.314 87.6208ZM235.735 62.9801L234.385 67.4333L233.049 71.8864L221.174 71.8196C217.967 71.8196 214.754 71.8196 212.349 71.8196H210.123L213.967 59.1059H236.93L235.735 62.9801ZM237.724 56.3821H214.791L218.873 42.8891H241.836L237.724 56.3821ZM242.615 40.2024H219.608L222.866 29.4333L223.512 27.2958H246.475L242.615 40.2024Z" fill="#E8E8E8"/>
<path d="M274.092 132.13H236.159C235.68 132.13 235.221 132.32 234.883 132.658C234.545 132.996 234.355 133.455 234.355 133.933C234.355 134.412 234.545 134.87 234.883 135.208C235.221 135.547 235.68 135.737 236.159 135.737H259.5C259.834 135.736 260.162 135.642 260.445 135.465C260.728 135.288 260.956 135.035 261.103 134.735H274.092C274.271 134.748 274.451 134.725 274.621 134.665C274.791 134.606 274.946 134.512 275.078 134.39C275.21 134.268 275.315 134.12 275.387 133.955C275.459 133.79 275.496 133.612 275.496 133.432C275.496 133.252 275.459 133.075 275.387 132.91C275.315 132.745 275.21 132.597 275.078 132.474C274.946 132.352 274.791 132.258 274.621 132.199C274.451 132.14 274.271 132.116 274.092 132.13Z" fill="#E2B548"/>
<path d="M272.422 111.838V132.419C272.42 132.585 272.353 132.743 272.235 132.86C272.117 132.977 271.957 133.042 271.791 133.042H253.17C253.006 133.04 252.849 132.974 252.734 132.857C252.618 132.74 252.554 132.583 252.554 132.419V111.838H272.422Z" fill="#E8E8E8"/>
<path d="M272.029 111.83H271.286C271.286 109.504 270.362 107.272 268.717 105.627C267.072 103.982 264.84 103.058 262.514 103.058C260.187 103.058 257.956 103.982 256.311 105.627C254.665 107.272 253.741 109.504 253.741 111.83H252.999C252.999 109.299 254.005 106.871 255.795 105.081C257.584 103.291 260.012 102.286 262.544 102.286C265.075 102.286 267.503 103.291 269.293 105.081C271.082 106.871 272.088 109.299 272.088 111.83H272.029Z" fill="#E8E8E8"/>
<path d="M272.422 111.838V115.838C271.806 116.002 271.012 115.43 270.285 115.304C269.968 115.259 269.645 115.305 269.353 115.437C269.062 115.568 268.813 115.779 268.637 116.046C268.295 116.595 268.295 117.352 267.783 117.753C267.478 117.921 267.132 118 266.784 117.98C266.436 117.96 266.101 117.843 265.817 117.642C265.26 117.229 264.614 116.952 263.931 116.833C263.662 116.827 263.395 116.877 263.146 116.979C262.897 117.081 262.672 117.233 262.484 117.427C262.291 117.604 262.126 117.809 261.994 118.035C261.652 118.733 261.438 119.488 261.363 120.262C261.26 120.841 261.081 121.509 260.525 121.746C260.193 121.861 259.832 121.861 259.501 121.746C258.919 121.57 258.389 121.254 257.959 120.826C257.528 120.398 257.208 119.87 257.029 119.289C256.673 118.109 256.784 116.536 255.641 115.979C255.103 115.819 254.547 115.722 253.986 115.69C253.422 115.586 252.914 115.283 252.554 114.836V111.868L272.422 111.838Z" fill="#FAA436"/>
<g style="mix-blend-mode:multiply" opacity="0.2">
<path d="M262.484 102.286V103.065C260.159 103.065 257.929 103.988 256.284 105.632C254.639 107.276 253.714 109.505 253.712 111.83H252.969C252.973 109.305 253.976 106.884 255.759 105.096C257.542 103.308 259.959 102.298 262.484 102.286Z" fill="#444444"/>
</g>
<g style="mix-blend-mode:multiply" opacity="0.2">
<path d="M252.554 111.838H262.484V133.072H253.17C253.006 133.07 252.849 133.003 252.734 132.887C252.618 132.77 252.554 132.613 252.554 132.448V111.838Z" fill="#444444"/>
</g>
<path d="M257.66 113.263V133.688C257.66 133.769 257.644 133.85 257.613 133.925C257.581 134.001 257.535 134.069 257.477 134.126C257.419 134.183 257.35 134.229 257.275 134.259C257.199 134.29 257.118 134.305 257.037 134.304H238.586C238.423 134.304 238.266 134.239 238.15 134.124C238.035 134.008 237.97 133.851 237.97 133.688V113.263H257.66Z" fill="#E8E8E8"/>
<path d="M257.274 113.263H256.532C256.532 110.958 255.616 108.747 253.986 107.118C252.356 105.488 250.146 104.572 247.841 104.572C245.536 104.572 243.325 105.488 241.695 107.118C240.065 108.747 239.15 110.958 239.15 113.263H238.407C238.407 110.755 239.404 108.35 241.177 106.577C242.95 104.804 245.355 103.808 247.863 103.808C250.371 103.808 252.776 104.804 254.549 106.577C256.322 108.35 257.318 110.755 257.318 113.263H257.274Z" fill="#E8E8E8"/>
<path d="M257.66 113.263V117.226C257.052 117.389 256.265 116.818 255.545 116.699C255.23 116.654 254.909 116.7 254.62 116.831C254.33 116.963 254.085 117.175 253.912 117.441C253.571 117.983 253.571 118.725 253.066 119.126C252.765 119.293 252.423 119.372 252.079 119.354C251.735 119.335 251.403 119.221 251.121 119.022C250.569 118.612 249.929 118.335 249.251 118.213C248.983 118.208 248.717 118.258 248.469 118.36C248.221 118.462 247.997 118.614 247.811 118.807C247.621 118.982 247.458 119.185 247.329 119.408C246.991 120.108 246.78 120.862 246.705 121.635C246.602 122.206 246.423 122.867 245.874 123.119C245.548 123.237 245.191 123.237 244.865 123.119C244.289 122.944 243.765 122.632 243.337 122.209C242.909 121.786 242.59 121.266 242.408 120.692C242.059 119.52 242.171 117.961 241.035 117.404C240.501 117.246 239.951 117.152 239.395 117.122C238.836 117.02 238.333 116.72 237.977 116.276V113.307L257.66 113.263Z" fill="#FFCD26"/>
<g style="mix-blend-mode:multiply" opacity="0.2">
<path d="M239.128 113.263H247.811V134.304H238.586C238.423 134.304 238.266 134.239 238.15 134.124C238.035 134.008 237.97 133.851 237.97 133.688V113.263H238.356C238.358 110.757 239.354 108.354 241.125 106.582C242.896 104.809 245.298 103.812 247.804 103.808V104.55C245.498 104.556 243.289 105.477 241.662 107.111C240.035 108.744 239.124 110.957 239.128 113.263Z" fill="#444444"/>
</g>
<path d="M124.579 123.149H58.5762C58.2914 123.132 58.006 123.173 57.7378 123.27C57.4696 123.368 57.2241 123.519 57.0164 123.715C56.8087 123.91 56.6432 124.146 56.5301 124.408C56.417 124.67 56.3586 124.953 56.3586 125.238C56.3586 125.523 56.417 125.806 56.5301 126.068C56.6432 126.33 56.8087 126.566 57.0164 126.761C57.2241 126.957 57.4696 127.108 57.7378 127.205C58.006 127.303 58.2914 127.344 58.5762 127.327H124.579C124.864 127.344 125.149 127.303 125.417 127.205C125.685 127.108 125.931 126.957 126.139 126.761C126.346 126.566 126.512 126.33 126.625 126.068C126.738 125.806 126.796 125.523 126.796 125.238C126.796 124.953 126.738 124.67 126.625 124.408C126.512 124.146 126.346 123.91 126.139 123.715C125.931 123.519 125.685 123.368 125.417 123.27C125.149 123.173 124.864 123.132 124.579 123.149Z" fill="#E2B548"/>
<path d="M81.1009 35.2371H77.865V122.466H81.1009V35.2371Z" fill="#E8E8E8"/>
<path d="M80.3737 38.3542C90.7605 38.3542 99.1807 29.934 99.1807 19.5471C99.1807 9.1603 90.7605 0.740112 80.3737 0.740112C69.9868 0.740112 61.5667 9.1603 61.5667 19.5471C61.5667 29.934 69.9868 38.3542 80.3737 38.3542Z" fill="#FFCD26"/>
<path d="M96.3437 22.0394C97.7203 13.2186 91.6855 4.95193 82.8647 3.57536C74.0439 2.19878 65.7773 8.23354 64.4007 17.0544C63.0241 25.8752 69.0589 34.1418 77.8797 35.5184C86.7005 36.895 94.9672 30.8602 96.3437 22.0394Z" fill="#FFCD26"/>
<path d="M80.374 36.1795C77.0826 36.1795 73.8652 35.2034 71.1286 33.3746C68.392 31.5459 66.2593 28.9467 65.0001 25.9057C63.7408 22.8647 63.4118 19.5186 64.0544 16.2906C64.6971 13.0626 66.2826 10.0977 68.6105 7.77086C70.9383 5.44403 73.904 3.85983 77.1323 3.21861C80.3606 2.5774 83.7065 2.90799 86.7469 4.16855C89.7873 5.42912 92.3856 7.56305 94.2131 10.3004C96.0406 13.0378 97.0153 16.2557 97.0138 19.547C97.0079 23.9577 95.2527 28.1859 92.1332 31.304C89.0136 34.4222 84.7846 36.1755 80.374 36.1795ZM80.374 3.84979C77.27 3.85273 74.2365 4.77584 71.6571 6.50246C69.0776 8.22908 67.068 10.6817 65.8822 13.5502C64.6964 16.4188 64.3876 19.5745 64.995 22.6185C65.6023 25.6625 67.0985 28.4581 69.2944 30.6519C71.4903 32.8457 74.2873 34.3393 77.3319 34.9438C80.3765 35.5482 83.5319 35.2365 86.3993 34.048C89.2668 32.8595 91.7175 30.8475 93.4416 28.2664C95.1658 25.6854 96.0861 22.651 96.0861 19.547C96.0821 15.3825 94.425 11.3899 91.4789 8.4465C88.5327 5.50312 84.5385 3.84979 80.374 3.84979Z" fill="#444444"/>
<path d="M91.6331 16.0141L90.2971 14.6856C90.1591 14.8172 89.9757 14.8906 89.785 14.8906C89.5943 14.8906 89.4109 14.8172 89.2729 14.6856L89.0948 14.5075L89.4362 14.1735C89.4833 14.1262 89.5098 14.0621 89.5098 13.9954C89.5098 13.9286 89.4833 13.8645 89.4362 13.8172L86.0221 10.4106C86.0221 10.4106 83.4542 8.49576 81.1163 9.86138L81.7768 10.4477C82.5608 10.4142 83.3409 10.5748 84.0479 10.9153C84.1581 10.9745 84.2526 11.0592 84.3235 11.1622C84.3945 11.2653 84.4398 11.3838 84.4558 11.5079C84.4717 11.632 84.4579 11.7581 84.4153 11.8758C84.3728 11.9934 84.3028 12.0992 84.2112 12.1844L83.8698 12.5184C83.7919 12.5957 83.7301 12.6876 83.6879 12.7889C83.6458 12.8901 83.6241 12.9988 83.6241 13.1085C83.6241 13.2182 83.6458 13.3268 83.6879 13.428C83.7301 13.5293 83.7919 13.6212 83.8698 13.6985L84.1963 14.0251L77.2495 20.9794L77.1233 20.8606C77.0927 20.8271 77.0554 20.8003 77.0139 20.782C76.9724 20.7636 76.9275 20.7542 76.8821 20.7542C76.8367 20.7542 76.7918 20.7636 76.7503 20.782C76.7087 20.8003 76.6715 20.8271 76.6409 20.8606L70.4065 27.0875C70.2243 27.2711 70.1221 27.5192 70.1221 27.7778C70.1221 28.0364 70.2243 28.2845 70.4065 28.468L71.5792 29.6407C71.7627 29.8229 72.0108 29.9251 72.2694 29.9251C72.528 29.9251 72.7761 29.8229 72.9596 29.6407L79.1866 23.4063C79.2201 23.3757 79.2469 23.3384 79.2652 23.2969C79.2835 23.2554 79.293 23.2105 79.293 23.1651C79.293 23.1197 79.2835 23.0748 79.2652 23.0333C79.2469 22.9917 79.2201 22.9545 79.1866 22.9239L79.0678 22.7977L86.0221 15.8508L86.6901 16.5188C86.7129 16.5419 86.74 16.5603 86.77 16.5728C86.7999 16.5853 86.8321 16.5918 86.8645 16.5918C86.897 16.5918 86.9291 16.5853 86.959 16.5728C86.989 16.5603 87.0161 16.5419 87.0389 16.5188L87.3803 16.1848L87.5585 16.3629C87.69 16.501 87.7634 16.6844 87.7634 16.8751C87.7634 17.0658 87.69 17.2491 87.5585 17.3872L88.887 18.7157C88.9244 18.7547 88.9693 18.7858 89.0191 18.8071C89.0688 18.8283 89.1223 18.8393 89.1764 18.8393C89.2305 18.8393 89.284 18.8283 89.3338 18.8071C89.3835 18.7858 89.4285 18.7547 89.4659 18.7157L91.6331 16.6376C91.6763 16.5979 91.7107 16.5498 91.7343 16.4961C91.7579 16.4424 91.7701 16.3845 91.7701 16.3258C91.7701 16.2672 91.7579 16.2092 91.7343 16.1556C91.7107 16.1019 91.6763 16.0538 91.6331 16.0141Z" fill="#444444"/>
<path d="M80.2328 16.979L78.2734 18.9161L75.1117 15.7618C74.4733 16.0086 73.7768 16.0643 73.1073 15.9219C72.4378 15.7796 71.8242 15.4454 71.3414 14.9602C70.882 14.4088 70.5857 13.7401 70.4861 13.0293C70.3864 12.3185 70.4873 11.5941 70.7774 10.9376L73.0781 13.6688C73.1164 13.7104 73.1628 13.7437 73.2146 13.7664C73.2663 13.7891 73.3222 13.8008 73.3787 13.8008C73.4352 13.8008 73.4911 13.7891 73.5429 13.7664C73.5946 13.7437 73.6411 13.7104 73.6793 13.6688L75.0004 12.3477C75.042 12.3095 75.0752 12.263 75.098 12.2113C75.1207 12.1595 75.1324 12.1037 75.1324 12.0471C75.1324 11.9906 75.1207 11.9347 75.098 11.883C75.0752 11.8312 75.042 11.7848 75.0004 11.7466L72.284 9.46803C72.9405 9.17796 73.665 9.07706 74.3757 9.17673C75.0865 9.27639 75.7553 9.57266 76.3067 10.0321C76.7919 10.5149 77.126 11.1285 77.2684 11.798C77.4107 12.4675 77.355 13.164 77.1082 13.8024L80.2328 16.979Z" fill="#444444"/>
<path d="M85.8886 25.9002C85.8494 25.9403 85.8191 25.9882 85.7995 26.0407C85.78 26.0933 85.7717 26.1494 85.7752 26.2053C85.7787 26.2613 85.7939 26.3159 85.8198 26.3656C85.8457 26.4153 85.8818 26.459 85.9257 26.4939L88.6347 28.7799C87.3804 29.2697 85.6659 29.2475 84.6194 28.2158C84.1303 27.734 83.7936 27.119 83.6511 26.4474C83.5086 25.7757 83.5666 25.077 83.8179 24.4381L81.146 21.7662L83.0831 19.8291L85.755 22.501C86.3939 22.2497 87.0926 22.1917 87.7643 22.3342C88.4359 22.4767 89.0509 22.8134 89.5327 23.3025C90.5644 24.3267 90.5866 26.0635 90.0968 27.3178L87.8108 24.6088C87.7759 24.5649 87.7322 24.5288 87.6825 24.5029C87.6328 24.477 87.5782 24.4618 87.5222 24.4583C87.4662 24.4548 87.4102 24.4631 87.3576 24.4826C87.3051 24.5021 87.2572 24.5325 87.2171 24.5717L85.8886 25.9002Z" fill="#444444"/>
<path d="M83.6542 122.466H75.3046C74.7948 122.466 74.3058 122.669 73.9453 123.029C73.5848 123.39 73.3823 123.879 73.3823 124.388V125.828H85.569V124.388C85.569 123.88 85.3675 123.392 85.0086 123.032C84.6498 122.671 84.1627 122.468 83.6542 122.466Z" fill="#AEAEAE"/>
<g style="mix-blend-mode:multiply" opacity="0.2">
<path d="M79.4832 0.754809V125.828H73.3899V124.381C73.3918 123.872 73.5952 123.385 73.9555 123.026C74.3158 122.668 74.8036 122.466 75.3121 122.466H77.8653V38.161C73.2097 37.5395 68.9552 35.1985 65.9385 31.5983C62.9219 27.9982 61.3616 23.3997 61.5644 18.7072C61.7673 14.0147 63.7186 9.56788 67.0347 6.24152C70.3507 2.91516 74.7914 0.949987 79.4832 0.732544V0.754809Z" fill="#444444"/>
</g>
<path d="M67.6379 126.927H43.1457C42.8798 126.91 42.6133 126.948 42.3626 127.039C42.112 127.129 41.8826 127.27 41.6884 127.453C41.4943 127.635 41.3396 127.856 41.2338 128.1C41.128 128.345 41.0735 128.608 41.0735 128.875C41.0735 129.141 41.128 129.405 41.2338 129.649C41.3396 129.894 41.4943 130.114 41.6884 130.297C41.8826 130.479 42.112 130.62 42.3626 130.711C42.6133 130.801 42.8798 130.839 43.1457 130.823H67.6379C68.1338 130.792 68.5994 130.574 68.9397 130.212C69.2801 129.85 69.4696 129.372 69.4696 128.875C69.4696 128.378 69.2801 127.9 68.9397 127.538C68.5994 127.176 68.1338 126.957 67.6379 126.927Z" fill="#E2B548"/>
<path d="M62.3611 118.176L60.8248 112.179L58.8877 104.624L57.6408 99.7626C57.099 97.64 54.8428 97.64 54.2936 99.7626L53.0393 104.624L51.1021 112.179L49.5658 118.176L47.6436 125.739H64.3057L62.3611 118.176Z" fill="#FFCD26"/>
<path d="M67.1627 125.731H44.7783V128.923H67.1627V125.731Z" fill="#FFCD26"/>
<path d="M64.2982 125.739H47.6436L49.5807 118.176H62.3611L64.2982 125.739Z" fill="#444444"/>
<path d="M60.8176 112.179H51.1172L53.0543 104.624H58.8805L60.8176 112.179Z" fill="#444444"/>
<g style="mix-blend-mode:multiply" opacity="0.2">
<path d="M56.0076 98.1965V128.93H44.7783V125.739H47.6432L49.5803 118.191L51.1166 112.194L53.0389 104.624L54.3006 99.7625C54.3627 99.3455 54.5661 98.9624 54.8768 98.6773C55.1876 98.3923 55.5867 98.2225 56.0076 98.1965Z" fill="#444444"/>
</g>
<path d="M119.977 120.447H99.1289L101.556 113.679L103.508 108.298L105.935 101.514L107.486 97.1723C107.64 96.7399 107.925 96.3659 108.3 96.1015C108.676 95.837 109.123 95.6951 109.583 95.6951C110.042 95.6951 110.49 95.837 110.865 96.1015C111.24 96.3659 111.525 96.7399 111.679 97.1723L113.223 101.514L115.65 108.298L117.58 113.679L119.977 120.447Z" fill="#FAA436"/>
<path d="M123.554 120.447H95.5435V125.457H123.554V120.447Z" fill="#FAA436"/>
<path d="M119.977 120.447H99.1289L101.556 113.679H117.55L119.977 120.447Z" fill="white"/>
<path d="M115.62 108.298H103.471L105.898 101.514H113.193L115.62 108.298Z" fill="white"/>
<g style="mix-blend-mode:multiply" opacity="0.2">
<path d="M109.549 95.7476V125.435H95.5435V120.425H99.1282L101.555 113.657L103.507 108.298L105.934 101.514L107.485 97.1726C107.638 96.7499 107.919 96.3854 108.289 96.13C108.659 95.8745 109.099 95.7408 109.549 95.7476Z" fill="#444444"/>
</g>
</svg>
