<svg width="124" height="124" viewBox="0 0 124 124" fill="none" xmlns="http://www.w3.org/2000/svg">
<circle cx="62" cy="62" r="62" transform="rotate(-90 62 62)" fill="#FFCC00"/>
<path fill-rule="evenodd" clip-rule="evenodd" d="M44.7322 62.1255L60.6421 46.2156C61.6185 45.2393 63.2014 45.2393 64.1777 46.2156L80.0876 62.1255C81.0639 63.1018 81.0639 64.6847 80.0876 65.661C79.1113 66.6373 77.5284 66.6373 76.552 65.661L64.9099 54.0189L64.9099 75.5C64.9099 76.8807 63.7906 78 62.4099 78C61.0292 78 59.9099 76.8807 59.9099 75.5L59.9099 54.0189L48.2678 65.661C47.2915 66.6373 45.7085 66.6373 44.7322 65.661C43.7559 64.6847 43.7559 63.1018 44.7322 62.1255Z" fill="#252525"/>
</svg>
