<svg width="704" height="261" viewBox="0 0 704 261" fill="none" xmlns="http://www.w3.org/2000/svg">
<path fill-rule="evenodd" clip-rule="evenodd" d="M172.235 0H0V157.882H36.9076V35.8824H67.6639V103.546H104.572V35.8824H136.353V157.882H172.235V0ZM172.235 260.403H0V178.387H36.9076V224.521H67.6639V111.748H104.572V224.521H136.353V178.387H172.235V260.403Z" fill="#313332"/>
<path d="M215.234 81.2177H238.645L250.825 120.057C251.366 121.771 251.907 123.62 252.449 125.605C253.08 127.59 253.667 129.575 254.208 131.56C254.749 133.544 255.245 135.484 255.697 137.379C256.148 139.273 256.509 141.033 256.779 142.657H257.321C257.591 141.213 257.952 139.544 258.403 137.649C258.854 135.665 259.35 133.635 259.892 131.56C260.433 129.485 260.974 127.455 261.516 125.47C262.057 123.485 262.553 121.681 263.004 120.057L274.778 81.2177H298.19L304.55 166.474H287.093C286.551 157.091 286.01 147.709 285.469 138.326C284.927 128.943 284.567 119.47 284.386 109.907L284.251 98.8103H283.845C282.672 103.772 281.364 108.96 279.92 114.373C278.567 119.786 277.259 124.523 275.996 128.582L263.952 166.474H249.607L237.292 128.447C235.758 123.575 234.315 118.433 232.962 113.02C231.608 107.607 230.526 102.87 229.714 98.8103H229.308C229.308 102.058 229.263 105.486 229.172 109.095C229.082 112.614 228.947 116.132 228.766 119.651C228.676 123.169 228.541 126.643 228.36 130.071C228.27 133.409 228.135 136.477 227.954 139.273L226.33 166.474H209.144L215.234 81.2177Z" fill="#313332"/>
<path d="M385.477 133.725C385.477 139.048 384.62 143.829 382.906 148.07C381.192 152.31 378.801 155.919 375.733 158.896C372.756 161.783 369.238 164.038 365.178 165.662C361.118 167.196 356.742 167.963 352.051 167.963C347.36 167.963 342.984 167.241 338.924 165.798C334.955 164.354 331.481 162.234 328.504 159.437C325.617 156.64 323.316 153.212 321.602 149.152C319.978 145.002 319.166 140.311 319.166 135.078C319.166 129.575 320.023 124.703 321.738 120.463C323.452 116.132 325.797 112.524 328.775 109.637C331.842 106.659 335.406 104.404 339.466 102.87C343.525 101.336 347.901 100.57 352.592 100.57C357.284 100.57 361.614 101.291 365.584 102.735C369.644 104.178 373.117 106.298 376.004 109.095C378.981 111.802 381.282 115.23 382.906 119.38C384.62 123.53 385.477 128.312 385.477 133.725ZM366.937 134.402C366.937 130.703 366.531 127.545 365.719 124.929C364.907 122.312 363.825 120.192 362.471 118.568C361.118 116.944 359.539 115.771 357.735 115.05C355.93 114.238 354.081 113.832 352.186 113.832C350.292 113.832 348.487 114.193 346.773 114.914C345.059 115.546 343.525 116.674 342.172 118.297C340.819 119.831 339.736 121.906 338.924 124.523C338.112 127.139 337.706 130.432 337.706 134.402C337.706 137.92 338.112 140.987 338.924 143.604C339.736 146.13 340.819 148.205 342.172 149.829C343.616 151.453 345.194 152.671 346.909 153.483C348.713 154.295 350.562 154.701 352.457 154.701C354.352 154.701 356.156 154.385 357.87 153.753C359.584 153.032 361.118 151.859 362.471 150.235C363.825 148.611 364.907 146.536 365.719 144.01C366.531 141.393 366.937 138.191 366.937 134.402Z" fill="#313332"/>
<path d="M463.642 134.402C463.642 139.544 462.875 144.19 461.341 148.34C459.807 152.49 457.687 156.054 454.981 159.031C452.274 161.918 449.071 164.129 445.372 165.662C441.673 167.196 437.659 167.963 433.328 167.963C429.088 167.963 425.479 167.331 422.502 166.068C419.525 164.715 416.908 162.865 414.653 160.52H414.112L412.894 166.474H399.902V69.8501H417.765V107.201C420.021 105.126 422.637 103.502 425.615 102.329C428.682 101.156 431.93 100.57 435.358 100.57C444.2 100.57 451.101 103.547 456.063 109.501C461.115 115.456 463.642 123.756 463.642 134.402ZM445.102 134.807C445.102 128.131 443.794 123.079 441.177 119.651C438.561 116.132 434.862 114.373 430.08 114.373C427.554 114.373 425.209 115.005 423.043 116.268C420.878 117.44 419.164 118.794 417.901 120.327V149.964C419.074 151.317 420.562 152.445 422.367 153.347C424.261 154.25 426.246 154.701 428.321 154.701C430.486 154.701 432.561 154.295 434.546 153.483C436.621 152.671 438.426 151.453 439.959 149.829C441.583 148.205 442.846 146.175 443.748 143.739C444.651 141.213 445.102 138.236 445.102 134.807Z" fill="#313332"/>
<path d="M479.388 166.474V101.923H497.387V166.474H479.388ZM488.455 88.1194C485.388 88.1194 482.997 87.2623 481.283 85.5481C479.569 83.7438 478.712 81.5334 478.712 78.9171C478.712 76.3007 479.569 74.1355 481.283 72.4213C482.997 70.617 485.388 69.7148 488.455 69.7148C491.432 69.7148 493.778 70.617 495.492 72.4213C497.297 74.1355 498.199 76.3007 498.199 78.9171C498.199 81.5334 497.342 83.7438 495.628 85.5481C493.913 87.2623 491.523 88.1194 488.455 88.1194Z" fill="#313332"/>
<path d="M555.222 114.914H538.035V144.686C538.035 147.754 538.712 149.874 540.065 151.047C541.508 152.129 543.403 152.671 545.749 152.671C547.553 152.671 549.402 152.49 551.297 152.129C553.192 151.769 554.725 151.272 555.898 150.641L558.605 163.226C557.071 163.948 554.771 164.67 551.703 165.392C548.636 166.113 545.388 166.474 541.959 166.474C534.11 166.474 528.517 164.94 525.179 161.873C521.841 158.715 520.172 154.024 520.172 147.799V114.914H510.157V101.923H520.172V82.0296H538.035V101.923H555.222V114.914Z" fill="#313332"/>
<path d="M627.194 138.867H584.295V139.409C584.295 144.551 586.099 148.385 589.708 150.912C593.317 153.438 597.963 154.701 603.647 154.701C607.256 154.701 610.413 154.34 613.12 153.618C615.917 152.896 618.443 152.039 620.698 151.047L623.946 163.632C621.51 164.805 618.443 165.798 614.744 166.61C611.045 167.512 606.669 167.963 601.617 167.963C596.745 167.963 592.144 167.331 587.813 166.068C583.573 164.715 579.829 162.685 576.581 159.978C573.424 157.272 570.897 153.844 569.003 149.694C567.108 145.544 566.161 140.581 566.161 134.807C566.161 129.665 566.928 125.019 568.462 120.869C569.995 116.628 572.16 113.02 574.957 110.042C577.844 107.065 581.273 104.765 585.242 103.141C589.212 101.427 593.633 100.57 598.504 100.57C607.256 100.57 614.202 103.231 619.345 108.554C624.578 113.877 627.194 121.32 627.194 130.883V138.867ZM608.789 126.552C608.789 124.838 608.564 123.169 608.113 121.545C607.752 119.921 607.12 118.523 606.218 117.35C605.316 116.087 604.188 115.095 602.835 114.373C601.482 113.651 599.812 113.29 597.828 113.29C594.219 113.29 591.242 114.508 588.896 116.944C586.55 119.38 585.152 122.673 584.701 126.823L608.789 126.552Z" fill="#313332"/>
<path d="M659.342 144.822V166.474H641.478V69.8501H659.342V127.229L680.994 101.923H702.782L677.882 129.124L704 166.474H682.753L664.619 139.544L659.342 144.822Z" fill="#313332"/>
<path d="M210.09 195.035C211.096 194.488 212.058 194.084 212.977 193.821C213.917 193.537 214.956 193.395 216.093 193.395C216.968 193.395 217.767 193.493 218.488 193.69C219.232 193.887 219.866 194.204 220.391 194.641C220.916 195.079 221.321 195.669 221.605 196.413C221.911 197.135 222.064 198.02 222.064 199.07V209.142H219.341L218.98 207.469H218.882C218.27 208.169 217.559 208.683 216.75 209.011C215.94 209.317 215.044 209.47 214.059 209.47C212.507 209.47 211.249 209.054 210.287 208.223C209.346 207.392 208.876 206.288 208.876 204.91C208.876 204.057 209.051 203.324 209.401 202.712C209.751 202.077 210.243 201.553 210.877 201.137C211.511 200.721 212.266 200.415 213.141 200.218C214.016 200 214.978 199.89 216.028 199.89H218.652V198.709C218.652 197.725 218.39 197.047 217.865 196.675C217.34 196.282 216.618 196.085 215.7 196.085C215.131 196.085 214.486 196.183 213.764 196.38C213.064 196.555 212.255 196.894 211.336 197.397L210.09 195.035ZM218.685 202.121L216.618 202.154C215.066 202.198 213.972 202.471 213.338 202.974C212.703 203.477 212.386 204.068 212.386 204.746C212.386 205.183 212.452 205.544 212.583 205.828C212.736 206.113 212.933 206.342 213.174 206.517C213.414 206.692 213.688 206.823 213.994 206.911C214.322 206.977 214.65 207.009 214.978 207.009C215.656 207.009 216.323 206.845 216.979 206.517C217.657 206.167 218.226 205.675 218.685 205.041V202.121Z" fill="#313332"/>
<path d="M232.173 203.63V209.142H228.826V185.816H232.173V200.12L238.045 193.657H242.179L235.945 200.186L242.474 209.142H238.504L233.616 202.187L232.173 203.63Z" fill="#313332"/>
<path d="M256.296 196.806C255.596 196.478 254.94 196.249 254.327 196.118C253.737 195.964 253.146 195.888 252.556 195.888C251.637 195.888 250.937 196.063 250.456 196.413C249.997 196.741 249.767 197.189 249.767 197.758C249.767 198.195 249.942 198.578 250.292 198.906C250.642 199.212 251.364 199.519 252.457 199.825L253.441 200.12C254.863 200.557 255.935 201.126 256.656 201.826C257.4 202.526 257.772 203.466 257.772 204.647C257.772 206.091 257.225 207.261 256.132 208.158C255.038 209.032 253.54 209.47 251.637 209.47C250.609 209.47 249.647 209.371 248.75 209.175C247.875 209 247.088 208.748 246.388 208.42L247.175 205.861C247.81 206.167 248.488 206.419 249.209 206.616C249.931 206.813 250.675 206.911 251.44 206.911C252.381 206.911 253.113 206.747 253.638 206.419C254.163 206.091 254.426 205.588 254.426 204.91C254.426 204.275 254.185 203.827 253.704 203.565C253.245 203.28 252.523 202.985 251.539 202.679L250.522 202.384C249.144 201.924 248.116 201.345 247.438 200.645C246.782 199.945 246.454 199.026 246.454 197.889C246.454 197.211 246.596 196.599 246.88 196.052C247.164 195.505 247.558 195.035 248.061 194.641C248.564 194.248 249.166 193.941 249.865 193.723C250.587 193.504 251.375 193.395 252.228 193.395C253.037 193.395 253.857 193.471 254.688 193.624C255.541 193.777 256.328 194.018 257.05 194.346L256.296 196.806Z" fill="#313332"/>
<path d="M276.903 201.99H266.044V202.121C266.044 203.696 266.503 204.888 267.421 205.697C268.34 206.506 269.554 206.911 271.063 206.911C271.894 206.911 272.638 206.845 273.294 206.714C273.972 206.561 274.65 206.331 275.328 206.025L275.984 208.486C275.35 208.77 274.595 209 273.72 209.175C272.845 209.371 271.883 209.47 270.833 209.47C269.718 209.47 268.657 209.317 267.651 209.011C266.645 208.704 265.759 208.223 264.994 207.567C264.25 206.911 263.66 206.08 263.222 205.074C262.785 204.068 262.566 202.865 262.566 201.465C262.566 200.262 262.741 199.169 263.091 198.184C263.463 197.178 263.977 196.325 264.633 195.625C265.311 194.904 266.12 194.357 267.061 193.985C268.023 193.591 269.084 193.395 270.243 193.395C271.249 193.395 272.157 193.559 272.966 193.887C273.797 194.215 274.497 194.685 275.065 195.297C275.656 195.888 276.104 196.621 276.41 197.495C276.739 198.348 276.903 199.3 276.903 200.35V201.99ZM273.425 199.628C273.425 199.103 273.359 198.611 273.228 198.152C273.097 197.692 272.9 197.299 272.638 196.971C272.375 196.621 272.025 196.347 271.588 196.15C271.172 195.932 270.669 195.822 270.079 195.822C268.985 195.822 268.088 196.172 267.389 196.872C266.711 197.572 266.295 198.512 266.142 199.693L273.425 199.628Z" fill="#313332"/>
<path d="M291.724 196.806C291.024 196.478 290.368 196.249 289.756 196.118C289.165 195.964 288.575 195.888 287.984 195.888C287.066 195.888 286.366 196.063 285.885 196.413C285.425 196.741 285.196 197.189 285.196 197.758C285.196 198.195 285.371 198.578 285.721 198.906C286.071 199.212 286.792 199.519 287.886 199.825L288.87 200.12C290.292 200.557 291.363 201.126 292.085 201.826C292.829 202.526 293.201 203.466 293.201 204.647C293.201 206.091 292.654 207.261 291.56 208.158C290.467 209.032 288.969 209.47 287.066 209.47C286.038 209.47 285.075 209.371 284.179 209.175C283.304 209 282.517 208.748 281.817 208.42L282.604 205.861C283.238 206.167 283.916 206.419 284.638 206.616C285.36 206.813 286.103 206.911 286.869 206.911C287.809 206.911 288.542 206.747 289.067 206.419C289.592 206.091 289.854 205.588 289.854 204.91C289.854 204.275 289.614 203.827 289.133 203.565C288.673 203.28 287.952 202.985 286.967 202.679L285.95 202.384C284.572 201.924 283.544 201.345 282.866 200.645C282.21 199.945 281.882 199.026 281.882 197.889C281.882 197.211 282.024 196.599 282.309 196.052C282.593 195.505 282.987 195.035 283.49 194.641C283.993 194.248 284.594 193.941 285.294 193.723C286.016 193.504 286.803 193.395 287.656 193.395C288.466 193.395 289.286 193.471 290.117 193.624C290.97 193.777 291.757 194.018 292.479 194.346L291.724 196.806Z" fill="#313332"/>
<path d="M309.342 193.657H312.721V209.142H310.129L309.703 207.272H309.572C309.025 207.84 308.336 208.354 307.505 208.814C306.674 209.251 305.668 209.47 304.487 209.47C302.846 209.47 301.534 209.011 300.55 208.092C299.566 207.173 299.074 205.796 299.074 203.958V193.657H302.453V203.597C302.453 204.8 302.726 205.642 303.273 206.124C303.841 206.605 304.519 206.845 305.307 206.845C306.16 206.845 306.914 206.67 307.57 206.32C308.227 205.949 308.817 205.467 309.342 204.877V193.657Z" fill="#313332"/>
<path d="M319.804 195.035C320.81 194.488 321.772 194.084 322.691 193.821C323.632 193.537 324.67 193.395 325.808 193.395C326.683 193.395 327.481 193.493 328.203 193.69C328.946 193.887 329.58 194.204 330.105 194.641C330.63 195.079 331.035 195.669 331.319 196.413C331.625 197.135 331.779 198.02 331.779 199.07V209.142H329.056L328.695 207.469H328.596C327.984 208.169 327.273 208.683 326.464 209.011C325.655 209.317 324.758 209.47 323.774 209.47C322.221 209.47 320.963 209.054 320.001 208.223C319.06 207.392 318.59 206.288 318.59 204.91C318.59 204.057 318.765 203.324 319.115 202.712C319.465 202.077 319.957 201.553 320.591 201.137C321.226 200.721 321.98 200.415 322.855 200.218C323.73 200 324.692 199.89 325.742 199.89H328.367V198.709C328.367 197.725 328.104 197.047 327.579 196.675C327.054 196.282 326.333 196.085 325.414 196.085C324.845 196.085 324.2 196.183 323.478 196.38C322.779 196.555 321.969 196.894 321.051 197.397L319.804 195.035ZM328.399 202.121L326.333 202.154C324.78 202.198 323.686 202.471 323.052 202.974C322.418 203.477 322.101 204.068 322.101 204.746C322.101 205.183 322.166 205.544 322.297 205.828C322.45 206.113 322.647 206.342 322.888 206.517C323.128 206.692 323.402 206.823 323.708 206.911C324.036 206.977 324.364 207.009 324.692 207.009C325.37 207.009 326.037 206.845 326.693 206.517C327.372 206.167 327.94 205.675 328.399 205.041V202.121Z" fill="#313332"/>
<path d="M338.442 209.142V193.657H341.001L341.493 196.642C341.865 195.724 342.466 194.958 343.298 194.346C344.129 193.712 345.135 193.395 346.316 193.395C346.841 193.395 347.289 193.438 347.661 193.526C348.055 193.613 348.404 193.734 348.711 193.887L348.087 196.708C347.825 196.577 347.519 196.467 347.169 196.38C346.841 196.293 346.458 196.249 346.021 196.249C344.818 196.249 343.812 196.664 343.002 197.495C342.193 198.305 341.788 199.54 341.788 201.203V209.142H338.442Z" fill="#313332"/>
<path d="M353.629 209.142V185.816H356.943V209.142H353.629Z" fill="#313332"/>
<path d="M364.201 195.035C365.207 194.488 366.169 194.084 367.088 193.821C368.028 193.537 369.067 193.395 370.204 193.395C371.079 193.395 371.878 193.493 372.599 193.69C373.343 193.887 373.977 194.204 374.502 194.641C375.027 195.079 375.432 195.669 375.716 196.413C376.022 197.135 376.175 198.02 376.175 199.07V209.142H373.452L373.091 207.469H372.993C372.381 208.169 371.67 208.683 370.861 209.011C370.051 209.317 369.155 209.47 368.17 209.47C366.618 209.47 365.36 209.054 364.398 208.223C363.457 207.392 362.987 206.288 362.987 204.91C362.987 204.057 363.162 203.324 363.512 202.712C363.862 202.077 364.354 201.553 364.988 201.137C365.622 200.721 366.377 200.415 367.252 200.218C368.127 200 369.089 199.89 370.139 199.89H372.763V198.709C372.763 197.725 372.501 197.047 371.976 196.675C371.451 196.282 370.729 196.085 369.811 196.085C369.242 196.085 368.597 196.183 367.875 196.38C367.175 196.555 366.366 196.894 365.447 197.397L364.201 195.035ZM372.796 202.121L370.729 202.154C369.177 202.198 368.083 202.471 367.449 202.974C366.814 203.477 366.497 204.068 366.497 204.746C366.497 205.183 366.563 205.544 366.694 205.828C366.847 206.113 367.044 206.342 367.285 206.517C367.525 206.692 367.799 206.823 368.105 206.911C368.433 206.977 368.761 207.009 369.089 207.009C369.767 207.009 370.434 206.845 371.09 206.517C371.768 206.167 372.337 205.675 372.796 205.041V202.121Z" fill="#313332"/>
<path d="M382.839 209.142V193.657H385.398L385.89 196.642C386.262 195.724 386.863 194.958 387.694 194.346C388.525 193.712 389.532 193.395 390.713 193.395C391.237 193.395 391.686 193.438 392.058 193.526C392.451 193.613 392.801 193.734 393.107 193.887L392.484 196.708C392.222 196.577 391.915 196.467 391.566 196.38C391.237 196.293 390.855 196.249 390.417 196.249C389.214 196.249 388.208 196.664 387.399 197.495C386.59 198.305 386.185 199.54 386.185 201.203V209.142H382.839Z" fill="#313332"/>
<path d="M410.053 202.941C410.053 204.254 410.479 205.238 411.332 205.894C412.185 206.55 413.333 206.878 414.777 206.878C415.761 206.878 416.669 206.692 417.5 206.32C418.353 205.927 419.02 205.435 419.501 204.844L413.333 198.578C412.437 199.015 411.66 199.584 411.004 200.284C410.37 200.984 410.053 201.87 410.053 202.941ZM406.772 203.04C406.772 201.509 407.22 200.229 408.117 199.201C409.036 198.173 410.249 197.331 411.759 196.675C411.212 196.107 410.731 195.418 410.315 194.608C409.9 193.777 409.692 192.902 409.692 191.984C409.692 191.24 409.834 190.573 410.118 189.983C410.403 189.37 410.796 188.856 411.299 188.441C411.824 188.025 412.426 187.708 413.104 187.489C413.804 187.271 414.558 187.161 415.367 187.161C416.155 187.161 416.887 187.282 417.565 187.522C418.243 187.741 418.823 188.069 419.304 188.506C419.785 188.922 420.157 189.425 420.42 190.015C420.704 190.584 420.846 191.207 420.846 191.885C420.846 193.045 420.54 194.018 419.927 194.805C419.315 195.571 418.55 196.172 417.631 196.61L416.056 194.805C416.559 194.543 416.964 194.171 417.27 193.69C417.598 193.209 417.762 192.651 417.762 192.017C417.762 191.317 417.533 190.737 417.073 190.278C416.614 189.819 416.023 189.589 415.302 189.589C414.514 189.589 413.902 189.808 413.465 190.245C413.049 190.661 412.841 191.229 412.841 191.951C412.841 192.848 413.093 193.679 413.596 194.444C414.099 195.188 414.831 196.052 415.794 197.036L421.207 202.548C421.535 202.001 421.852 201.356 422.158 200.612C422.486 199.868 422.771 199.169 423.011 198.512L425.669 199.562C425.319 200.546 424.925 201.476 424.488 202.351C424.05 203.204 423.624 203.936 423.208 204.549L427.735 209.142H423.667L421.305 206.714C420.693 207.414 419.807 208.048 418.648 208.617C417.489 209.164 416.067 209.437 414.383 209.437C413.224 209.437 412.174 209.284 411.234 208.978C410.315 208.672 409.517 208.245 408.839 207.698C408.183 207.13 407.669 206.452 407.297 205.664C406.947 204.877 406.772 204.002 406.772 203.04Z" fill="#313332"/>
<path d="M442.319 198.841C442.319 197.988 442.472 197.222 442.778 196.544C443.106 195.866 443.555 195.297 444.123 194.838C444.692 194.357 445.37 193.996 446.158 193.755C446.945 193.515 447.798 193.395 448.716 193.395C449.394 193.395 450.083 193.482 450.783 193.657H457.443V195.986H456.295L453.867 195.658C454.239 196.074 454.534 196.555 454.753 197.102C454.972 197.649 455.081 198.217 455.081 198.808C455.081 199.661 454.928 200.426 454.622 201.104C454.315 201.76 453.878 202.329 453.309 202.81C452.763 203.269 452.096 203.619 451.308 203.86C450.521 204.101 449.657 204.221 448.716 204.221C448.41 204.221 448.115 204.21 447.831 204.188C447.568 204.166 447.306 204.133 447.043 204.09C446.628 204.265 446.332 204.472 446.158 204.713C445.983 204.953 445.895 205.216 445.895 205.5C445.895 205.938 446.048 206.244 446.354 206.419C446.661 206.594 447.098 206.681 447.667 206.681H451.571C453.277 206.681 454.6 207.075 455.54 207.862C456.503 208.628 456.984 209.732 456.984 211.176C456.984 212.029 456.787 212.794 456.393 213.472C456.021 214.172 455.475 214.763 454.753 215.244C454.053 215.747 453.2 216.13 452.194 216.392C451.188 216.655 450.061 216.786 448.815 216.786C446.518 216.786 444.703 216.381 443.369 215.572C442.035 214.763 441.368 213.571 441.368 211.996C441.368 211.231 441.619 210.574 442.122 210.028C442.625 209.481 443.292 209.054 444.123 208.748C443.73 208.486 443.413 208.179 443.172 207.83C442.932 207.458 442.811 206.977 442.811 206.386C442.811 205.686 443.019 205.096 443.435 204.614C443.85 204.111 444.397 203.718 445.075 203.433C444.288 203.062 443.631 202.504 443.106 201.76C442.582 200.995 442.319 200.022 442.319 198.841ZM446.059 209.306C445.053 209.787 444.55 210.509 444.55 211.471C444.55 212.346 444.9 213.013 445.6 213.472C446.322 213.932 447.437 214.161 448.946 214.161C449.799 214.161 450.521 214.074 451.111 213.899C451.702 213.746 452.183 213.538 452.555 213.275C452.948 213.013 453.233 212.718 453.408 212.39C453.583 212.062 453.67 211.723 453.67 211.373C453.67 210.542 453.386 209.984 452.817 209.7C452.27 209.437 451.538 209.306 450.619 209.306H446.059ZM451.702 198.873C451.702 197.823 451.428 197.047 450.882 196.544C450.335 196.019 449.613 195.757 448.716 195.757C447.798 195.757 447.065 196.008 446.518 196.511C445.993 197.014 445.731 197.769 445.731 198.775C445.731 199.825 446.004 200.601 446.551 201.104C447.098 201.607 447.82 201.859 448.716 201.859C449.635 201.859 450.357 201.607 450.882 201.104C451.428 200.601 451.702 199.858 451.702 198.873Z" fill="#313332"/>
<path d="M462.894 195.035C463.9 194.488 464.862 194.084 465.781 193.821C466.722 193.537 467.76 193.395 468.898 193.395C469.773 193.395 470.571 193.493 471.293 193.69C472.036 193.887 472.67 194.204 473.195 194.641C473.72 195.079 474.125 195.669 474.409 196.413C474.715 197.135 474.869 198.02 474.869 199.07V209.142H472.146L471.785 207.469H471.686C471.074 208.169 470.363 208.683 469.554 209.011C468.745 209.317 467.848 209.47 466.864 209.47C465.311 209.47 464.053 209.054 463.091 208.223C462.15 207.392 461.68 206.288 461.68 204.91C461.68 204.057 461.855 203.324 462.205 202.712C462.555 202.077 463.047 201.553 463.681 201.137C464.316 200.721 465.07 200.415 465.945 200.218C466.82 200 467.782 199.89 468.832 199.89H471.457V198.709C471.457 197.725 471.194 197.047 470.669 196.675C470.144 196.282 469.423 196.085 468.504 196.085C467.935 196.085 467.29 196.183 466.568 196.38C465.869 196.555 465.059 196.894 464.141 197.397L462.894 195.035ZM471.489 202.121L469.423 202.154C467.87 202.198 466.776 202.471 466.142 202.974C465.508 203.477 465.191 204.068 465.191 204.746C465.191 205.183 465.256 205.544 465.387 205.828C465.54 206.113 465.737 206.342 465.978 206.517C466.218 206.692 466.492 206.823 466.798 206.911C467.126 206.977 467.454 207.009 467.782 207.009C468.46 207.009 469.127 206.845 469.783 206.517C470.461 206.167 471.03 205.675 471.489 205.041V202.121Z" fill="#313332"/>
<path d="M491.768 185.816H495.147V209.142H492.49L492.096 207.436H491.965C491.396 208.092 490.762 208.595 490.062 208.945C489.362 209.295 488.454 209.47 487.339 209.47C486.464 209.47 485.622 209.306 484.813 208.978C484.025 208.628 483.315 208.114 482.68 207.436C482.068 206.758 481.576 205.916 481.204 204.91C480.832 203.904 480.646 202.745 480.646 201.432C480.646 200.207 480.799 199.103 481.106 198.119C481.434 197.135 481.893 196.293 482.484 195.593C483.096 194.893 483.84 194.357 484.714 193.985C485.589 193.591 486.584 193.395 487.7 193.395C488.465 193.395 489.209 193.515 489.931 193.755C490.652 193.996 491.265 194.335 491.768 194.772V185.816ZM491.768 197.495C490.849 196.446 489.745 195.921 488.454 195.921C487.886 195.921 487.339 196.019 486.814 196.216C486.289 196.413 485.819 196.73 485.403 197.167C484.988 197.605 484.66 198.162 484.419 198.841C484.179 199.519 484.058 200.35 484.058 201.334C484.058 202.318 484.168 203.16 484.386 203.86C484.627 204.56 484.933 205.139 485.305 205.599C485.677 206.058 486.103 206.397 486.584 206.616C487.087 206.813 487.601 206.911 488.126 206.911C488.914 206.911 489.603 206.736 490.193 206.386C490.806 206.036 491.33 205.544 491.768 204.91V197.495Z" fill="#313332"/>
<path d="M502.46 193.657H505.839V206.845C505.839 208.092 505.752 209.24 505.577 210.29C505.424 211.34 505.14 212.291 504.724 213.144C504.308 213.997 503.74 214.763 503.018 215.441C502.296 216.119 501.367 216.698 500.229 217.179L498.72 214.752C499.398 214.402 499.967 214.041 500.426 213.669C500.907 213.319 501.29 212.871 501.575 212.324C501.881 211.777 502.099 211.088 502.231 210.257C502.384 209.448 502.46 208.42 502.46 207.173V193.657ZM504.166 189.819C503.576 189.819 503.106 189.644 502.756 189.294C502.406 188.922 502.231 188.463 502.231 187.916C502.231 187.369 502.406 186.921 502.756 186.571C503.127 186.199 503.598 186.013 504.166 186.013C504.735 186.013 505.194 186.199 505.544 186.571C505.916 186.921 506.102 187.369 506.102 187.916C506.102 188.485 505.916 188.944 505.544 189.294C505.194 189.644 504.735 189.819 504.166 189.819Z" fill="#313332"/>
<path d="M526.535 201.99H515.676V202.121C515.676 203.696 516.135 204.888 517.054 205.697C517.973 206.506 519.186 206.911 520.695 206.911C521.527 206.911 522.27 206.845 522.926 206.714C523.604 206.561 524.282 206.331 524.96 206.025L525.616 208.486C524.982 208.77 524.228 209 523.353 209.175C522.478 209.371 521.516 209.47 520.466 209.47C519.35 209.47 518.29 209.317 517.284 209.011C516.277 208.704 515.392 208.223 514.626 207.567C513.883 206.911 513.292 206.08 512.855 205.074C512.417 204.068 512.199 202.865 512.199 201.465C512.199 200.262 512.374 199.169 512.723 198.184C513.095 197.178 513.609 196.325 514.265 195.625C514.943 194.904 515.753 194.357 516.693 193.985C517.655 193.591 518.716 193.395 519.875 193.395C520.881 193.395 521.789 193.559 522.598 193.887C523.429 194.215 524.129 194.685 524.698 195.297C525.288 195.888 525.737 196.621 526.043 197.495C526.371 198.348 526.535 199.3 526.535 200.35V201.99ZM523.058 199.628C523.058 199.103 522.992 198.611 522.861 198.152C522.73 197.692 522.533 197.299 522.27 196.971C522.008 196.621 521.658 196.347 521.22 196.15C520.805 195.932 520.302 195.822 519.711 195.822C518.618 195.822 517.721 196.172 517.021 196.872C516.343 197.572 515.928 198.512 515.774 199.693L523.058 199.628Z" fill="#313332"/>
<path d="M540.963 196.15H536.567V204.516C536.567 205.282 536.742 205.796 537.092 206.058C537.464 206.32 537.956 206.452 538.568 206.452C539.006 206.452 539.465 206.408 539.946 206.32C540.449 206.211 540.887 206.091 541.258 205.96L541.783 208.453C541.346 208.628 540.777 208.792 540.077 208.945C539.399 209.076 538.678 209.142 537.912 209.142C536.25 209.142 535.047 208.803 534.303 208.125C533.582 207.425 533.221 206.397 533.221 205.041V196.15H530.859V193.657H533.221V188.769H536.567V193.657H540.963V196.15Z" fill="#313332"/>
<path d="M547.331 209.142V185.816H550.645V209.142H547.331Z" fill="#313332"/>
<path d="M563.293 192.349C564.872 192.349 566.256 192.667 567.446 193.302C568.635 193.938 569.558 194.881 570.214 196.132C570.89 197.383 571.229 198.931 571.229 200.776C571.229 202.58 570.921 204.129 570.306 205.42C569.711 206.712 568.86 207.707 567.753 208.404C566.666 209.101 565.395 209.449 563.939 209.449C562.545 209.449 561.335 209.142 560.31 208.527C559.285 207.912 558.496 207.05 557.942 205.943C557.409 204.815 557.142 203.503 557.142 202.006V200.376H568.43C568.389 198.51 567.907 197.096 566.984 196.132C566.082 195.148 564.811 194.656 563.17 194.656C562.125 194.656 561.192 194.758 560.372 194.963C559.572 195.148 558.742 195.425 557.88 195.794V193.425C558.721 193.056 559.551 192.79 560.372 192.626C561.192 192.441 562.166 192.349 563.293 192.349ZM568.368 202.529H559.972C559.992 203.924 560.32 205.061 560.956 205.943C561.592 206.804 562.596 207.235 563.97 207.235C565.262 207.235 566.277 206.825 567.015 206.005C567.774 205.164 568.225 204.006 568.368 202.529Z" fill="#313332"/>
<path d="M577.494 209.142V193.657H580.053L580.545 196.642C580.917 195.724 581.519 194.958 582.35 194.346C583.181 193.712 584.187 193.395 585.368 193.395C585.893 193.395 586.341 193.438 586.713 193.526C587.107 193.613 587.457 193.734 587.763 193.887L587.14 196.708C586.877 196.577 586.571 196.467 586.221 196.38C585.893 196.293 585.51 196.249 585.073 196.249C583.87 196.249 582.864 196.664 582.054 197.495C581.245 198.305 580.841 199.54 580.841 201.203V209.142H577.494Z" fill="#313332"/>
</svg>
