<svg width="499" height="225" viewBox="0 0 499 225" fill="none" xmlns="http://www.w3.org/2000/svg">
<path fill-rule="evenodd" clip-rule="evenodd" d="M127 28H0V144.41H27.2143V54.4567H49.8929V104.346H77.1071V54.4567H100.542V144.41H127V28ZM127 220H0V159.528H27.2143V193.543H49.8929V110.394H77.1071V193.543H100.542V159.528H127V220Z" fill="#313332"/>
<path d="M186.6 136.75V151.625H253.625V136.75H186.6ZM253.625 101.925V116.8H186.6V101.925H253.625Z" fill="#313332"/>
<path d="M337.934 64.9299V184H312.041V64.9299H337.934Z" fill="#313332"/>
<path d="M417.95 62.851C426.392 62.851 434.204 64.237 441.386 67.009C448.568 69.781 454.742 73.813 459.908 79.105C465.2 84.271 469.295 90.697 472.193 98.383C475.217 106.069 476.729 114.826 476.729 124.654C476.729 138.514 473.642 150.421 467.468 160.375C461.42 170.329 452.852 178.33 441.764 184.378L419.651 196.663C422.423 196.915 425.069 197.419 427.589 198.175C430.235 199.057 432.944 199.939 435.716 200.821C438.614 201.829 441.575 202.711 444.599 203.467C447.749 204.223 451.214 204.601 454.994 204.601C458.144 204.601 461.231 204.097 464.255 203.089C467.279 202.081 469.736 200.821 471.626 199.309L480.698 216.697C478.556 218.461 475.343 220.225 471.059 221.989C466.775 223.753 461.609 224.635 455.561 224.635C450.269 224.635 445.292 224.005 440.63 222.745C435.968 221.611 431.495 220.288 427.211 218.776C422.927 217.39 418.769 216.067 414.737 214.807C410.705 213.673 406.61 213.106 402.452 213.106C398.672 213.106 395.27 213.484 392.246 214.24C389.222 215.122 386.135 216.508 382.985 218.398L374.291 202.144L404.909 184.567C390.797 182.047 379.583 175.621 371.267 165.289C362.951 154.957 358.793 141.412 358.793 124.654C358.793 115.078 360.242 106.51 363.14 98.95C366.164 91.264 370.322 84.775 375.614 79.483C380.906 74.065 387.143 69.97 394.325 67.198C401.633 64.3 409.508 62.851 417.95 62.851ZM386.198 124.465C386.198 131.521 387.017 137.695 388.655 142.987C390.293 148.279 392.498 152.752 395.27 156.406C398.042 159.934 401.318 162.58 405.098 164.344C408.878 166.108 412.973 166.99 417.383 166.99C421.919 166.99 426.077 166.108 429.857 164.344C433.763 162.454 437.165 159.745 440.063 156.217C442.961 152.563 445.229 148.09 446.867 142.798C448.505 137.506 449.324 131.395 449.324 124.465C449.324 117.157 448.442 110.857 446.678 105.565C445.04 100.273 442.772 95.926 439.874 92.524C437.102 89.122 433.763 86.6019 429.857 84.9639C425.951 83.326 421.856 82.507 417.572 82.507C413.162 82.507 409.067 83.389 405.287 85.153C401.507 86.791 398.168 89.3739 395.27 92.902C392.498 96.43 390.293 100.84 388.655 106.132C387.017 111.298 386.198 117.409 386.198 124.465Z" fill="#313332"/>
<path d="M479.244 8.91108C477.371 8.91108 475.585 9.26053 473.888 9.95944C472.249 10.6001 470.493 11.6776 468.62 13.1919L463.79 5.85336C466.073 3.9896 468.532 2.56266 471.166 1.57254C473.859 0.524181 477.02 0 480.649 0C483.459 0 485.946 0.407696 488.112 1.22309C490.337 2.03848 492.21 3.17421 493.732 4.63027C495.254 6.08632 496.395 7.80447 497.156 9.78471C497.976 11.7067 498.385 13.8326 498.385 16.1622C498.385 20.0062 497.01 24.0541 494.259 28.3058C491.507 32.4992 487.556 37.013 482.405 41.8471L476.873 47.0016H499V56H465.107L463 48.312L470.902 40.4493C473.829 37.5372 476.288 34.9745 478.278 32.7613C480.268 30.4899 481.878 28.4514 483.107 26.6459C484.337 24.8404 485.215 23.1804 485.741 21.6661C486.268 20.1518 486.532 18.6375 486.532 17.1232C486.532 14.4441 485.829 12.4056 484.424 11.0078C483.078 9.60998 481.351 8.91108 479.244 8.91108Z" fill="#313332"/>
</svg>
