<svg width="124" height="124" viewBox="0 0 124 124" fill="none" xmlns="http://www.w3.org/2000/svg">
<circle cx="62" cy="62" r="62" fill="#FFCC00"/>
<path fill-rule="evenodd" clip-rule="evenodd" d="M61.8745 44.7322L77.7844 60.6421C78.7607 61.6185 78.7607 63.2014 77.7844 64.1777L61.8745 80.0876C60.8982 81.0639 59.3153 81.0639 58.339 80.0876C57.3627 79.1113 57.3627 77.5284 58.339 76.552L69.9811 64.9099L48.5 64.9099C47.1193 64.9099 46 63.7906 46 62.4099V62.4099C46 61.0292 47.1193 59.9099 48.5 59.9099L69.9811 59.9099L58.339 48.2678C57.3627 47.2915 57.3627 45.7085 58.339 44.7322C59.3153 43.7559 60.8982 43.7559 61.8745 44.7322Z" fill="#252525"/>
</svg>
