<svg width="16" height="15" viewBox="0 0 16 15" fill="none" xmlns="http://www.w3.org/2000/svg">
<path d="M15.9605 5.461C15.8618 5.15565 15.5909 4.93877 15.2705 4.90989L10.918 4.51469L9.19696 0.48633C9.07006 0.191103 8.78104 0 8.45993 0C8.13882 0 7.8498 0.191103 7.7229 0.48702L6.00182 4.51469L1.64867 4.90989C1.32882 4.93946 1.05867 5.15565 0.959383 5.461C0.860092 5.76635 0.95179 6.10127 1.19375 6.31239L4.48369 9.1977L3.51356 13.4711C3.44258 13.7853 3.56453 14.1101 3.82524 14.2986C3.96538 14.3998 4.12933 14.4514 4.29466 14.4514C4.43721 14.4514 4.57861 14.4129 4.70551 14.337L8.45993 12.0931L12.213 14.337C12.4876 14.5022 12.8338 14.4872 13.0939 14.2986C13.3548 14.1095 13.4766 13.7846 13.4056 13.4711L12.4355 9.1977L15.7254 6.31297C15.9674 6.10127 16.0598 5.76693 15.9605 5.461Z" fill="#FFC107"/>
</svg>
