<svg width="15" height="13" viewBox="0 0 15 13" fill="none" xmlns="http://www.w3.org/2000/svg">
<path d="M0.551789 13V9.904C0.551789 8.752 0.731789 7.714 1.09179 6.79C1.45179 5.866 2.04579 5.122 2.87379 4.558C3.71379 3.994 4.85379 3.682 6.29379 3.622V0.147999H8.74179V3.622C10.2058 3.682 11.3458 3.97 12.1618 4.486C12.9778 4.99 13.5538 5.698 13.8898 6.61C14.2258 7.51 14.3998 8.596 14.4118 9.868L14.4478 13H11.8918L11.8558 9.904C11.8438 9.076 11.7718 8.41 11.6398 7.906C11.5198 7.39 11.3338 6.988 11.0818 6.7C10.8298 6.412 10.5058 6.208 10.1098 6.088C9.72579 5.956 9.26979 5.866 8.74179 5.818V9.94H6.29379V5.818C5.80179 5.866 5.35779 5.95 4.96179 6.07C4.57779 6.19 4.24779 6.394 3.97179 6.682C3.69579 6.958 3.47979 7.354 3.32379 7.87C3.17979 8.374 3.10779 9.04 3.10779 9.868V13H0.551789Z" fill="#333333"/>
</svg>
