<svg width="66" height="54" viewBox="0 0 66 54" fill="none" xmlns="http://www.w3.org/2000/svg">
<path d="M52.7252 0.257053L44.036 13.3922L35.0551 0.257053H52.7252ZM42.6555 16.3961H23.379L33.0162 53.0522L42.6555 16.3961ZM24.0223 14.2442H42.0107L33.0161 1.08774L24.0223 14.2442ZM21.9986 13.3922L30.9784 0.257053H13.3093L21.9986 13.3922ZM30.974 53.743L21.155 16.3961H0L30.974 53.743ZM0.0300629 14.2442H19.9824L11.2908 1.10594L0.0300629 14.2442ZM54.7286 1.12967L46.0521 14.2442H65.9701L54.7286 1.12967ZM44.8794 16.3961L35.0594 53.7398L66 16.3961H44.8794Z" fill="url(#paint0_linear)"/>
<defs>
<linearGradient id="paint0_linear" x1="33" y1="0.257053" x2="33" y2="53.743" gradientUnits="userSpaceOnUse">
<stop stop-color="#09329E"/>
<stop offset="1" stop-color="#7A14B0"/>
</linearGradient>
</defs>
</svg>
